<svg width="181" height="118" viewBox="0 0 181 118" fill="none" xmlns="http://www.w3.org/2000/svg">
<g clip-path="url(#clip0_45_1072)">
<path d="M6.33487 80.4596C6.15921 81.2061 6.10432 81.8317 5.8628 82.3696C3.76593 86.9798 4.56735 91.3486 7.19118 95.399C10.2541 100.152 14.8211 103.05 20.0249 105.015C20.1786 105.07 20.3762 105.048 20.7714 105.07C20.6616 103.522 20.6397 102.04 20.442 100.58C18.6855 87.8031 23.4391 77.7264 33.4184 70.0098C38.2599 66.2667 43.5185 63.0725 48.4368 59.4282C52.8391 56.1681 57.0658 52.6665 61.3144 49.1979C62.2915 48.3966 62.9612 48.2539 64.0371 49.0552C65.8704 50.4163 67.8136 51.6237 69.7678 52.8092C72.183 54.2911 74.181 56.1462 75.8278 58.4622C76.717 59.7026 77.9576 60.6905 79.0664 61.7772C80.9218 63.5994 82.7661 65.4325 84.6763 67.1888C85.1374 67.6059 85.862 67.7376 86.4658 67.9901C86.3011 67.3424 86.2792 66.607 85.9498 66.0582C85.4668 65.2459 84.7422 64.5653 84.1713 63.7969C83.9079 63.4457 83.7542 63.0066 83.7761 62.4797C85.3131 63.8189 86.8171 65.202 88.387 66.4972C89.0348 67.0351 89.8471 68.1437 90.6815 67.2436C91.5927 66.2557 90.3522 65.5423 89.7264 64.9276C88.4419 63.6543 87.0696 62.4797 85.9389 61.0089C87.4209 62.0077 88.892 62.9956 90.3741 64.0055C90.7474 64.258 91.0987 64.5763 91.4939 64.7958C92.1965 65.202 92.965 66.2118 93.6896 65.2239C93.9311 64.8946 93.3163 63.5994 92.7784 63.1164C91.4171 61.9089 89.8691 60.9101 88.398 59.8234C88.0138 59.538 87.6295 59.2306 87.41 58.6598C87.8381 58.8684 88.2663 59.055 88.6834 59.2745C90.2643 60.0868 91.8233 60.9649 93.4481 61.6784C93.8213 61.8431 94.4361 61.4699 94.9411 61.3491C94.7545 60.8223 94.7325 60.0429 94.3483 59.8014C92.5917 58.6598 90.7144 57.6939 88.914 56.6072C87.904 55.9925 86.905 55.3449 85.9938 54.5875C85.6315 54.2911 85.5327 53.6764 85.3131 53.2044C85.7961 53.0397 86.2792 52.8092 86.7732 52.7104C87.8381 52.4909 88.925 52.4141 89.9679 52.1287C90.3741 52.0189 90.8132 51.5579 90.9889 51.1408C91.2524 50.5041 91.0438 49.9772 90.1765 49.9772C87.7613 49.9553 85.357 49.9223 82.9418 49.8894C82.6234 49.8894 82.2721 49.8126 81.9867 49.9004C79.264 50.7785 77.3648 49.2747 75.4765 47.705C73.4345 46.0146 71.3925 44.3242 69.3286 42.6557C68.5821 42.052 68.2308 41.4593 68.9773 40.6031C73.2589 35.7843 75.1142 29.8898 76.4755 23.7757C77.771 17.98 79.791 12.5136 83.1943 7.56308C87.377 1.47099 93.2065 -0.625568 100.31 0.131827C101.309 0.241595 102.308 0.384292 103.296 0.55992C106.315 1.0868 108.938 2.25034 110.717 4.95062C112.638 7.85946 115.547 9.45108 118.72 10.6805C120.158 11.2403 121.564 11.9209 122.969 12.5685C123.858 12.9856 124.133 13.6332 123.693 14.5882C122.639 16.8604 121.75 19.2314 120.576 21.4267C119.357 23.6989 117.095 24.599 114.691 24.5551C112.254 24.5222 109.795 24.0611 107.38 23.6111C106.205 23.3916 105.546 23.6001 104.931 24.6539C103.131 27.7274 102.231 31.0094 102.231 34.5769C102.231 42.4362 102.198 50.3065 102.154 58.1659C102.11 65.8276 98.3883 71.6673 92.7674 76.4422C90.4729 78.385 87.871 79.9547 85.4778 81.7878C84.9179 82.2159 84.336 82.9843 84.2592 83.6429C83.4248 90.4814 82.2831 97.309 82.7771 104.246C82.8649 105.52 83.0076 106.826 83.4138 108.022C83.6883 108.813 84.3909 109.515 85.0496 110.086C86.0047 110.92 87.1574 111.535 88.1235 112.369C88.9689 113.094 89.3861 114.092 89.0018 115.212C88.6176 116.332 87.8271 117.045 86.5866 117.155C85.1265 117.287 83.6773 117.484 82.2172 117.539C77.255 117.726 74.7739 114.466 74.0822 110.283C73.5992 107.375 73.8297 104.356 73.4784 101.414C73.1491 98.6262 72.5343 95.86 71.9085 93.1158C71.6231 91.8535 69.7458 91.3047 68.4833 92.1389C64.6079 94.7184 60.7655 97.3638 56.967 100.075C56.3522 100.514 55.968 101.359 55.6057 102.073C54.6506 103.939 53.8382 105.871 52.8282 107.704C51.6205 109.899 52.0926 111.107 54.5188 111.699C55.8472 112.029 57.1756 112.336 58.471 112.753C59.3932 113.05 59.7775 113.752 59.7226 114.773C59.6787 115.783 59.4591 116.672 58.4271 116.946C56.8133 117.374 55.1446 117.945 53.5088 117.912C47.7123 117.781 41.9047 117.451 36.1081 117.122C30.7397 116.815 25.4921 115.838 20.4969 113.796C15.0407 111.557 10.0126 108.604 5.85182 104.356C2.5144 100.953 0.32971 96.9687 0.0223165 92.1279C-0.208229 88.5605 0.516342 85.2126 2.71201 82.3037C3.52441 81.217 4.63322 80.5475 6.32389 80.4267L6.33487 80.4596Z" fill="#116380"/>
<path d="M125.955 75.1358C124.363 76.3433 122.76 77.5288 121.19 78.7582C120.652 79.1753 119.697 79.5704 120.301 80.4486C120.894 81.3267 121.794 80.9645 122.497 80.4815C124.374 79.2082 126.207 77.891 128.227 76.7494C127.931 77.1116 127.667 77.5068 127.338 77.8471C126.537 78.6594 125.658 79.4058 124.901 80.251C124.582 80.6132 124.495 81.173 124.297 81.6341C124.857 81.667 125.406 81.7109 125.966 81.7219C126.075 81.7219 126.218 81.6121 126.306 81.5133C129.764 77.7044 134.847 75.8493 138.053 71.7111C138.722 70.8439 139.809 70.2841 140.775 69.6804C141.862 69.0108 143.026 68.4729 144.135 67.8363C146.44 66.5301 146.429 66.5191 148.109 68.6595C154.4 76.6396 157.133 85.6625 156.134 95.7941C156.079 96.31 156.134 96.8369 156.134 97.3637C156.244 97.3967 156.365 97.4406 156.474 97.4735C157.177 95.9368 158.033 94.4439 158.538 92.8413C159.823 88.7031 160.811 84.477 162.161 80.3608C163.149 77.3422 164.203 74.2577 165.795 71.5355C168.254 67.3423 171.723 64.1152 176.708 62.9955C178.146 62.6662 179.76 63.3907 180.451 64.6311C181.34 66.2227 181.22 67.1557 179.814 68.5278C178.936 69.395 178.014 70.2182 177.048 70.9866C173.634 73.6759 171.658 77.2543 170.593 81.3926C169.572 85.3662 168.671 89.3727 167.574 93.3353C165.543 100.613 162.139 107.067 156.134 111.93C150.349 116.617 143.805 118.593 136.439 117.528C131.323 116.793 126.229 116.65 121.168 117.748C118.083 118.417 115.394 117.616 112.803 116.079C111.046 115.036 110.892 113.368 112.495 112.084C113.022 111.655 113.637 111.304 114.263 111.041C115.778 110.393 116.447 109.23 116.272 107.66C115.92 104.444 115.569 101.228 115.053 98.0443C114.581 95.2123 113.933 92.4132 113.253 89.6142C112.956 88.3848 112.495 87.1773 111.979 86.0248C109.86 81.3157 107.621 76.6506 107.138 71.4147C106.808 67.8034 106.786 64.181 107.884 60.6795C108.73 58.0121 108.719 55.5094 107.434 52.9848C106.227 50.6248 106.106 48.0672 107.05 45.6523C108.214 42.6886 107.961 39.8127 107.456 36.7941C107.193 35.2573 107.346 33.5889 107.621 32.0411C107.95 30.1531 109.377 29.6482 110.838 30.8886C112.287 32.1289 113.582 33.5559 114.834 35.0158C115.514 35.8062 116.162 36.1794 117.238 36.2562C119.093 36.3769 120.938 36.6953 122.749 37.1234C123.792 37.3758 124.528 37.2661 125.362 36.5416C126.701 35.3781 128.074 34.2035 129.61 33.3364C131.718 32.1399 132.75 32.8644 132.761 35.3012C132.761 38.1771 132.234 40.9213 130.95 43.5228C130.653 44.1265 130.686 44.9278 130.697 45.6303C130.73 47.7598 130.818 49.8893 130.884 52.0078C130.972 55.0155 132.662 57.123 134.88 58.8573C136.165 59.8562 137.625 60.6246 139.293 61.6674C136.922 62.9626 135.352 65.2019 132.19 64.6201C129.018 64.0383 125.746 63.9505 122.518 63.6651C122.266 63.6432 121.992 63.742 121.618 63.8078C122.057 65.2897 123.056 66.0142 124.396 66.3544C124.923 66.4862 125.483 66.4971 126.01 66.6508C126.449 66.7825 126.844 67.035 127.261 67.2326C126.965 67.7265 126.789 68.4071 126.361 68.6595C124.912 69.5267 123.386 70.2512 121.871 70.9866C120.52 71.6452 119.093 72.1721 117.776 72.8966C117.337 73.1381 117.15 73.8186 116.854 74.3016C117.381 74.4333 117.973 74.8065 118.413 74.6638C120.235 74.0821 122.002 73.3356 123.792 72.6551C123.99 72.5783 124.198 72.5124 124.593 72.699C124.286 72.9515 124.012 73.2478 123.682 73.4454C122.09 74.4223 120.476 75.3773 118.874 76.3433C118.599 76.5079 118.237 76.6506 118.116 76.9031C117.919 77.3092 117.875 77.8032 117.765 78.2532C118.193 78.2971 118.698 78.5276 119.027 78.374C120.564 77.6715 122.046 76.8811 123.539 76.0908C124.308 75.6847 125.043 75.2346 125.79 74.8065C125.867 74.9053 125.944 75.0041 126.01 75.1029L125.955 75.1358ZM126.383 105.574C126.46 106.562 125.779 107.781 127.228 108.077C128.304 108.297 129.457 108.121 130.533 108.121C130.862 106.277 129.753 105.684 126.383 105.574Z" fill="#80BECE"/>
</g>
<defs>
<clipPath id="clip0_45_1072">
<rect width="181" height="118" fill="white"/>
</clipPath>
</defs>
</svg>
