<svg width="178" height="29" viewBox="0 0 178 29" fill="none" xmlns="http://www.w3.org/2000/svg">
<path d="M168.07 19.1892C167.231 19.1892 166.457 19.04 165.748 18.7416C165.04 18.4433 164.471 17.9771 164.042 17.343C163.613 16.6903 163.398 15.8605 163.398 14.8534C163.398 13.4175 163.865 12.3173 164.797 11.5527C165.729 10.7694 167.156 10.3778 169.077 10.3778H172.294V10.182C172.294 9.80905 172.079 9.52932 171.65 9.34284C171.24 9.13771 170.569 9.03514 169.636 9.03514C168.928 9.03514 168.163 9.10041 167.343 9.23095C166.541 9.34284 165.776 9.51068 165.049 9.73446V6.34977C165.757 6.0514 166.643 5.81829 167.706 5.65045C168.769 5.46397 169.813 5.37073 170.839 5.37073C173.002 5.37073 174.737 5.81829 176.042 6.71341C177.347 7.58989 178 8.9792 178 10.8813V18.9095H172.741L172.49 17.9025C172.023 18.2941 171.427 18.6111 170.699 18.8535C169.991 19.0773 169.114 19.1892 168.07 19.1892ZM170.252 15.8045C170.718 15.8045 171.11 15.7299 171.427 15.5807C171.762 15.4129 172.051 15.2078 172.294 14.9653V13.5387H170.392C169.403 13.5387 168.909 13.921 168.909 14.6856C168.909 15.4315 169.357 15.8045 170.252 15.8045Z" fill="#116380"/>
<path d="M158.959 19.1891C157.056 19.1891 155.686 18.7229 154.847 17.7905C154.007 16.8394 153.588 15.562 153.588 13.9582V10.042H151.938V5.65034H153.588V2.99294L159.602 1.67822V5.65034H162.483L162.315 10.042H159.602V13.5946C159.602 14.4897 160.106 14.9372 161.113 14.9372C161.672 14.9372 162.231 14.844 162.791 14.6575V18.5177C162.25 18.7415 161.672 18.9094 161.057 19.0212C160.441 19.1331 159.742 19.1891 158.959 19.1891Z" fill="#116380"/>
<path d="M144.931 19.1891C143.738 19.1891 142.61 19.0958 141.547 18.9094C140.484 18.7415 139.663 18.5364 139.085 18.294V14.2659C139.533 14.4897 140.036 14.6855 140.596 14.8533C141.174 15.0025 141.752 15.1144 142.33 15.189C142.908 15.2636 143.402 15.3009 143.813 15.3009C144.353 15.3009 144.782 15.2916 145.099 15.2729C145.416 15.2356 145.575 15.1051 145.575 14.8813C145.575 14.6948 145.426 14.5456 145.127 14.4337C144.848 14.3218 144.475 14.21 144.008 14.0981C143.542 13.9675 143.029 13.809 142.47 13.6225C141.258 13.175 140.363 12.6715 139.784 12.112C139.225 11.5339 138.945 10.7041 138.945 9.62244C138.945 8.24246 139.495 7.18883 140.596 6.46154C141.715 5.73425 143.44 5.37061 145.771 5.37061C146.349 5.37061 146.964 5.4079 147.617 5.4825C148.27 5.53844 148.885 5.61304 149.463 5.70628C150.06 5.79952 150.535 5.91141 150.89 6.04195V10.0141C150.312 9.75298 149.687 9.5665 149.015 9.45461C148.344 9.32407 147.738 9.2588 147.197 9.2588C146.712 9.2588 146.237 9.27745 145.771 9.31474C145.304 9.35204 145.071 9.48258 145.071 9.70636C145.071 9.94879 145.342 10.126 145.883 10.2378C146.442 10.3497 147.123 10.5362 147.925 10.7973C148.913 11.077 149.677 11.394 150.218 11.7484C150.778 12.1027 151.169 12.5316 151.393 13.0351C151.617 13.5386 151.729 14.154 151.729 14.8813C151.729 16.224 151.151 17.2776 149.994 18.0422C148.857 18.8068 147.169 19.1891 144.931 19.1891Z" fill="#116380"/>
<path d="M130.817 4.22387V0H137.279V4.22387H130.817ZM131.265 18.9095V10.0142H129.391L129.894 5.65047H137.279V18.9095H131.265Z" fill="#116380"/>
<path d="M116.19 18.9094L109.281 0.89502H115.547L119.323 11.8603L123.128 0.89502H129.422L122.484 18.9094H116.19Z" fill="#116380"/>
<path d="M99.4883 18.9094V5.65033H105.335L105.474 6.57343C105.978 6.27505 106.64 6.00465 107.46 5.76222C108.281 5.51979 109.12 5.38925 109.978 5.37061V9.81825C109.512 9.8369 108.99 9.88352 108.412 9.95811C107.852 10.0327 107.311 10.126 106.789 10.2378C106.286 10.3311 105.857 10.4523 105.502 10.6015V18.9094H99.4883Z" fill="#116380"/>
<path d="M90.7977 4.22387V0H97.2594V4.22387H90.7977ZM91.2453 18.9095V10.0142H89.3711L89.8746 5.65047H97.2594V18.9095H91.2453Z" fill="#116380"/>
<path d="M69.8359 18.9095L76.7452 0.895142H83.039L89.9762 18.9095H83.7104L82.3117 15.329H77.4725L76.1018 18.9095H69.8359ZM78.1998 11.1331H81.5844L79.8781 6.76939L78.1998 11.1331Z" fill="#116380"/>
<path d="M0.00212579 0.00012207C0.00649651 2.4958 -0.0219132 4.74017 0.0480184 6.98017C0.0589452 7.31453 0.471978 7.70789 0.795412 7.94609C4.01882 10.3369 7.73393 11.576 11.5955 12.4042C20.1184 14.2356 28.709 14.1962 37.315 13.156C43.6897 12.3846 49.942 11.058 55.8447 8.44654C57.5973 7.67074 59.2232 6.61302 60.9191 5.7061C61.673 5.30181 62.0227 4.7511 61.9221 3.86165C61.8413 3.14923 61.9025 2.41932 61.9025 1.66755C60.1804 2.49799 58.5676 3.39617 56.8674 4.07582C51.0675 6.39886 44.9572 7.32327 38.7748 7.77345C29.9132 8.41813 21.1105 7.99417 12.4456 5.89185C8.00273 4.81229 3.73909 3.29128 0.00212579 0.00012207Z" fill="#F8AB12"/>
<path d="M61.9104 6.52551C60.739 7.2445 59.7512 7.91103 58.711 8.48141C53.488 11.3486 47.8301 12.9374 42.017 14.0213C32.6877 15.763 23.3191 16.2001 13.9155 14.6572C12.5933 14.4409 11.2887 14.1153 9.80044 13.8049C9.80262 15.5729 9.77421 17.2928 9.84851 19.0105C9.85944 19.2465 10.3643 19.5503 10.6942 19.6661C13.71 20.7151 16.846 21.1609 20.0148 21.268C32.2048 21.6788 43.9205 19.6311 54.9128 14.1808C56.9146 13.1887 58.7001 11.7595 60.5926 10.5422C61.6328 9.87349 62.1508 8.97967 61.9213 7.71216C61.8645 7.39747 61.9126 7.06311 61.9104 6.5277V6.52551Z" fill="#F8AB12"/>
<path d="M17.1326 22.7781C17.1348 24.415 17.1064 26.0037 17.1785 27.5859C17.1895 27.8001 17.6943 28.117 18.009 28.1738C21.4028 28.7901 24.8207 28.6895 28.2212 28.2984C37.1549 27.2691 45.6778 24.8214 53.556 20.4332C55.8572 19.1504 57.9115 17.4306 60.0968 15.9358C61.7577 14.7994 62.3346 13.2762 61.773 11.2482C61.0715 11.8338 60.3831 12.4523 59.6532 13.0139C54.8104 16.74 49.2378 18.9079 43.4072 20.4529C35.0133 22.6754 26.486 23.5823 17.8079 22.7803C17.6353 22.765 17.4604 22.7803 17.1304 22.7803L17.1326 22.7781Z" fill="#F8AB12"/>
</svg>
