<svg width="24" height="24" viewBox="0 0 24 24" fill="none" xmlns="http://www.w3.org/2000/svg">
<rect width="24" height="24" rx="12" fill="#368BA3"/>
<path fill-rule="evenodd" clip-rule="evenodd" d="M19.0616 6.44002C19.3425 6.72127 19.5003 7.10252 19.5003 7.50002C19.5003 7.89752 19.3425 8.27877 19.0616 8.56002L10.0616 17.56C9.7804 17.8409 9.39915 17.9987 9.00165 17.9987C8.60414 17.9987 8.2229 17.8409 7.94165 17.56L4.94165 14.56C4.67669 14.2757 4.53244 13.8996 4.5393 13.511C4.54615 13.1224 4.70358 12.7516 4.9784 12.4768C5.25323 12.202 5.624 12.0445 6.0126 12.0377C6.4012 12.0308 6.7773 12.1751 7.06165 12.44L9.00165 14.38L16.9416 6.44002C17.2229 6.15912 17.6041 6.00134 18.0016 6.00134C18.3991 6.00134 18.7804 6.15912 19.0616 6.44002Z" fill="#F5F9FA"/>
</svg>
