<svg width="336" height="34" viewBox="0 0 336 34" fill="none" xmlns="http://www.w3.org/2000/svg">
<path d="M280 17.0002H145H10" stroke="#2E2E2E"/>
<path d="M311 26.5542C311.249 26.5874 311.459 26.6028 311.663 26.6458C311.961 26.7087 312.08 26.87 312.08 27.173C312.08 27.3609 312.08 27.5482 312.08 27.7361C312.079 28.0463 311.969 28.2209 311.664 28.2587C311.267 28.3074 310.863 28.334 310.465 28.3084C310.209 28.292 310.103 28.3739 309.997 28.594C309.289 30.0718 308.57 31.5445 307.845 33.0142C307.525 33.6632 307.023 34.0313 306.282 33.9985C306.091 33.9898 305.899 33.997 305.677 33.997C307.024 29.0409 308.365 24.1089 309.722 19.1154C309.333 19.1154 308.983 19.1292 308.635 19.1134C305.508 18.9726 302.381 18.8359 299.256 18.6762C298.253 18.625 297.254 18.5155 296.255 18.4116C296.052 18.3906 295.959 18.4515 295.858 18.6148C294.856 20.2288 293.843 21.8356 292.841 23.4501C292.603 23.8335 292.28 24.0167 291.839 24.0065C291.539 23.9993 291.238 24.005 290.892 24.005C291.463 21.9799 292.027 19.98 292.599 17.9509C292.294 17.8879 292.01 17.8383 291.729 17.7692C291.356 17.677 290.985 17.5741 290.616 17.4666C290.496 17.4318 290.37 17.3883 290.273 17.3141C290.16 17.2281 289.997 17.1001 290.001 16.9962C290.005 16.8872 290.164 16.7526 290.285 16.6865C290.482 16.579 290.698 16.4976 290.915 16.4413C291.457 16.3006 292.004 16.1792 292.594 16.04C292.032 14.0467 291.468 12.0473 290.886 9.9803C291.364 10.0049 291.816 9.98133 292.246 10.0709C292.459 10.1149 292.683 10.3325 292.811 10.5321C293.843 12.1466 294.855 13.7744 295.866 15.4027C295.964 15.5604 296.056 15.609 296.244 15.5942C298.371 15.4252 300.498 15.2358 302.628 15.1212C304.909 14.9983 307.194 14.9487 309.477 14.8668C309.543 14.8642 309.609 14.8565 309.71 14.8483C308.366 9.90045 307.025 4.96894 305.679 0.0159261C306.282 0.00875965 306.884 -0.0997603 307.361 0.366056C307.545 0.545728 307.721 0.753554 307.835 0.982367C308.574 2.46377 309.298 3.95284 310.015 5.4455C310.11 5.64258 310.206 5.70657 310.428 5.69684C310.835 5.67892 311.247 5.6953 311.652 5.74342C311.973 5.78181 312.078 5.95278 312.079 6.28244C312.079 6.47849 312.072 6.67506 312.081 6.87111C312.092 7.12296 311.954 7.26987 311.744 7.32873C311.513 7.39323 311.27 7.41371 311.007 7.45773C311.171 7.79506 311.332 8.12932 311.494 8.46307C311.695 8.87565 311.9 9.28568 312.094 9.70133C312.156 9.83442 312.221 9.86769 312.378 9.86257C312.835 9.84721 313.297 9.85336 313.752 9.89687C314.061 9.92656 314.173 10.1057 314.174 10.4128C314.174 10.6089 314.174 10.8055 314.174 11.0015C314.173 11.282 314.063 11.4443 313.793 11.5021C313.557 11.5523 313.313 11.5692 313.046 11.604C313.072 11.6721 313.094 11.7417 313.125 11.8057C313.589 12.7604 314.058 13.713 314.517 14.6697C314.585 14.8105 314.665 14.8591 314.821 14.8678C316.893 14.9779 318.966 15.072 321.035 15.223C322.22 15.3096 323.396 15.503 324.533 15.8747C324.834 15.973 325.134 16.0953 325.409 16.2509C326.188 16.6916 326.204 17.3295 325.415 17.739C324.914 17.999 324.365 18.1879 323.817 18.3241C322.12 18.7469 320.383 18.8861 318.644 18.9864C317.366 19.0601 316.086 19.0878 314.807 19.1451C314.719 19.1492 314.591 19.2101 314.555 19.2828C314.05 20.2933 313.558 21.3099 313.063 22.3255C313.056 22.3393 313.059 22.3582 313.055 22.4017C313.264 22.4263 313.475 22.4417 313.684 22.477C314.062 22.5415 314.173 22.6823 314.173 23.0672C314.173 23.2376 314.173 23.4086 314.173 23.5791C314.173 23.9051 314.065 24.0771 313.738 24.1084C313.282 24.1519 312.821 24.134 312.363 24.1514C312.287 24.1544 312.169 24.177 312.143 24.2287C311.758 24.9929 311.386 25.7633 311 26.5531V26.5542Z" fill="#F8AB12"/>
</svg>
