<svg width="32" height="22" viewBox="0 0 32 22" fill="none" xmlns="http://www.w3.org/2000/svg">
<g clip-path="url(#clip0_262_731)">
<path d="M29.3333 0H2.66667C1.19391 0 0 1.23122 0 2.75V19.25C0 20.7688 1.19391 22 2.66667 22H29.3333C30.8061 22 32 20.7688 32 19.25V2.75C32 1.23122 30.8061 0 29.3333 0Z" fill="#E0E3E8"/>
<path d="M15.9071 7.82353L14.5738 14.1898H12.9871L14.3205 7.82353H15.9071ZM22.5738 11.9485L23.4138 9.55604L24.0005 11.9348L22.5738 11.9485ZM24.3605 14.2035H25.8271L24.4938 7.83729H23.1605C23.0149 7.83683 22.8725 7.88104 22.7515 7.96429C22.6304 8.04755 22.536 8.16607 22.4805 8.30478L20.0805 14.2035H21.7605L22.0938 13.2548H24.1338L24.3605 14.2035ZM20.2271 12.1135C20.2271 10.436 17.9871 10.3398 18.0005 9.59728C18.0005 9.36353 18.2138 9.11604 18.6671 9.06104C19.2059 9.00883 19.7485 9.10367 20.2405 9.33603L20.5205 7.96103C20.0466 7.78062 19.5456 7.68754 19.0405 7.68604C17.4538 7.68604 16.3738 8.55228 16.3738 9.78978C16.3738 10.6973 17.1738 11.1648 17.7738 11.5223C18.3738 11.8798 18.6005 12.031 18.6005 12.306C18.6005 12.581 18.1071 12.9248 17.6538 12.9248C17.0808 12.9509 16.511 12.823 16.0005 12.5535L15.7071 13.9285C16.2758 14.1415 16.8755 14.2531 17.4805 14.2585C19.1605 14.2585 20.2538 13.406 20.2538 12.086M13.6271 7.82353L11.0405 14.1898H9.33379L8.00046 9.11604C7.98759 8.99778 7.94684 8.88456 7.88176 8.78629C7.81669 8.68802 7.72926 8.60767 7.62713 8.55228C7.15073 8.31559 6.64971 8.13568 6.13379 8.01603V7.82353H8.80046C8.97902 7.82493 9.15119 7.89229 9.28574 8.01338C9.42028 8.13447 9.50829 8.30126 9.53379 8.48353L10.2138 12.1548L12.0005 7.82353H13.6271Z" fill="#2A2C6B"/>
</g>
<defs>
<clipPath id="clip0_262_731">
<rect width="32" height="22" fill="white"/>
</clipPath>
</defs>
</svg>
