<svg width="32" height="22" viewBox="0 0 32 22" fill="none" xmlns="http://www.w3.org/2000/svg">
<g clip-path="url(#clip0_262_764)">
<path d="M29.3333 0H2.66667C1.19391 0 0 1.23122 0 2.75V19.25C0 20.7688 1.19391 22 2.66667 22H29.3333C30.8061 22 32 20.7688 32 19.25V2.75C32 1.23122 30.8061 0 29.3333 0Z" fill="#E0E3E8"/>
<path d="M13.5601 17.4076L13.7868 15.8951H10.8135L12.5335 4.7163C12.5268 4.70118 12.5234 4.68477 12.5234 4.66818C12.5234 4.65158 12.5268 4.63518 12.5335 4.62005H16.7735C17.2824 4.5509 17.7997 4.59355 18.2914 4.74522C18.7832 4.89689 19.2383 5.15413 19.6268 5.50005C19.8501 5.74199 20.0066 6.04106 20.0801 6.36631C20.1601 6.76543 20.1601 7.17719 20.0801 7.57631V7.92006L20.3201 8.05755C20.5507 8.17672 20.7485 8.35379 20.8952 8.57244C21.042 8.7911 21.1331 9.04433 21.1601 9.30881C21.2375 9.73133 21.2375 10.165 21.1601 10.5876C21.0747 11.1001 20.9033 11.5933 20.6535 12.0451C20.4485 12.3998 20.1764 12.7084 19.8535 12.9526C19.5208 13.1871 19.1507 13.3593 18.7601 13.4613C18.3226 13.563 17.8753 13.6138 17.4268 13.6126H17.1068C16.8758 13.618 16.6538 13.7059 16.4787 13.8614C16.3036 14.0169 16.1863 14.2303 16.1468 14.4651V14.6026L15.7468 17.2701V17.3663H13.5601V17.4076Z" fill="#253E80"/>
<path d="M20.5329 7.61768V7.86518C20.3895 9.03689 19.8035 10.1029 18.9022 10.8315C18.0009 11.5601 16.8572 11.8925 15.7196 11.7564H14.5063C14.365 11.7551 14.2283 11.8078 14.1224 11.9043C14.0166 12.0007 13.9491 12.1342 13.9329 12.2789L13.3063 16.4039L13.1329 17.5589C13.1248 17.6047 13.1266 17.6518 13.1384 17.6968C13.1502 17.7418 13.1715 17.7835 13.201 17.8188C13.2303 17.8543 13.267 17.8827 13.3082 17.902C13.3495 17.9212 13.3943 17.9308 13.4396 17.9302H15.5863C15.7114 17.9317 15.8328 17.8867 15.9283 17.8033C16.0239 17.72 16.087 17.6039 16.1063 17.4764V17.3664L16.5249 14.7196V14.5683C16.5436 14.443 16.6047 14.3286 16.6975 14.2455C16.7903 14.1624 16.9087 14.116 17.0316 14.1145H17.3383C18.3328 14.2352 19.3333 13.9461 20.1223 13.3101C20.9113 12.6741 21.425 11.7427 21.5516 10.7183C21.678 10.284 21.704 9.8253 21.6276 9.37881C21.5512 8.93231 21.3745 8.51047 21.1116 8.14705C20.9506 7.94064 20.7567 7.76395 20.5383 7.62455L20.5329 7.61768Z" fill="#1D9BD7"/>
<path d="M19.9996 7.38376H19.4662C19.1135 7.32613 18.7567 7.29854 18.3996 7.30127H15.1063C15.0312 7.2889 14.9547 7.2889 14.8796 7.30127C14.8047 7.33889 14.74 7.39495 14.6912 7.4645C14.6424 7.53405 14.6109 7.61493 14.5996 7.70001L13.9062 12.21V12.3475C13.9224 12.2028 13.9899 12.0693 14.0957 11.9728C14.2016 11.8764 14.3383 11.8237 14.4796 11.825H15.6929C16.8305 11.9611 17.9742 11.6287 18.8755 10.9001C19.7768 10.1715 20.3628 9.10547 20.5062 7.93376V7.68626L20.0529 7.49376L19.9996 7.38376Z" fill="#242F65"/>
<path d="M14.6663 7.6313C14.6776 7.54622 14.7091 7.46533 14.7579 7.39578C14.8068 7.32623 14.8715 7.27017 14.9463 7.23255C15.0214 7.22018 15.0979 7.22018 15.173 7.23255H18.4263C18.7835 7.22982 19.1402 7.2574 19.493 7.31504H20.1463L20.5997 7.50754C20.6811 7.09442 20.6694 6.66752 20.5653 6.25982C20.4613 5.85213 20.2677 5.47456 19.9997 5.15629C19.5668 4.7661 19.06 4.47295 18.5114 4.29543C17.9628 4.1179 17.3845 4.05988 16.813 4.12504H12.6663C12.5237 4.12367 12.3854 4.17596 12.2774 4.27214C12.1694 4.36831 12.0991 4.50178 12.0797 4.64754L10.3597 15.9225C10.3519 15.9746 10.3549 16.0278 10.3687 16.0785C10.3824 16.1292 10.4065 16.1763 10.4393 16.2167C10.4721 16.2571 10.5129 16.2897 10.559 16.3125C10.605 16.3353 10.6553 16.3476 10.7063 16.3488H13.333L13.973 12.1413L14.6663 7.6313Z" fill="#253E80"/>
</g>
<defs>
<clipPath id="clip0_262_764">
<rect width="32" height="22" fill="white"/>
</clipPath>
</defs>
</svg>
