<svg width="220" height="35" viewBox="0 0 220 35" fill="none" xmlns="http://www.w3.org/2000/svg">
<path d="M207.727 23.472C206.69 23.472 205.733 23.2895 204.857 22.9245C203.981 22.5596 203.278 21.9893 202.748 21.2137C202.218 20.4154 201.953 19.4003 201.953 18.1685C201.953 16.4121 202.529 15.0663 203.682 14.1311C204.834 13.173 206.597 12.694 208.971 12.694H212.947V12.4545C212.947 11.9983 212.682 11.6561 212.152 11.428C211.645 11.1771 210.815 11.0517 209.663 11.0517C208.787 11.0517 207.842 11.1315 206.828 11.2912C205.837 11.428 204.892 11.6333 203.993 11.9071V7.76695C204.869 7.40198 205.964 7.11685 207.277 6.91155C208.591 6.68345 209.882 6.5694 211.15 6.5694C213.823 6.5694 215.967 7.11685 217.58 8.21175C219.194 9.28385 220 10.9832 220 13.3099V23.1298H213.501L213.189 21.8981C212.613 22.3771 211.876 22.7649 210.977 23.0614C210.101 23.3351 209.018 23.472 207.727 23.472ZM210.424 19.3319C211 19.3319 211.484 19.2406 211.876 19.0581C212.29 18.8529 212.648 18.6019 212.947 18.3054V16.5604H210.596C209.375 16.5604 208.764 17.028 208.764 17.9632C208.764 18.8757 209.317 19.3319 210.424 19.3319Z" fill="#F5F9FA"/>
<path d="M196.47 23.472C194.119 23.472 192.425 22.9017 191.388 21.7612C190.35 20.5979 189.832 19.0353 189.832 17.0736V12.2834H187.792V6.91155H189.832V3.66106L197.265 2.05292V6.91155H200.826L200.619 12.2834H197.265V16.6288C197.265 17.7237 197.887 18.2712 199.132 18.2712C199.823 18.2712 200.515 18.1571 201.206 17.929V22.6508C200.538 22.9245 199.823 23.1298 199.063 23.2667C198.302 23.4035 197.438 23.472 196.47 23.472Z" fill="#F5F9FA"/>
<path d="M179.134 23.472C177.659 23.472 176.264 23.3579 174.951 23.1298C173.637 22.9245 172.623 22.6736 171.908 22.3771V17.45C172.461 17.7237 173.084 17.9632 173.775 18.1685C174.49 18.351 175.204 18.4879 175.919 18.5791C176.633 18.6704 177.244 18.716 177.751 18.716C178.419 18.716 178.95 18.7046 179.341 18.6818C179.733 18.6362 179.929 18.4765 179.929 18.2028C179.929 17.9746 179.745 17.7922 179.376 17.6553C179.03 17.5184 178.569 17.3816 177.993 17.2447C177.417 17.085 176.783 16.8911 176.092 16.663C174.593 16.1156 173.487 15.4997 172.773 14.8154C172.081 14.1083 171.735 13.0932 171.735 11.7702C171.735 10.0822 172.415 8.79342 173.775 7.90381C175.158 7.0142 177.29 6.5694 180.171 6.5694C180.886 6.5694 181.646 6.61502 182.453 6.70626C183.26 6.77469 184.02 6.86593 184.735 6.97999C185.472 7.09404 186.06 7.2309 186.498 7.39057V12.2492C185.784 11.9299 185.011 11.7018 184.182 11.5649C183.352 11.4052 182.603 11.3254 181.934 11.3254C181.335 11.3254 180.747 11.3482 180.171 11.3938C179.595 11.4394 179.307 11.5991 179.307 11.8728C179.307 12.1694 179.641 12.3861 180.309 12.5229C181.001 12.6598 181.842 12.8879 182.833 13.2073C184.055 13.5494 185 13.9372 185.668 14.3706C186.36 14.804 186.844 15.3286 187.12 15.9445C187.397 16.5604 187.535 17.3131 187.535 18.2028C187.535 19.8451 186.821 21.1339 185.392 22.0691C183.986 23.0044 181.9 23.472 179.134 23.472Z" fill="#F5F9FA"/>
<path d="M161.684 5.16658V0H169.67V5.16658H161.684ZM162.237 23.1298V12.2492H159.921L160.543 6.91158H169.67V23.1298H162.237Z" fill="#F5F9FA"/>
<path d="M143.609 23.1299L135.069 1.09497H142.814L147.481 14.5075L152.183 1.09497H159.962L151.388 23.1299H143.609Z" fill="#F5F9FA"/>
<path d="M122.965 23.1298V6.91155H130.191L130.363 8.04068C130.986 7.67571 131.804 7.34495 132.818 7.04842C133.832 6.75188 134.869 6.59221 135.93 6.5694V12.0097C135.354 12.0325 134.708 12.0895 133.994 12.1808C133.302 12.272 132.634 12.3861 131.988 12.5229C131.366 12.637 130.836 12.7853 130.398 12.9677V23.1298H122.965Z" fill="#F5F9FA"/>
<path d="M112.222 5.16658V0H120.209V5.16658H112.222ZM112.775 23.1298V12.2492H110.459L111.081 6.91158H120.209V23.1298H112.775Z" fill="#F5F9FA"/>
<path d="M86.3154 23.1299L94.855 1.09497H102.634L111.208 23.1299H103.464L101.735 18.7503H95.7539L94.0598 23.1299H86.3154ZM96.6528 13.6179H100.836L98.7272 8.28028L96.6528 13.6179Z" fill="#F5F9FA"/>
<path d="M0.00262739 0C0.00802942 3.05269 -0.0270838 5.79797 0.0593488 8.5379C0.0728539 8.94688 0.583347 9.42804 0.983097 9.71941C4.9671 12.6438 9.55883 14.1594 14.3315 15.1725C24.8655 17.4126 35.4832 17.3645 46.1198 16.0921C53.9987 15.1485 61.7263 13.5259 69.0218 10.3316C71.188 9.3826 73.1975 8.08882 75.2935 6.97948C76.2254 6.48495 76.6575 5.81133 76.5333 4.72338C76.4334 3.85194 76.509 2.95913 76.509 2.03958C74.3806 3.05536 72.3872 4.15401 70.2858 4.98534C63.1173 7.82685 55.5653 8.95758 47.9241 9.50824C36.9715 10.2968 26.0918 9.77822 15.3822 7.20669C9.89106 5.88618 4.62137 4.0257 0.00262739 0Z" fill="#F8AB12"/>
<path d="M76.5196 7.98181C75.0718 8.86126 73.851 9.67656 72.5653 10.3742C66.1098 13.8814 59.1169 15.8247 51.9322 17.1506C40.4015 19.281 28.8223 19.8156 17.1998 17.9284C15.5657 17.6638 13.9532 17.2655 12.1138 16.8859C12.1165 19.0485 12.0814 21.1522 12.1732 23.2533C12.1867 23.542 12.8106 23.9135 13.2185 24.0552C16.9459 25.3383 20.8219 25.8836 24.7383 26.0146C39.8046 26.5171 54.2848 24.0124 67.8709 17.3457C70.345 16.1321 72.5518 14.3839 74.8909 12.895C76.1766 12.077 76.8167 10.9837 76.5331 9.43331C76.4629 9.04838 76.5223 8.6394 76.5196 7.98448V7.98181Z" fill="#F8AB12"/>
<path d="M21.1755 27.8617C21.1782 29.8639 21.1431 31.8072 21.2322 33.7426C21.2457 34.0045 21.8697 34.3921 22.2586 34.4616C26.4533 35.2154 30.6777 35.0925 34.8805 34.614C45.9222 33.355 56.4562 30.3611 66.1934 24.9935C69.0376 23.4244 71.5765 21.3206 74.2775 19.4922C76.3303 18.1022 77.0434 16.2391 76.3492 13.7584C75.4822 14.4748 74.6314 15.2313 73.7292 15.9183C67.7438 20.4759 60.8562 23.1277 53.6499 25.0175C43.2752 27.7361 32.7359 28.8454 22.0101 27.8644C21.7967 27.8457 21.5807 27.8644 21.1728 27.8644L21.1755 27.8617Z" fill="#F8AB12"/>
</svg>
