<svg width="135" height="40" viewBox="0 0 135 40" fill="none" xmlns="http://www.w3.org/2000/svg">
<g clip-path="url(#clip0_262_689)">
<path d="M130 0H5C2.23858 0 0 2.23858 0 5V35C0 37.7614 2.23858 40 5 40H130C132.761 40 135 37.7614 135 35V5C135 2.23858 132.761 0 130 0Z" fill="black"/>
<path d="M130 0.8C131.114 0.8 132.182 1.2425 132.97 2.03015C133.758 2.8178 134.2 3.88609 134.2 5V35C134.2 36.1139 133.758 37.1822 132.97 37.9698C132.182 38.7575 131.114 39.2 130 39.2H5C3.88609 39.2 2.8178 38.7575 2.03015 37.9698C1.2425 37.1822 0.799999 36.1139 0.799999 35V5C0.799999 3.88609 1.2425 2.8178 2.03015 2.03015C2.8178 1.2425 3.88609 0.8 5 0.8H130ZM130 0H5C3.67513 0.00395682 2.40566 0.532011 1.46884 1.46884C0.532011 2.40566 0.00395682 3.67513 0 5V35C0.00395682 36.3249 0.532011 37.5943 1.46884 38.5312C2.40566 39.468 3.67513 39.996 5 40H130C131.325 39.996 132.594 39.468 133.531 38.5312C134.468 37.5943 134.996 36.3249 135 35V5C134.996 3.67513 134.468 2.40566 133.531 1.46884C132.594 0.532011 131.325 0.00395682 130 0Z" fill="#A6A6A6"/>
<path d="M45.9452 8.43012C45.8798 8.22974 45.7935 8.0502 45.6863 7.89149C45.5812 7.73079 45.4552 7.5939 45.3084 7.48082C45.1636 7.36774 44.9989 7.28144 44.8144 7.22192C44.6299 7.1624 44.4275 7.13265 44.2073 7.13265C43.8463 7.13265 43.5179 7.22589 43.2223 7.41238C42.9267 7.59886 42.6916 7.87363 42.517 8.23669C42.3425 8.59974 42.2552 9.04513 42.2552 9.57284C42.2552 10.1006 42.3434 10.5459 42.52 10.909C42.6966 11.2721 42.9356 11.5468 43.2372 11.7333C43.5387 11.9198 43.878 12.013 44.2549 12.013C44.6041 12.013 44.9116 11.9386 45.1775 11.7899C45.4453 11.6391 45.6536 11.4268 45.8024 11.153C45.9532 10.8773 46.0285 10.5529 46.0285 10.1799L46.2547 10.2275H44.4216V9.57284H46.7427V10.2275C46.7427 10.7295 46.6356 11.1659 46.4214 11.5369C46.2091 11.9079 45.9155 12.1956 45.5405 12.3999C45.1675 12.6023 44.739 12.7034 44.2549 12.7034C43.7153 12.7034 43.2412 12.5765 42.8325 12.3225C42.4258 12.0686 42.1084 11.7075 41.8802 11.2393C41.654 10.7711 41.541 10.2156 41.541 9.57284C41.541 9.09076 41.6054 8.65727 41.7344 8.2724C41.8653 7.88554 42.0498 7.55621 42.2879 7.28441C42.526 7.01262 42.8077 6.80431 43.133 6.65948C43.4584 6.51466 43.8165 6.44225 44.2073 6.44225C44.5287 6.44225 44.8283 6.49085 45.106 6.58806C45.3858 6.68329 45.6347 6.81919 45.853 6.99576C46.0732 7.17034 46.2567 7.37964 46.4035 7.62366C46.5503 7.8657 46.6515 8.13452 46.707 8.43012H45.9452ZM48.0067 12.6201V6.52557H51.6849V7.18026H48.7448V9.23955H51.4944V9.89424H48.7448V11.9654H51.7325V12.6201H48.0067ZM52.6818 7.18026V6.52557H57.2527V7.18026H55.3363V12.6201H54.5983V7.18026H52.6818ZM61.4866 6.52557V12.6201H60.7486V6.52557H61.4866ZM62.6331 7.18026V6.52557H67.204V7.18026H65.2875V12.6201H64.5495V7.18026H62.6331ZM75.8421 9.57284C75.8421 10.2156 75.7261 10.7711 75.4939 11.2393C75.2618 11.7075 74.9434 12.0686 74.5387 12.3225C74.134 12.5765 73.6717 12.7034 73.1519 12.7034C72.6322 12.7034 72.1699 12.5765 71.7652 12.3225C71.3605 12.0686 71.0421 11.7075 70.81 11.2393C70.5778 10.7711 70.4618 10.2156 70.4618 9.57284C70.4618 8.93006 70.5778 8.37457 70.81 7.90637C71.0421 7.43817 71.3605 7.0771 71.7652 6.82316C72.1699 6.56922 72.6322 6.44225 73.1519 6.44225C73.6717 6.44225 74.134 6.56922 74.5387 6.82316C74.9434 7.0771 75.2618 7.43817 75.4939 7.90637C75.7261 8.37457 75.8421 8.93006 75.8421 9.57284ZM75.1279 9.57284C75.1279 9.04513 75.0396 8.59974 74.8631 8.23669C74.6885 7.87363 74.4514 7.59886 74.1518 7.41238C73.8543 7.22589 73.521 7.13265 73.1519 7.13265C72.7829 7.13265 72.4487 7.22589 72.1491 7.41238C71.8515 7.59886 71.6144 7.87363 71.4379 8.23669C71.2633 8.59974 71.176 9.04513 71.176 9.57284C71.176 10.1006 71.2633 10.5459 71.4379 10.909C71.6144 11.2721 71.8515 11.5468 72.1491 11.7333C72.4487 11.9198 72.7829 12.013 73.1519 12.013C73.521 12.013 73.8543 11.9198 74.1518 11.7333C74.4514 11.5468 74.6885 11.2721 74.8631 10.909C75.0396 10.5459 75.1279 10.1006 75.1279 9.57284ZM81.9158 6.52557V12.6201H81.2016L77.8806 7.83495H77.8211V12.6201H77.0831V6.52557H77.7973L81.1302 11.3226H81.1897V6.52557H81.9158Z" fill="white"/>
<path d="M45.9452 8.43012L45.8502 8.46117L45.8727 8.53012H45.9452V8.43012ZM45.6863 7.89149L45.6026 7.94625L45.6034 7.94744L45.6863 7.89149ZM45.3084 7.48082L45.2468 7.55964L45.2474 7.56004L45.3084 7.48082ZM44.8144 7.22192L44.8451 7.12675H44.8451L44.8144 7.22192ZM42.517 8.23669L42.6072 8.28002L42.517 8.23669ZM42.52 10.909L42.4301 10.9527L42.52 10.909ZM43.2372 11.7333L43.1846 11.8184L43.2372 11.7333ZM45.1775 11.7899L45.2263 11.8771L45.2265 11.877L45.1775 11.7899ZM45.8024 11.153L45.7146 11.105L45.7145 11.1053L45.8024 11.153ZM46.0285 10.1799L46.0491 10.0821L45.9285 10.0567V10.1799H46.0285ZM46.2547 10.2275V10.3275H47.2151L46.2753 10.1297L46.2547 10.2275ZM44.4216 10.2275H44.3216V10.3275H44.4216V10.2275ZM44.4216 9.57284V9.47284H44.3216V9.57284H44.4216ZM46.7427 9.57284H46.8427V9.47284H46.7427V9.57284ZM46.4214 11.5369L46.3348 11.4869L46.3346 11.4872L46.4214 11.5369ZM45.5405 12.3999L45.5882 12.4878L45.5884 12.4877L45.5405 12.3999ZM42.8325 12.3225L42.7795 12.4074L42.7797 12.4075L42.8325 12.3225ZM41.8802 11.2393L41.7902 11.2828L41.7903 11.2831L41.8802 11.2393ZM41.7344 8.2724L41.6397 8.24034L41.6396 8.24063L41.7344 8.2724ZM42.2879 7.28441L42.3631 7.3503L42.2879 7.28441ZM43.133 6.65948L43.0924 6.56813L43.133 6.65948ZM45.106 6.58806L45.073 6.68245L45.0738 6.68273L45.106 6.58806ZM45.853 6.99576L45.7901 7.0735L45.7908 7.07412L45.853 6.99576ZM46.4035 7.62366L46.3178 7.67521L46.318 7.67552L46.4035 7.62366ZM46.707 8.43012V8.53012H46.8276L46.8053 8.41165L46.707 8.43012ZM46.0403 8.39906C45.9722 8.19074 45.882 8.00268 45.7692 7.83554L45.6034 7.94744C45.7049 8.09772 45.7873 8.26874 45.8502 8.46117L46.0403 8.39906ZM45.77 7.83674C45.6589 7.66702 45.5254 7.52176 45.3694 7.4016L45.2474 7.56004C45.385 7.66605 45.5034 7.79457 45.6026 7.94624L45.77 7.83674ZM45.3699 7.402C45.2154 7.28131 45.0401 7.18967 44.8451 7.12675L44.7837 7.31709C44.9577 7.37321 45.1118 7.45416 45.2468 7.55964L45.3699 7.402ZM44.8451 7.12675C44.6494 7.06363 44.4366 7.03265 44.2073 7.03265V7.23265C44.4185 7.23265 44.6104 7.26118 44.7837 7.31709L44.8451 7.12675ZM44.2073 7.03265C43.828 7.03265 43.4811 7.13089 43.169 7.3278L43.2757 7.49695C43.5548 7.32089 43.8645 7.23265 44.2073 7.23265V7.03265ZM43.169 7.3278C42.8552 7.52576 42.6084 7.81601 42.4269 8.19335L42.6072 8.28002C42.7749 7.93126 42.9983 7.67196 43.2757 7.49695L43.169 7.3278ZM42.4269 8.19335C42.2441 8.57344 42.1552 9.03458 42.1552 9.57284H42.3552C42.3552 9.05567 42.4408 8.62604 42.6072 8.28002L42.4269 8.19335ZM42.1552 9.57284C42.1552 10.1112 42.2452 10.5725 42.4301 10.9527L42.6099 10.8653C42.4417 10.5194 42.3552 10.0899 42.3552 9.57284H42.1552ZM42.4301 10.9527C42.6138 11.3304 42.8648 11.6206 43.1846 11.8184L43.2898 11.6483C43.0065 11.4731 42.7794 11.2137 42.6099 10.8653L42.4301 10.9527ZM43.1846 11.8184C43.503 12.0152 43.8606 12.113 44.2549 12.113V11.913C43.8954 11.913 43.5745 11.8244 43.2898 11.6483L43.1846 11.8184ZM44.2549 12.113C44.6187 12.113 44.9435 12.0354 45.2263 11.8771L45.1286 11.7026C44.8798 11.8419 44.5895 11.913 44.2549 11.913V12.113ZM45.2265 11.877C45.511 11.7169 45.7326 11.4908 45.8902 11.2008L45.7145 11.1053C45.5746 11.3628 45.3796 11.5613 45.1284 11.7027L45.2265 11.877ZM45.8901 11.201C46.0503 10.908 46.1285 10.5665 46.1285 10.1799H45.9285C45.9285 10.5393 45.856 10.8465 45.7146 11.105L45.8901 11.201ZM46.0079 10.2778L46.2341 10.3254L46.2753 10.1297L46.0491 10.0821L46.0079 10.2778ZM46.2547 10.1275H44.4216V10.3275H46.2547V10.1275ZM44.5216 10.2275V9.57284H44.3216V10.2275H44.5216ZM44.4216 9.67284H46.7427V9.47284H44.4216V9.67284ZM46.6427 9.57284V10.2275H46.8427V9.57284H46.6427ZM46.6427 10.2275C46.6427 10.7149 46.5388 11.1335 46.3348 11.4869L46.508 11.5869C46.7324 11.1983 46.8427 10.744 46.8427 10.2275H46.6427ZM46.3346 11.4872C46.1315 11.8422 45.8513 12.1166 45.4927 12.3121L45.5884 12.4877C45.9796 12.2745 46.2867 11.9736 46.5082 11.5866L46.3346 11.4872ZM45.4928 12.312C45.1364 12.5054 44.7247 12.6034 44.2549 12.6034V12.8034C44.7533 12.8034 45.1986 12.6992 45.5882 12.4878L45.4928 12.312ZM44.2549 12.6034C43.7316 12.6034 43.2762 12.4805 42.8853 12.2376L42.7797 12.4075C43.2061 12.6724 43.699 12.8034 44.2549 12.8034V12.6034ZM42.8854 12.2377C42.496 11.9946 42.1908 11.6484 41.9701 11.1955L41.7903 11.2831C42.0259 11.7667 42.3555 12.1426 42.7795 12.4074L42.8854 12.2377ZM41.9703 11.1958C41.752 10.744 41.641 10.204 41.641 9.57284H41.441C41.441 10.2272 41.5561 10.7982 41.7902 11.2828L41.9703 11.1958ZM41.641 9.57284C41.641 9.09959 41.7043 8.67709 41.8292 8.30417L41.6396 8.24063C41.5066 8.63746 41.441 9.08193 41.441 9.57284H41.641ZM41.8291 8.30446C41.9564 7.92843 42.1348 7.611 42.3631 7.3503L42.2127 7.21852C41.9649 7.50141 41.7743 7.84264 41.6397 8.24034L41.8291 8.30446ZM42.3631 7.3503C42.5918 7.08924 42.8618 6.88969 43.1737 6.75084L43.0924 6.56813C42.7536 6.71893 42.4601 6.936 42.2127 7.21852L42.3631 7.3503ZM43.1737 6.75084C43.4851 6.61225 43.8291 6.54225 44.2073 6.54225V6.34225C43.8039 6.34225 43.4317 6.41707 43.0924 6.56813L43.1737 6.75084ZM44.2073 6.54225C44.5185 6.54225 44.8068 6.58928 45.073 6.68245L45.1391 6.49368C44.8498 6.39242 44.5389 6.34225 44.2073 6.34225V6.54225ZM45.0738 6.68273C45.343 6.77437 45.5815 6.90472 45.7901 7.0735L45.9159 6.91802C45.688 6.73366 45.4285 6.59222 45.1383 6.4934L45.0738 6.68273ZM45.7908 7.07412C46.0015 7.24115 46.1771 7.44133 46.3178 7.67521L46.4892 7.57211C46.3363 7.31795 46.1448 7.09953 45.9151 6.91739L45.7908 7.07412ZM46.318 7.67552C46.4582 7.90666 46.5553 8.16405 46.6088 8.44859L46.8053 8.41165C46.7477 8.10498 46.6424 7.82474 46.489 7.5718L46.318 7.67552ZM46.707 8.33012H45.9452V8.53012H46.707V8.33012ZM48.0067 12.6201H47.9067V12.7201H48.0067V12.6201ZM48.0067 6.52557V6.42557H47.9067V6.52557H48.0067ZM51.6849 6.52557H51.7849V6.42557H51.6849V6.52557ZM51.6849 7.18026V7.28026H51.7849V7.18026H51.6849ZM48.7448 7.18026V7.08026H48.6448V7.18026H48.7448ZM48.7448 9.23955H48.6448V9.33955H48.7448V9.23955ZM51.4944 9.23955H51.5944V9.13955H51.4944V9.23955ZM51.4944 9.89424V9.99424H51.5944V9.89424H51.4944ZM48.7448 9.89424V9.79424H48.6448V9.89424H48.7448ZM48.7448 11.9654H48.6448V12.0654H48.7448V11.9654ZM51.7325 11.9654H51.8325V11.8654H51.7325V11.9654ZM51.7325 12.6201V12.7201H51.8325V12.6201H51.7325ZM48.1067 12.6201V6.52557H47.9067V12.6201H48.1067ZM48.0067 6.62557H51.6849V6.42557H48.0067V6.62557ZM51.5849 6.52557V7.18026H51.7849V6.52557H51.5849ZM51.6849 7.08026H48.7448V7.28026H51.6849V7.08026ZM48.6448 7.18026V9.23955H48.8448V7.18026H48.6448ZM48.7448 9.33955H51.4944V9.13955H48.7448V9.33955ZM51.3944 9.23955V9.89424H51.5944V9.23955H51.3944ZM51.4944 9.79424H48.7448V9.99424H51.4944V9.79424ZM48.6448 9.89424V11.9654H48.8448V9.89424H48.6448ZM48.7448 12.0654H51.7325V11.8654H48.7448V12.0654ZM51.6325 11.9654V12.6201H51.8325V11.9654H51.6325ZM51.7325 12.5201H48.0067V12.7201H51.7325V12.5201ZM52.6818 7.18026H52.5818V7.28026H52.6818V7.18026ZM52.6818 6.52557V6.42557H52.5818V6.52557H52.6818ZM57.2527 6.52557H57.3527V6.42557H57.2527V6.52557ZM57.2527 7.18026V7.28026H57.3527V7.18026H57.2527ZM55.3363 7.18026V7.08026H55.2363V7.18026H55.3363ZM55.3363 12.6201V12.7201H55.4363V12.6201H55.3363ZM54.5983 12.6201H54.4983V12.7201H54.5983V12.6201ZM54.5983 7.18026H54.6983V7.08026H54.5983V7.18026ZM52.7818 7.18026V6.52557H52.5818V7.18026H52.7818ZM52.6818 6.62557H57.2527V6.42557H52.6818V6.62557ZM57.1527 6.52557V7.18026H57.3527V6.52557H57.1527ZM57.2527 7.08026H55.3363V7.28026H57.2527V7.08026ZM55.2363 7.18026V12.6201H55.4363V7.18026H55.2363ZM55.3363 12.5201H54.5983V12.7201H55.3363V12.5201ZM54.6983 12.6201V7.18026H54.4983V12.6201H54.6983ZM54.5983 7.08026H52.6818V7.28026H54.5983V7.08026ZM61.4866 6.52557H61.5866V6.42557H61.4866V6.52557ZM61.4866 12.6201V12.7201H61.5866V12.6201H61.4866ZM60.7486 12.6201H60.6486V12.7201H60.7486V12.6201ZM60.7486 6.52557V6.42557H60.6486V6.52557H60.7486ZM61.3866 6.52557V12.6201H61.5866V6.52557H61.3866ZM61.4866 12.5201H60.7486V12.7201H61.4866V12.5201ZM60.8486 12.6201V6.52557H60.6486V12.6201H60.8486ZM60.7486 6.62557H61.4866V6.42557H60.7486V6.62557ZM62.6331 7.18026H62.5331V7.28026H62.6331V7.18026ZM62.6331 6.52557V6.42557H62.5331V6.52557H62.6331ZM67.204 6.52557H67.304V6.42557H67.204V6.52557ZM67.204 7.18026V7.28026H67.304V7.18026H67.204ZM65.2875 7.18026V7.08026H65.1875V7.18026H65.2875ZM65.2875 12.6201V12.7201H65.3875V12.6201H65.2875ZM64.5495 12.6201H64.4495V12.7201H64.5495V12.6201ZM64.5495 7.18026H64.6495V7.08026H64.5495V7.18026ZM62.7331 7.18026V6.52557H62.5331V7.18026H62.7331ZM62.6331 6.62557H67.204V6.42557H62.6331V6.62557ZM67.104 6.52557V7.18026H67.304V6.52557H67.104ZM67.204 7.08026H65.2875V7.28026H67.204V7.08026ZM65.1875 7.18026V12.6201H65.3875V7.18026H65.1875ZM65.2875 12.5201H64.5495V12.7201H65.2875V12.5201ZM64.6495 12.6201V7.18026H64.4495V12.6201H64.6495ZM64.5495 7.08026H62.6331V7.28026H64.5495V7.08026ZM75.4939 11.2393L75.4044 11.1949L75.4939 11.2393ZM74.5387 12.3225L74.5918 12.4072L74.5387 12.3225ZM71.7652 12.3225L71.7121 12.4072L71.7652 12.3225ZM70.81 11.2393L70.8995 11.1949L70.81 11.2393ZM70.81 7.90637L70.7204 7.86195L70.81 7.90637ZM74.5387 6.82316L74.5918 6.73845L74.5387 6.82316ZM75.4939 7.90637L75.4044 7.95078L75.4939 7.90637ZM74.8631 8.23669L74.7729 8.28002L74.7731 8.28042L74.8631 8.23669ZM74.1518 7.41238L74.0987 7.49711L74.099 7.49727L74.1518 7.41238ZM72.1491 7.41238L72.0962 7.32748L72.096 7.32764L72.1491 7.41238ZM71.4379 8.23669L71.3479 8.19295L71.3477 8.19335L71.4379 8.23669ZM71.4379 10.909L71.3477 10.9523L71.3479 10.9527L71.4379 10.909ZM72.1491 11.7333L72.096 11.818L72.0962 11.8182L72.1491 11.7333ZM74.1518 11.7333L74.099 11.6484L74.0987 11.6486L74.1518 11.7333ZM74.8631 10.909L74.7731 10.8653L74.7729 10.8657L74.8631 10.909ZM75.7421 9.57284C75.7421 10.2037 75.6282 10.7433 75.4044 11.1949L75.5835 11.2837C75.8239 10.7989 75.9421 10.2276 75.9421 9.57284H75.7421ZM75.4044 11.1949C75.1796 11.6482 74.8732 11.9946 74.4855 12.2378L74.5918 12.4072C75.0136 12.1426 75.344 11.7669 75.5835 11.2837L75.4044 11.1949ZM74.4855 12.2378C74.0982 12.4809 73.6546 12.6034 73.152 12.6034V12.8034C73.6888 12.8034 74.1698 12.672 74.5918 12.4072L74.4855 12.2378ZM73.152 12.6034C72.6493 12.6034 72.2057 12.4809 71.8184 12.2378L71.7121 12.4072C72.1341 12.672 72.6151 12.8034 73.152 12.8034V12.6034ZM71.8184 12.2378C71.4307 11.9946 71.1243 11.6482 70.8995 11.1949L70.7204 11.2837C70.9599 11.7669 71.2903 12.1426 71.7121 12.4072L71.8184 12.2378ZM70.8995 11.1949C70.6757 10.7433 70.5618 10.2037 70.5618 9.57284H70.3618C70.3618 10.2276 70.48 10.7989 70.7204 11.2837L70.8995 11.1949ZM70.5618 9.57284C70.5618 8.94199 70.6757 8.40237 70.8995 7.95078L70.7204 7.86195C70.48 8.34677 70.3618 8.91813 70.3618 9.57284H70.5618ZM70.8995 7.95078C71.1243 7.49752 71.4307 7.15108 71.8184 6.90786L71.7121 6.73845C71.2903 7.00311 70.9599 7.37882 70.7204 7.86195L70.8995 7.95078ZM71.8184 6.90786C72.2057 6.66479 72.6493 6.54225 73.152 6.54225V6.34225C72.6151 6.34225 72.1341 6.47364 71.7121 6.73845L71.8184 6.90786ZM73.152 6.54225C73.6546 6.54225 74.0982 6.66479 74.4855 6.90786L74.5918 6.73845C74.1698 6.47364 73.6888 6.34225 73.152 6.34225V6.54225ZM74.4855 6.90786C74.8732 7.15108 75.1796 7.49752 75.4044 7.95078L75.5835 7.86195C75.344 7.37882 75.0136 7.00311 74.5918 6.73845L74.4855 6.90786ZM75.4044 7.95078C75.6282 8.40237 75.7421 8.94199 75.7421 9.57284H75.9421C75.9421 8.91813 75.8239 8.34677 75.5835 7.86195L75.4044 7.95078ZM75.2279 9.57284C75.2279 9.03444 75.1379 8.57315 74.953 8.19295L74.7731 8.28042C74.9414 8.62633 75.0279 9.05581 75.0279 9.57284H75.2279ZM74.9532 8.19335C74.7716 7.81567 74.5226 7.52536 74.2047 7.32748L74.099 7.49727C74.3802 7.67236 74.6054 7.9316 74.7729 8.28002L74.9532 8.19335ZM74.2049 7.32764C73.8906 7.13066 73.5387 7.03265 73.152 7.03265V7.23265C73.5032 7.23265 73.8179 7.32112 74.0987 7.49711L74.2049 7.32764ZM73.152 7.03265C72.7652 7.03265 72.4124 7.13066 72.0962 7.32748L72.2019 7.49727C72.4849 7.32112 72.8007 7.23265 73.152 7.23265V7.03265ZM72.096 7.32764C71.7803 7.52549 71.5314 7.81562 71.3479 8.19295L71.5278 8.28042C71.6974 7.93164 71.9227 7.67223 72.2022 7.49711L72.096 7.32764ZM71.3477 8.19335C71.165 8.57344 71.076 9.03458 71.076 9.57284H71.276C71.276 9.05567 71.3616 8.62604 71.528 8.28002L71.3477 8.19335ZM71.076 9.57284C71.076 10.1111 71.165 10.5722 71.3477 10.9523L71.528 10.8657C71.3616 10.5196 71.276 10.09 71.276 9.57284H71.076ZM71.3479 10.9527C71.5314 11.3301 71.7803 11.6202 72.096 11.818L72.2022 11.6486C71.9227 11.4735 71.6974 11.214 71.5278 10.8653L71.3479 10.9527ZM72.0962 11.8182C72.4124 12.015 72.7652 12.113 73.152 12.113V11.913C72.8007 11.913 72.4849 11.8246 72.2019 11.6484L72.0962 11.8182ZM73.152 12.113C73.5387 12.113 73.8906 12.015 74.2049 11.818L74.0987 11.6486C73.8179 11.8246 73.5032 11.913 73.152 11.913V12.113ZM74.2047 11.8182C74.5226 11.6203 74.7716 11.33 74.9532 10.9523L74.7729 10.8657C74.6054 11.2141 74.3802 11.4733 74.099 11.6484L74.2047 11.8182ZM74.953 10.9527C75.1379 10.5725 75.2279 10.1112 75.2279 9.57284H75.0279C75.0279 10.0899 74.9414 10.5194 74.7731 10.8653L74.953 10.9527ZM81.9158 6.52557H82.0158V6.42557H81.9158V6.52557ZM81.9158 12.6201V12.7201H82.0158V12.6201H81.9158ZM81.2016 12.6201L81.1195 12.6771L81.1493 12.7201H81.2016V12.6201ZM77.8806 7.83495L77.9627 7.77793L77.9329 7.73495H77.8806V7.83495ZM77.8211 7.83495V7.73495H77.7211V7.83495H77.8211ZM77.8211 12.6201V12.7201H77.9211V12.6201H77.8211ZM77.083 12.6201H76.9831V12.7201H77.083V12.6201ZM77.083 6.52557V6.42557H76.9831V6.52557H77.083ZM77.7973 6.52557L77.8794 6.46851L77.8495 6.42557H77.7973V6.52557ZM81.1302 11.3226L81.0481 11.3797L81.0779 11.4226H81.1302V11.3226ZM81.1897 11.3226V11.4226H81.2897V11.3226H81.1897ZM81.1897 6.52557V6.42557H81.0897V6.52557H81.1897ZM81.8158 6.52557V12.6201H82.0158V6.52557H81.8158ZM81.9158 12.5201H81.2016V12.7201H81.9158V12.5201ZM81.2838 12.5631L77.9627 7.77793L77.7984 7.89196L81.1195 12.6771L81.2838 12.5631ZM77.8806 7.73495H77.8211V7.93495H77.8806V7.73495ZM77.7211 7.83495V12.6201H77.9211V7.83495H77.7211ZM77.8211 12.5201H77.083V12.7201H77.8211V12.5201ZM77.1831 12.6201V6.52557H76.9831V12.6201H77.1831ZM77.083 6.62557H77.7973V6.42557H77.083V6.62557ZM77.7151 6.58263L81.0481 11.3797L81.2123 11.2656L77.8794 6.46851L77.7151 6.58263ZM81.1302 11.4226H81.1897V11.2226H81.1302V11.4226ZM81.2897 11.3226V6.52557H81.0897V11.3226H81.2897ZM81.1897 6.62557H81.9158V6.42557H81.1897V6.62557Z" fill="white"/>
<path d="M68.136 21.7519C67.2955 21.7551 66.4748 22.0072 65.7775 22.4764C65.0802 22.9457 64.5376 23.611 64.2181 24.3884C63.8987 25.1658 63.8167 26.0205 63.9826 26.8444C64.1486 27.6683 64.5549 28.4247 65.1503 29.0179C65.7457 29.611 66.5036 30.0145 67.3281 30.1773C68.1527 30.3401 69.007 30.255 69.7832 29.9326C70.5594 29.6103 71.2227 29.0651 71.6893 28.3661C72.1559 27.667 72.405 26.8454 72.405 26.0049C72.4132 25.4428 72.3084 24.8847 72.0965 24.3639C71.8847 23.8431 71.5703 23.3702 71.172 22.9734C70.7737 22.5767 70.2997 22.264 69.7781 22.0542C69.2565 21.8443 68.6981 21.7415 68.136 21.7519ZM68.136 28.5819C67.6184 28.6189 67.1016 28.4991 66.653 28.2383C66.2044 27.9774 65.8447 27.5875 65.6209 27.1194C65.397 26.6512 65.3192 26.1265 65.3977 25.6135C65.4762 25.1006 65.7073 24.6232 66.061 24.2434C66.4147 23.8637 66.8745 23.5992 67.3806 23.4844C67.8867 23.3697 68.4156 23.41 68.8984 23.6001C69.3813 23.7901 69.7958 24.1212 70.0878 24.5501C70.3799 24.9791 70.536 25.486 70.536 26.0049C70.5517 26.3327 70.5016 26.6603 70.3888 26.9684C70.276 27.2766 70.1026 27.559 69.879 27.7991C69.6553 28.0393 69.3859 28.2322 69.0866 28.3667C68.7872 28.5011 68.464 28.5743 68.136 28.5819ZM58.823 21.7519C57.9825 21.7551 57.1618 22.0072 56.4645 22.4764C55.7672 22.9457 55.2246 23.611 54.9051 24.3884C54.5857 25.1658 54.5037 26.0205 54.6696 26.8444C54.8355 27.6683 55.2419 28.4247 55.8373 29.0179C56.4327 29.611 57.1905 30.0145 58.0151 30.1773C58.8397 30.3401 59.694 30.255 60.4702 29.9326C61.2464 29.6103 61.9097 29.0651 62.3763 28.3661C62.8429 27.667 63.092 26.8454 63.092 26.0049C63.1001 25.4428 62.9951 24.8848 62.7833 24.3641C62.5714 23.8433 62.257 23.3705 61.8587 22.9738C61.4605 22.577 60.9865 22.2644 60.465 22.0545C59.9435 21.8446 59.385 21.7417 58.823 21.7519ZM58.823 28.5819C58.3054 28.6189 57.7886 28.4991 57.34 28.2383C56.8914 27.9774 56.5317 27.5875 56.3078 27.1194C56.084 26.6512 56.0062 26.1265 56.0847 25.6135C56.1632 25.1006 56.3943 24.6232 56.748 24.2434C57.1017 23.8637 57.5615 23.5992 58.0676 23.4844C58.5737 23.3697 59.1026 23.41 59.5854 23.6001C60.0683 23.7901 60.4828 24.1212 60.7748 24.5501C61.0669 24.9791 61.2231 25.486 61.223 26.0049C61.2387 26.3327 61.1886 26.6603 61.0758 26.9684C60.963 27.2766 60.7896 27.559 60.566 27.7991C60.3424 28.0393 60.0729 28.2322 59.7736 28.3667C59.4742 28.5011 59.151 28.5743 58.823 28.5819ZM47.744 23.0569V24.8569H52.062C51.9995 25.703 51.6531 26.5033 51.079 27.1279C50.6465 27.5693 50.1262 27.915 49.5517 28.1427C48.9773 28.3705 48.3614 28.4751 47.744 28.4499C46.4709 28.4499 45.25 27.9442 44.3499 27.044C43.4497 26.1439 42.944 24.923 42.944 23.6499C42.944 22.3769 43.4497 21.156 44.3499 20.2558C45.25 19.3556 46.4709 18.8499 47.744 18.8499C48.9561 18.834 50.1255 19.2973 50.998 20.1389L52.269 18.8679C51.6736 18.2783 50.9665 17.8135 50.1891 17.5008C49.4118 17.1881 48.5798 17.0338 47.742 17.0469C46.8677 17.0362 46 17.1991 45.1891 17.5262C44.3783 17.8533 43.6404 18.3382 43.0184 18.9526C42.3963 19.5671 41.9024 20.2989 41.5653 21.1056C41.2283 21.9124 41.0547 22.7781 41.0547 23.6524C41.0547 24.5268 41.2283 25.3924 41.5653 26.1992C41.9024 27.0059 42.3963 27.7378 43.0184 28.3522C43.6404 28.9667 44.3783 29.4515 45.1891 29.7786C46 30.1058 46.8677 30.2687 47.742 30.2579C48.5975 30.2932 49.4507 30.1462 50.2452 29.8268C51.0396 29.5073 51.757 29.0227 52.35 28.4049C52.9725 27.6761 53.4267 26.819 53.6801 25.8946C53.9335 24.9702 53.9799 24.0013 53.816 23.0569H47.744ZM93.052 24.4569C92.7963 23.6867 92.3097 23.0138 91.6583 22.5296C91.0069 22.0455 90.2222 21.7736 89.411 21.7509C88.8645 21.7542 88.3244 21.8683 87.8233 22.0863C87.3222 22.3043 86.8705 22.6217 86.4956 23.0193C86.1206 23.4168 85.8302 23.8863 85.6419 24.3993C85.4536 24.9123 85.3713 25.4582 85.4 26.0039C85.3877 26.5631 85.4882 27.119 85.6956 27.6384C85.903 28.1579 86.2129 28.6302 86.6069 29.0272C87.0009 29.4242 87.4708 29.7377 87.9887 29.949C88.5066 30.1602 89.0617 30.265 89.621 30.2569C90.3222 30.2616 91.0136 30.0918 91.6329 29.763C92.2522 29.4341 92.7801 28.9564 93.169 28.3729L91.719 27.4059C91.5019 27.7667 91.1947 28.0648 90.8275 28.2709C90.4604 28.4771 90.046 28.5843 89.625 28.5819C89.1918 28.5986 88.7636 28.4847 88.3959 28.255C88.0282 28.0254 87.738 27.6905 87.563 27.2939L93.25 24.9409L93.052 24.4569ZM87.252 25.8749C87.2318 25.5653 87.2737 25.2549 87.375 24.9617C87.4764 24.6685 87.6352 24.3984 87.8422 24.1674C88.0493 23.9364 88.3003 23.7489 88.5807 23.6161C88.861 23.4833 89.1651 23.4078 89.475 23.3939C89.7974 23.3725 90.1191 23.4464 90.3998 23.6064C90.6806 23.7664 90.9081 24.0055 91.054 24.2939L87.252 25.8749ZM82.629 29.9999H84.498V17.4999H82.629V29.9999ZM79.569 22.6999H79.504C79.2198 22.3914 78.8731 22.1471 78.487 21.9832C78.1009 21.8194 77.6843 21.7399 77.265 21.7499C76.1689 21.7975 75.1335 22.2663 74.3748 23.0587C73.616 23.8511 73.1925 24.9058 73.1925 26.0029C73.1925 27.1 73.616 28.1547 74.3748 28.9471C75.1335 29.7395 76.1689 30.2084 77.265 30.2559C77.686 30.267 78.1044 30.1862 78.4911 30.0192C78.8777 29.8522 79.2234 29.603 79.504 29.2889H79.569V29.8999C79.569 31.5279 78.699 32.3999 77.297 32.3999C76.8298 32.3889 76.3765 32.2388 75.995 31.969C75.6135 31.6992 75.321 31.3217 75.155 30.8849L73.527 31.5619C73.8338 32.3085 74.3565 32.9465 75.0281 33.3942C75.6998 33.8419 76.4898 34.079 77.297 34.0749C79.488 34.0749 81.341 32.7859 81.341 29.6449V22.0089H79.569V22.6999ZM77.426 28.5799C76.7806 28.5245 76.1795 28.2289 75.7415 27.7516C75.3035 27.2744 75.0605 26.6502 75.0605 26.0024C75.0605 25.3546 75.3035 24.7304 75.7415 24.2532C76.1795 23.7759 76.7806 23.4804 77.426 23.4249C77.7472 23.441 78.062 23.5215 78.3516 23.6616C78.6411 23.8017 78.8995 23.9986 79.1115 24.2406C79.3234 24.4826 79.4845 24.7647 79.5853 25.0702C79.6861 25.3757 79.7244 25.6983 79.698 26.0189C79.7233 26.3378 79.6839 26.6585 79.5824 26.9618C79.4808 27.2651 79.319 27.5447 79.1068 27.784C78.8946 28.0234 78.6362 28.2174 78.3472 28.3545C78.0582 28.4916 77.7446 28.5689 77.425 28.5819L77.426 28.5799ZM101.806 17.4999H97.335V29.9999H99.201V25.2639H101.806C102.333 25.292 102.861 25.2124 103.356 25.0299C103.852 24.8475 104.305 24.5661 104.688 24.2028C105.071 23.8395 105.376 23.402 105.585 22.9169C105.793 22.4319 105.901 21.9094 105.901 21.3814C105.901 20.8534 105.793 20.331 105.585 19.8459C105.376 19.3608 105.071 18.9233 104.688 18.56C104.305 18.1968 103.852 17.9153 103.356 17.7329C102.861 17.5504 102.333 17.4718 101.806 17.4999ZM101.854 23.5249H99.201V19.2389H101.854C102.139 19.2328 102.423 19.2836 102.688 19.3885C102.953 19.4934 103.195 19.6502 103.399 19.8498C103.603 20.0494 103.765 20.2876 103.876 20.5506C103.986 20.8137 104.043 21.0961 104.043 21.3814C104.043 21.6667 103.986 21.9492 103.876 22.2122C103.765 22.4752 103.603 22.7135 103.399 22.913C103.195 23.1126 102.953 23.2694 102.688 23.3743C102.423 23.4792 102.139 23.5301 101.854 23.5239V23.5249ZM113.386 21.7249C112.705 21.6847 112.027 21.8443 111.436 22.1842C110.844 22.5241 110.365 23.0293 110.057 23.6379L111.713 24.3299C111.877 24.0287 112.125 23.7816 112.427 23.6187C112.729 23.4559 113.071 23.3844 113.413 23.4129C113.886 23.3677 114.358 23.5115 114.726 23.8129C115.093 24.1144 115.327 24.549 115.375 25.0219V25.1499C114.776 24.8316 114.107 24.6661 113.429 24.6679C111.644 24.6679 109.829 25.6489 109.829 27.4819C109.846 27.868 109.941 28.2467 110.107 28.5956C110.273 28.9445 110.508 29.2565 110.797 29.513C111.086 29.7696 111.424 29.9655 111.79 30.0891C112.156 30.2128 112.544 30.2617 112.929 30.2329C113.399 30.2606 113.867 30.1617 114.286 29.9466C114.705 29.7315 115.058 29.408 115.309 29.0099H115.373V29.9749H117.173V25.1859C117.182 22.9669 115.525 21.7289 113.386 21.7289V21.7249ZM113.161 28.5759C112.55 28.5759 111.697 28.2699 111.697 27.5149C111.697 26.5499 112.759 26.1799 113.675 26.1799C114.27 26.1639 114.859 26.3083 115.38 26.5979C115.312 27.1408 115.05 27.6409 114.642 28.0053C114.234 28.3698 113.708 28.5739 113.161 28.5799V28.5759ZM123.744 21.9999L121.605 27.4199H121.54L119.321 21.9999H117.31L120.64 29.5749L118.74 33.7889H120.686L125.818 21.9999H123.744ZM106.937 29.9999H108.802V17.4999H106.937V29.9999Z" fill="white"/>
<path d="M20.7183 19.4238L10.0693 30.7238V30.7308C10.1845 31.1585 10.3967 31.5539 10.6897 31.8861C10.9826 32.2184 11.3482 32.4785 11.7581 32.6463C12.1681 32.8141 12.6112 32.885 13.053 32.8536C13.4948 32.8221 13.9234 32.689 14.3053 32.4648L14.3393 32.4448L26.3273 25.5298L20.7183 19.4238Z" fill="#EA4335"/>
<path d="M31.4876 17.5002L31.4776 17.4932L26.3046 14.4932L20.4756 19.6812L26.3246 25.5292L31.4686 22.5602C31.925 22.3146 32.3065 21.9503 32.5731 21.5058C32.8396 21.0614 32.9811 20.5532 32.9827 20.0349C32.9844 19.5167 32.8461 19.0076 32.5824 18.5615C32.3187 18.1153 31.9394 17.7486 31.4846 17.5002H31.4876Z" fill="#FBBC04"/>
<path d="M10.0688 9.27686C10.0033 9.5181 9.96966 9.76688 9.96875 10.0169V29.9849C9.96861 30.2346 10.0022 30.4832 10.0688 30.7239L21.0838 19.7129L10.0688 9.27686Z" fill="#4285F4"/>
<path d="M20.7963 20L26.3063 14.491L14.3363 7.55096C13.954 7.32109 13.5234 7.18318 13.0786 7.14809C12.6339 7.11299 12.187 7.18168 11.7733 7.34873C11.3596 7.51578 10.9904 7.77663 10.6947 8.11073C10.399 8.44482 10.1849 8.84302 10.0693 9.27396L20.7963 20Z" fill="#34A853"/>
</g>
<defs>
<clipPath id="clip0_262_689">
<rect width="135" height="40" fill="white"/>
</clipPath>
</defs>
</svg>
