<svg width="168" height="214" viewBox="0 0 168 214" fill="none" xmlns="http://www.w3.org/2000/svg">
<rect x="5.65234" y="5.65234" width="156.174" height="202.696" rx="5" stroke="#80BECE" stroke-width="2"/>
<rect x="1" y="1" width="165.478" height="212" rx="11" stroke="#116380" stroke-width="2"/>
<g clip-path="url(#clip0_514_3937)">
<path d="M66.1573 190.192C62.0616 190.192 58.1351 190.985 54.2085 192.174C52.2656 192.763 49.9611 192.67 47.9249 192.308C43.2982 191.486 38.6948 190.67 34.3307 188.565C27.9129 185.475 23.0353 181.02 19.8439 174.711C17.8077 170.683 17.2651 166.275 16.7692 161.873C16.6583 160.876 17.0609 159.896 17.1309 158.934C17.3876 155.611 17.7144 152.311 18.9571 149.191C20.8358 144.463 22.6503 139.682 27.0377 136.527C28.9222 135.175 31.0518 135.046 33.1988 135.291C34.3482 135.425 34.6341 136.411 34.4007 137.489C34.1207 138.789 33.4731 139.862 32.4404 140.719C27.9946 144.41 26.1276 149.459 25.0774 154.888C24.0388 160.269 24.4881 165.499 26.7285 170.583C28.3038 174.152 30.5675 177.02 33.7298 179.341C36.1277 181.096 38.7123 181.936 41.7929 182.309C40.2935 178.81 38.9224 175.522 38.0122 172.041C37.0204 168.257 35.941 164.147 36.3202 160.578C36.9329 154.829 36.9387 148.661 40.3752 143.431C41.4312 141.821 42.7614 140.539 44.0742 139.203C46.6355 136.603 48.0007 133.822 48.5141 129.904C49.3076 123.84 50.2178 117.625 52.6974 111.87C54.3777 107.981 56.3264 104.208 58.1234 100.401C60.5738 95.2003 63.9694 90.5883 66.4607 85.4166C68.4386 81.3061 69.903 76.7816 73.1878 73.3066C75.8774 70.4612 78.2987 67.3594 80.9709 64.4966C85.51 59.6281 88.0597 53.6284 90.7318 47.6988C91.4845 46.0254 92.558 44.3812 92.0854 42.358C92.0329 42.1306 92.3946 41.705 92.6688 41.5301C94.9968 40.0549 96.4437 37.5886 98.8183 36.1601C99.9677 35.4721 100.195 34.1777 100.545 33.0466C101.601 29.6241 102.552 26.1782 103.667 22.3242C105.633 24.773 106.31 27.4434 107.214 30.3121C108.608 28.5338 108.498 26.4989 109.297 24.8314C109.501 24.3999 109.18 23.5778 110.125 23.537C110.977 23.4962 111.065 24.2483 111.205 24.6739C112.337 28.0906 113.381 31.5248 112.611 35.2156C112.313 36.6615 112.745 38.055 114.128 38.7489C116.73 40.0491 118.41 41.9673 119.56 44.6844C120.738 47.4714 123.86 48.1885 126.199 49.722C128.218 51.0513 130.569 51.6344 132.757 52.5848C134.099 53.1678 134.344 54.0541 133.871 55.1502C132.074 59.3191 129.577 62.625 124.56 63.3072C120.686 63.8377 116.788 63.9485 112.914 64.8173C107.786 65.9659 103.532 72.9567 104.151 77.5162C104.711 81.6617 105.942 85.6382 106.648 89.737C106.94 91.4337 107.027 93.1712 107.185 94.8388C107.856 102.092 107.949 109.339 105.399 116.388C104.174 119.782 102.733 123.053 101.123 126.265C100.744 127.029 100.189 127.711 100.283 128.638C99.781 128.703 99.3434 128.732 98.8708 128.353C96.1578 126.19 93.754 123.776 91.9454 120.779C89.3549 116.499 89.3841 111.794 89.2966 107.019C89.2265 103.392 88.1005 99.8064 85.2533 97.4509C82.6745 95.3169 80.2883 93.1887 78.8472 90.1335C78.6663 89.7429 78.2929 89.3172 77.832 89.4805C77.2835 89.6787 77.231 90.1394 77.4819 90.7107C77.6453 91.0897 77.6278 91.5737 77.5986 91.9993C77.5694 92.4599 77.8261 93.0779 77.196 93.317C76.6359 93.5211 76.2158 93.1013 75.8599 92.7631C75.0723 92.011 74.3022 91.2355 73.5729 90.425C72.9544 89.737 72.1843 89.049 71.3383 89.5505C70.609 89.9819 70.9591 91.0314 71.1166 91.7544C71.2391 92.3083 71.42 92.8389 71.4666 93.4278C71.6067 95.2702 71.4316 96.7687 69.1854 97.3401C67.9485 97.6549 67.05 98.7277 66.2449 99.7831C64.8971 101.55 63.9869 103.719 62.1083 104.99C60.603 106.01 60.0487 106.931 60.2938 108.92C60.7605 112.68 62.4525 114.359 66.204 114.686C68.882 114.919 69.9789 115.945 70.1656 118.674C70.434 122.528 69.0979 125.974 67.8318 129.484C66.6591 132.737 65.3172 136.061 67.0908 139.518C67.966 141.227 68.8412 143.017 70.1014 144.428C73.7596 148.544 74.6464 153.529 74.9206 158.707C75.3057 166.001 73.6429 173.114 72.6219 180.262C72.301 182.524 71.7117 185.428 68.9929 186.116C66.5191 186.74 65.924 188.005 66.169 190.18L66.1573 190.192Z" fill="#116380"/>
<path d="M66.1576 190.192C65.9126 188.017 66.5135 186.752 68.9815 186.128C71.7003 185.44 72.2837 182.537 72.6104 180.275C73.6315 173.12 75.2943 166.007 74.9092 158.719C74.635 153.547 73.7482 148.556 70.09 144.44C68.8356 143.023 67.9546 141.233 67.0794 139.531C65.3058 136.073 66.6477 132.75 67.8204 129.496C69.0865 125.986 70.4226 122.54 70.1542 118.686C69.9616 115.958 68.8706 114.932 66.1926 114.698C62.4411 114.372 60.7433 112.693 60.2824 108.932C60.0373 106.938 60.5916 106.022 62.0969 105.002C63.9755 103.731 64.8915 101.562 66.2335 99.7954C67.0328 98.7401 67.9313 97.6673 69.174 97.3524C71.4202 96.781 71.5953 95.2767 71.4552 93.4401C71.4086 92.8512 71.2277 92.3207 71.1052 91.7667C70.9476 91.0438 70.5976 89.9943 71.3269 89.5628C72.1729 89.0672 72.943 89.7552 73.5615 90.4374C74.2908 91.2478 75.0609 92.0233 75.8485 92.7754C76.2044 93.1136 76.6245 93.5334 77.1846 93.3293C77.8147 93.0961 77.558 92.4781 77.5872 92.0116C77.6164 91.5802 77.6339 91.0962 77.4705 90.7231C77.2196 90.1517 77.2721 89.6852 77.8206 89.4928C78.2815 89.3296 78.6549 89.7552 78.8357 90.1459C80.2768 93.2011 82.6573 95.3292 85.2419 97.4632C88.0891 99.8187 89.221 103.405 89.2852 107.031C89.3727 111.806 89.3435 116.512 91.934 120.791C93.7426 123.788 96.1464 126.202 98.8594 128.365C99.3378 128.744 99.7696 128.715 100.271 128.651C100.639 130.773 102.348 132.097 103.708 133.356C107.821 137.169 111.514 141.291 114.653 145.921C115.493 147.157 116.608 148.177 117.518 149.39C120.359 153.168 121.479 157.57 122.903 161.955C124.572 167.074 123.562 171.879 122.512 176.794C122.378 177.412 121.812 178.158 122.46 178.589C123.095 179.015 123.638 178.193 124.122 177.849C127.897 175.184 130.003 171.663 130.073 166.899C130.161 160.544 127.588 155.32 124.157 150.16C120.925 145.303 117.763 140.236 116.894 134.289C115.919 127.636 118.09 122.004 123.136 117.509C124.472 116.319 126.083 115.62 127.833 115.415C134.175 114.675 138.084 114.897 141.62 119.858C142.53 121.135 142.472 122.476 142.046 123.794C141.556 125.304 140.569 126.045 138.848 125.316C137.611 124.791 136.561 124.062 135.634 123.135C131.293 118.797 125.47 121.048 123.049 126.15C120.137 132.277 122.734 137.426 125.733 142.504C128.416 147.046 131.87 151.128 134.076 155.955C134.589 157.086 134.863 158.369 135.033 159.611C136.421 169.628 134.076 178.659 124.035 183.837C121.882 184.945 119.758 186.035 117.745 187.481C114.315 189.942 110.056 190.431 105.925 190.595C100.686 190.804 95.4229 190.834 90.1953 190.536C88.34 190.431 86.1054 191.003 84.5301 189.265C84.6235 187.003 85.9829 185.983 88.0308 185.37C90.9305 184.502 91.7473 182.717 90.913 179.767C89.9503 176.368 88.1941 173.365 86.0646 170.596C85.1486 169.406 84.536 167.89 83.0774 167.103C81.7238 170.829 81.2629 174.648 80.1777 178.315C79.1741 181.715 77.9198 184.84 76.3153 187.924C75.8894 188.74 75.1717 189.574 75.8369 190.618C72.5988 190.67 69.3315 191.329 66.1401 190.192H66.1576Z" fill="#80BECE"/>
</g>
<defs>
<clipPath id="clip0_514_3937">
<rect width="125.609" height="170.27" fill="white" transform="translate(16.7461 22.3306)"/>
</clipPath>
</defs>
</svg>
