<svg width="127" height="171" viewBox="0 0 127 171" fill="none" xmlns="http://www.w3.org/2000/svg">
<g clip-path="url(#clip0_47_1075)">
<path d="M50.1591 168.192C46.0633 168.192 42.1368 168.985 38.2102 170.174C36.2674 170.763 33.9628 170.67 31.9266 170.308C27.2999 169.486 22.6966 168.67 18.3324 166.565C11.9146 163.475 7.03704 159.02 3.84562 152.711C1.80942 148.683 1.26682 144.275 0.770898 139.873C0.660045 138.876 1.06262 137.896 1.13263 136.934C1.38934 133.611 1.71607 130.311 2.9588 127.191C4.83747 122.463 6.65197 117.682 11.0394 114.527C12.9239 113.175 15.0535 113.046 17.2006 113.291C18.3499 113.425 18.6358 114.411 18.4024 115.489C18.1224 116.789 17.4748 117.862 16.4421 118.719C11.9963 122.41 10.1293 127.459 9.07908 132.888C8.04055 138.269 8.4898 143.499 10.7302 148.583C12.3055 152.152 14.5692 155.02 17.7315 157.341C20.1294 159.096 22.7141 159.936 25.7946 160.309C24.2952 156.81 22.9241 153.522 22.0139 150.041C21.0221 146.257 19.9427 142.147 20.322 138.578C20.9346 132.829 20.9404 126.661 24.3769 121.431C25.4329 119.821 26.7631 118.539 28.0759 117.203C30.6372 114.603 32.0024 111.822 32.5158 107.904C33.3093 101.84 34.2195 95.6246 36.6991 89.8698C38.3794 85.9808 40.3281 82.2085 42.1251 78.4011C44.5755 73.2003 47.9712 68.5883 50.4624 63.4166C52.4403 59.3061 53.9047 54.7816 57.1895 51.3066C59.8792 48.4612 62.3004 45.3594 64.9726 42.4966C69.5117 37.6281 72.0614 31.6284 74.7335 25.6988C75.4862 24.0254 76.5597 22.3812 76.0871 20.358C76.0346 20.1306 76.3963 19.705 76.6705 19.5301C78.9985 18.0549 80.4454 15.5886 82.82 14.1601C83.9694 13.4721 84.1969 12.1777 84.547 11.0466C85.603 7.62407 86.554 4.17821 87.6684 0.324219C89.6346 2.77305 90.3114 5.44344 91.2157 8.31207C92.6101 6.53375 92.4993 4.49889 93.2986 2.83136C93.5028 2.39989 93.1819 1.57779 94.1271 1.53697C94.9789 1.49616 95.0664 2.2483 95.2064 2.67393C96.3383 6.09063 97.3826 9.52483 96.6125 13.2156C96.315 14.6615 96.7467 16.055 98.1295 16.7489C100.732 18.0491 102.412 19.9673 103.561 22.6844C104.74 25.4714 107.861 26.1885 110.201 27.722C112.22 29.0513 114.571 29.6344 116.759 30.5848C118.101 31.1678 118.346 32.0541 117.873 33.1502C116.076 37.3191 113.579 40.625 108.561 41.3072C104.687 41.8377 100.79 41.9485 96.9159 42.8173C91.7875 43.9659 87.5342 50.9567 88.1526 55.5162C88.7127 59.6617 89.9438 63.6382 90.6498 67.737C90.9415 69.4337 91.029 71.1712 91.1865 72.8388C91.8575 80.092 91.9508 87.3393 89.4012 94.3885C88.176 97.7819 86.7349 101.053 85.1246 104.265C84.7453 105.029 84.1911 105.711 84.2844 106.638C83.7827 106.703 83.3451 106.732 82.8725 106.353C80.1595 104.19 77.7557 101.776 75.9471 98.7789C73.3566 94.4993 73.3858 89.794 73.2983 85.0188C73.2282 81.3922 72.1022 77.8064 69.255 75.4509C66.6762 73.3169 64.29 71.1887 62.8489 68.1335C62.668 67.7429 62.2946 67.3172 61.8337 67.4805C61.2852 67.6787 61.2327 68.1394 61.4836 68.7107C61.647 69.0897 61.6295 69.5737 61.6003 69.9993C61.5711 70.4599 61.8278 71.0779 61.1977 71.317C60.6376 71.5211 60.2176 71.1013 59.8617 70.7631C59.074 70.011 58.3039 69.2355 57.5746 68.425C56.9561 67.737 56.186 67.049 55.34 67.5505C54.6107 67.9819 54.9608 69.0314 55.1183 69.7544C55.2408 70.3083 55.4217 70.8389 55.4684 71.4278C55.6084 73.2702 55.4333 74.7687 53.1871 75.3401C51.9502 75.6549 51.0517 76.7277 50.2466 77.7831C48.8988 79.5497 47.9887 81.7187 46.11 82.9898C44.6047 84.0101 44.0504 84.9313 44.2955 86.9195C44.7622 90.6803 46.4542 92.3594 50.2057 92.686C52.8837 92.9192 53.9806 93.9454 54.1673 96.6741C54.4357 100.528 53.0996 103.974 51.8335 107.484C50.6608 110.737 49.3189 114.061 51.0926 117.518C51.9677 119.227 52.8429 121.017 54.1031 122.428C57.7613 126.544 58.6481 131.529 58.9223 136.707C59.3074 144.001 57.6446 151.114 56.6236 158.262C56.3027 160.524 55.7134 163.428 52.9946 164.116C50.5208 164.74 49.9257 166.005 50.1707 168.18L50.1591 168.192Z" fill="#116380"/>
<path d="M50.1593 168.192C49.9143 166.017 50.5152 164.752 52.9832 164.128C55.702 163.44 56.2854 160.536 56.6122 158.274C57.6332 151.12 59.296 144.007 58.9109 136.718C58.6367 131.547 57.7499 126.556 54.0917 122.439C52.8373 121.023 51.9563 119.233 51.0811 117.53C49.3075 114.073 50.6494 110.749 51.8221 107.496C53.0882 103.986 54.4243 100.54 54.1559 96.6859C53.9633 93.9572 52.8723 92.931 50.1943 92.6978C46.4428 92.3713 44.745 90.6921 44.2841 86.9314C44.039 84.9374 44.5933 84.022 46.0986 83.0016C47.9773 81.7305 48.8933 79.5616 50.2352 77.7949C51.0345 76.7396 51.933 75.6668 53.1757 75.3519C55.4219 74.7805 55.597 73.2763 55.4569 71.4396C55.4103 70.8507 55.2294 70.3202 55.1069 69.7663C54.9494 69.0433 54.5993 67.9938 55.3286 67.5623C56.1746 67.0667 56.9447 67.7547 57.5632 68.4369C58.2925 69.2473 59.0626 70.0228 59.8503 70.7749C60.2061 71.1131 60.6262 71.5329 61.1863 71.3288C61.8164 71.0956 61.5597 70.4776 61.5889 70.0111C61.6181 69.5797 61.6356 69.0958 61.4722 68.7226C61.2213 68.1512 61.2738 67.6848 61.8223 67.4924C62.2832 67.3291 62.6566 67.7547 62.8375 68.1454C64.2786 71.2006 66.659 73.3287 69.2436 75.4627C72.0908 77.8183 73.2227 81.404 73.2869 85.0306C73.3744 89.8059 73.3452 94.5111 75.9357 98.7907C77.7443 101.788 80.1481 104.201 82.8611 106.365C83.3395 106.744 83.7713 106.714 84.273 106.65C84.6406 108.773 86.3501 110.096 87.7095 111.356C91.8227 115.169 95.5159 119.291 98.6548 123.92C99.495 125.156 100.609 126.177 101.52 127.39C104.361 131.168 105.481 135.57 106.905 139.954C108.573 145.074 107.564 149.878 106.514 154.793C106.38 155.411 105.814 156.158 106.461 156.589C107.097 157.015 107.64 156.193 108.124 155.849C111.899 153.184 114.005 149.662 114.075 144.899C114.163 138.543 111.59 133.319 108.159 128.159C104.927 123.302 101.765 118.236 100.895 112.288C99.9209 105.636 102.091 100.004 107.138 95.5081C108.474 94.3187 110.084 93.619 111.835 93.415C118.177 92.6745 122.086 92.8961 125.621 97.8579C126.532 99.1347 126.473 100.476 126.047 101.793C125.557 103.304 124.571 104.044 122.85 103.315C121.613 102.791 120.563 102.062 119.635 101.135C115.295 96.7967 109.472 99.0473 107.051 104.149C104.139 110.277 106.735 115.425 109.734 120.504C112.418 125.046 115.872 129.127 118.078 133.955C118.591 135.086 118.865 136.369 119.034 137.611C120.423 147.627 118.078 156.659 108.037 161.836C105.884 162.944 103.76 164.035 101.747 165.481C98.3164 167.941 94.0573 168.431 89.9266 168.594C84.6873 168.804 79.4246 168.833 74.197 168.536C72.3417 168.431 70.1071 169.002 68.5318 167.265C68.6252 165.002 69.9846 163.982 72.0325 163.37C74.9322 162.501 75.749 160.717 74.9147 157.767C73.952 154.368 72.1958 151.365 70.0663 148.595C69.1503 147.406 68.5377 145.89 67.0791 145.103C65.7255 148.829 65.2646 152.648 64.1794 156.315C63.1759 159.714 61.9215 162.839 60.317 165.924C59.8911 166.74 59.1735 167.574 59.8386 168.617C56.6005 168.67 53.3332 169.329 50.1418 168.192H50.1593Z" fill="#80BECE"/>
</g>
<defs>
<clipPath id="clip0_47_1075">
<rect width="125.609" height="170.27" fill="white" transform="translate(0.747803 0.330322)"/>
</clipPath>
</defs>
</svg>
