<svg width="178" height="129" viewBox="0 0 178 129" fill="none" xmlns="http://www.w3.org/2000/svg">
<g clip-path="url(#clip0_43_1065)">
<path d="M69.2034 87.6195C69.2034 86.4449 69.2034 85.7422 69.2034 85.0395C69.2034 73.0832 69.2234 61.1268 69.2034 49.1604C69.2034 48.2168 69.4938 47.5442 70.2147 46.8916C73.9498 43.5487 77.6047 40.1254 81.3397 36.7925C81.9005 36.3006 82.7917 35.9191 83.5227 35.9291C94.4474 36.1299 105.362 36.3809 116.287 36.662C122.916 36.8427 129.555 36.9531 136.003 38.7702C146.948 41.8521 154.649 48.779 159.585 58.9283C161.027 61.8898 162.439 64.8713 163.911 67.8127C165.573 71.1155 168.137 73.6955 170.74 76.2454C172.923 78.3837 175.096 80.532 176.458 83.3228C177.059 84.5476 177.479 85.8727 177.89 87.1778C178.2 88.1917 177.83 88.6736 176.648 88.6736C171.902 88.6435 167.977 86.7461 164.742 83.4032C160.266 78.7853 156.902 73.3442 153.697 67.8027C153.557 67.5618 153.427 67.3007 153.117 66.7486C153.117 67.7123 153.137 68.3448 153.117 68.9772C152.926 74.1172 152.846 79.2571 152.496 84.387C152.155 89.3261 153.817 93.2915 157.472 96.524C158.944 97.819 160.396 99.1442 161.858 100.449C162.95 101.423 163.48 102.577 163.44 104.093C163.3 110.157 163.3 116.21 163.12 122.274C163.06 124.492 162.029 126.47 160.787 128.267C160.537 128.628 159.896 128.899 159.425 128.899C157.052 128.94 154.669 128.899 152.295 128.859C150.122 128.819 149.391 127.695 150.203 125.647C150.833 124.041 152.035 122.966 153.617 122.354C154.578 121.983 154.929 121.39 154.929 120.366C154.929 117.696 154.969 115.016 155.099 112.345C155.179 110.659 154.508 109.404 153.387 108.219C150.062 104.716 146.237 101.825 142.322 99.0337C133.24 92.5787 126.07 84.4673 121.244 74.3681C120.903 73.6554 120.472 73.6253 119.842 73.7357C113.433 74.9002 107.165 76.5566 101.076 78.8756C94.3873 81.4355 87.8285 84.387 80.789 85.8627C77.064 86.6357 73.2488 87.0172 69.2034 87.6095V87.6195Z" fill="#116380"/>
<path d="M58.7596 26.9644C63.6162 22.5373 68.2724 18.3008 72.9287 14.0444C77.7052 9.67743 82.4516 5.28038 87.2781 0.953613C87.8689 0.421551 88.8302 0.0601499 89.6212 0.050111C95.8797 -0.0302003 102.138 -8.35913e-05 108.397 -8.35913e-05C109.668 -8.35913e-05 110.69 0.43159 111.17 1.71657C111.651 3.00155 111.12 3.94521 110.169 4.80855C97.7322 16.1425 85.2954 27.4864 72.8686 38.8405C66.5802 44.5827 60.3017 50.3451 54.0332 56.1174C53.3023 56.79 52.5713 57.0611 51.5699 57.051C46.1025 57.0008 40.6352 56.9808 35.1778 57.051C34.0463 57.0611 33.7058 56.6495 33.4755 55.6155C31.8633 48.4477 30.1611 41.31 28.5289 34.1523C28.3086 33.1685 27.878 32.8071 26.8466 32.777C21.0488 32.5862 15.261 32.3854 9.47316 32.0642C5.95842 31.8735 3.35491 30.0163 2.00309 26.8138C1.09186 24.6555 0.67129 22.2763 0.0504524 19.9874C-0.189872 19.0939 0.551128 18.9433 1.11188 18.7325C4.51647 17.5078 7.92107 16.2529 11.3657 15.1185C12.7776 14.6467 13.5386 13.9239 13.8691 12.3879C14.6802 8.69361 17.1635 6.25416 20.6082 5.07961C23.0515 4.24638 25.705 3.88497 28.2885 3.634C30.3914 3.43322 32.5342 3.6842 34.6671 3.77455C37.3307 3.88497 39.2032 5.28038 40.8455 7.30824C44.4303 11.7053 48.0652 16.0722 51.8503 20.2986C53.9531 22.6477 56.3964 24.7057 58.7596 26.9544V26.9644ZM102.338 5.14988C101.918 5.05953 101.758 4.99929 101.607 4.99929C98.0226 4.99929 94.4377 4.96918 90.8529 5.01937C90.3823 5.01937 89.8415 5.35066 89.471 5.69198C80.8594 13.5324 72.2678 21.3828 63.6963 29.2633C63.3258 29.6047 63.0354 30.2271 63.0254 30.729C62.9653 33.7808 62.9953 36.8327 62.9953 39.8845C62.9953 40.1857 63.0554 40.4868 63.1155 40.9787C76.2232 29.0023 89.1806 17.1665 102.328 5.14988H102.338ZM36.6398 17.8893L36.079 17.6985C35.7786 18.341 35.4582 18.9735 35.1678 19.626C33.0149 24.5049 29.4801 27.7776 24.2331 29.0324C22.7611 29.3838 22.0301 28.9823 21.8999 27.4764C21.6996 25.0671 21.4293 22.6276 21.6596 20.2384C22.0401 16.4336 22.8212 12.669 23.412 8.88435C23.482 8.45268 23.412 8.01097 23.412 7.56925C23.2417 7.53914 23.0715 7.49898 22.9013 7.46887C22.671 8.00093 22.3806 8.52295 22.2304 9.07509C21.95 10.1191 21.7297 11.1833 21.5094 12.2474C20.5581 16.9657 20.0274 21.704 20.5681 26.5428C21.0388 30.7089 22.8212 30.8896 26.1256 29.685C31.1424 27.8579 34.3867 24.2338 36.3794 19.3851C36.5597 18.9333 36.5396 18.4012 36.6198 17.9093L36.6398 17.8893Z" fill="#116380"/>
<path d="M35.6484 63.2352C36.5396 63.2352 37.2406 63.2352 37.9415 63.2352C45.742 63.2352 53.5426 63.2251 61.3431 63.2352C63.0053 63.2352 63.0053 63.2553 63.0053 64.8715C63.0053 71.9389 63.0053 79.0063 63.0053 86.0737C63.0053 86.3949 62.9653 86.7262 62.9452 86.9973C62.795 87.0876 62.7249 87.1579 62.6549 87.1579C60.3517 87.0776 60.1915 87.0475 59.771 89.3765C59.2803 92.1573 58.9398 94.9882 58.8097 97.8092C58.5293 103.993 58.4992 110.187 58.1788 116.361C58.0987 117.867 57.548 119.513 56.7269 120.788C55.1447 123.238 53.2922 125.517 51.3897 127.735C50.8389 128.378 49.7775 128.839 48.9163 128.91C46.8435 129.08 44.7507 128.99 42.6679 128.95C40.9856 128.92 40.3848 127.946 40.9356 126.36C41.3762 125.105 42.2874 124.442 43.479 123.971C44.0798 123.73 44.7107 123.268 45.0711 122.726C47.3843 119.232 48.696 115.407 48.5058 111.161C48.0952 101.815 47.6646 92.4584 47.2341 83.1122C47.184 81.9979 46.7634 81.0844 45.9323 80.2511C41.3361 75.7236 38.0216 70.3728 35.8687 64.2893C35.7786 64.0282 35.7586 63.7371 35.6585 63.2452L35.6484 63.2352Z" fill="#116380"/>
<path d="M106.424 79.4079C108.707 78.7453 110.79 78.1028 112.903 77.5507C114.675 77.0889 116.487 76.7978 118.25 76.3059C119.201 76.0448 119.612 76.3259 120.122 77.119C122.546 80.9037 124.879 84.7787 127.602 88.3526C131.628 93.6431 136.635 97.9899 142.182 101.594C144.976 103.411 146.308 105.369 145.967 108.852C145.537 113.199 145.927 117.636 145.557 121.993C145.386 124.031 144.305 126.009 143.484 127.946C143.284 128.408 142.462 128.85 141.912 128.87C139.458 128.96 136.995 128.92 134.532 128.87C132.669 128.829 131.978 127.725 132.569 125.928C133.16 124.121 134.442 122.987 136.124 122.304C137.085 121.913 137.406 121.35 137.406 120.326C137.386 117.656 137.456 114.976 137.576 112.305C137.646 110.769 137.095 109.595 136.074 108.481C132.759 104.836 128.834 101.935 124.869 99.0942C117.909 94.1048 111.981 88.1317 107.325 80.9137C107.065 80.5021 106.824 80.0805 106.424 79.4179V79.4079Z" fill="#116380"/>
<path d="M63.0752 89.4368H74.861C74.7809 89.8283 74.6207 90.4105 74.5606 91.0028C74.3804 92.9102 74.1601 94.8277 74.09 96.7451C73.8597 103.14 73.6694 109.535 73.4992 115.929C73.4391 118.048 72.8483 119.935 71.5065 121.601C69.9845 123.489 68.5225 125.416 67.0806 127.364C66.2394 128.488 65.2381 129.06 63.7861 128.99C61.8735 128.9 59.9509 128.99 58.0284 128.97C56.266 128.96 55.4248 127.775 56.306 126.249C56.8267 125.346 57.8481 124.724 58.6692 124.011C59.27 123.489 60.0811 123.117 60.4917 122.485C62.6746 119.062 63.8762 115.327 63.736 111.231C63.5158 104.505 63.2955 97.7791 63.0852 91.053C63.0752 90.6013 63.0852 90.1596 63.0852 89.4368H63.0752Z" fill="#116380"/>
<path d="M62.9352 53.668V56.9206H59.3203C60.6221 55.7561 61.7035 54.7722 62.9352 53.668Z" fill="#116380"/>
</g>
<defs>
<clipPath id="clip0_43_1065">
<rect width="178" height="129" fill="white"/>
</clipPath>
</defs>
</svg>
