<svg width="30" height="29" viewBox="0 0 30 29" fill="none" xmlns="http://www.w3.org/2000/svg">
<path d="M14.9381 23.7826C10.5315 23.7826 6.12487 23.7826 1.71826 23.7826C0.298496 23.7826 0.0607533 23.5469 0.0574048 22.1555C0.0574048 21.8334 0.0841927 21.508 0.0574048 21.1892C-0.203778 18.0013 0.415694 15.0758 2.13347 12.2865C3.00073 10.8785 3.3021 9.11856 3.81107 7.50139C4.42719 5.55216 5.66613 4.59913 7.72211 4.59581C12.5707 4.58584 17.4227 4.58252 22.2713 4.58252C24.3742 4.58252 25.7203 5.55879 26.179 7.5678C26.7315 9.99521 27.7394 12.2101 28.9013 14.4051C29.4974 15.5308 29.7518 16.8889 29.9126 18.1707C30.08 19.5289 29.9561 20.9235 29.9527 22.3016C29.9494 23.5037 29.6447 23.8092 28.4258 23.8092C23.9322 23.8125 19.4351 23.8092 14.9415 23.8092V23.786L14.9381 23.7826ZM3.64699 13.0071H26.3699C25.8843 11.0744 25.4524 9.2215 24.9468 7.38849C24.6722 6.39893 23.7547 5.72151 22.6832 5.71819C17.5399 5.70823 12.4 5.71818 7.25667 5.75139C6.20859 5.75803 5.37816 6.31591 5.08684 7.28222C4.52764 9.15176 4.12582 11.0645 3.64699 13.0071ZM15.0084 18.0578C13.7092 18.0578 12.41 18.0412 11.1108 18.0644C10.2402 18.081 9.87519 18.4496 9.85175 19.303C9.83166 20.0336 9.8417 20.7675 9.85175 21.498C9.86514 22.275 10.2737 22.7034 11.0606 22.7067C13.6891 22.7167 16.3143 22.7167 18.9429 22.7067C19.7298 22.7067 20.1417 22.2717 20.1685 21.5046C20.1919 20.804 20.1885 20.1 20.1718 19.396C20.1517 18.4496 19.78 18.0744 18.819 18.0644C17.5499 18.0478 16.2809 18.0611 15.0118 18.0578H15.0084ZM4.84575 15.7333C3.12462 15.6636 1.63789 17.0516 1.58432 18.7751C1.53409 20.4487 2.89023 21.8965 4.58792 21.9828C6.31239 22.0692 7.81251 20.7077 7.89288 18.9876C7.97324 17.2841 6.58697 15.8064 4.84575 15.7366V15.7333ZM28.399 18.8714C28.4124 17.1413 26.996 15.7267 25.2515 15.7333C23.5504 15.74 22.1374 17.118 22.1072 18.7983C22.0771 20.5184 23.4935 21.9662 25.218 21.9861C26.9558 22.0061 28.3823 20.6081 28.3957 18.8714H28.399Z" fill="#116380"/>
<path d="M15.005 4.00473C13.9435 4.00473 12.882 4.01801 11.8172 4.00473C10.7993 3.99145 10.4879 3.60625 10.6687 2.63329C10.9968 0.884407 12.0561 0.00885653 13.8464 0.00664276C15.0552 0.00664276 16.264 0.00664134 17.4762 0C18.3401 0 18.8624 0.42173 19.05 1.24526C19.1672 1.75664 19.2743 2.27466 19.358 2.79269C19.4819 3.55976 19.1605 3.97484 18.3669 3.99477C17.2451 4.02465 16.1234 4.00141 15.005 4.00473ZM13.3843 1.96252C13.3039 2.04554 13.2269 2.12855 13.1466 2.21157C13.2604 2.50047 13.3039 2.87902 13.5182 3.04505C13.6756 3.16792 14.1176 3.09487 14.3085 2.94876C14.4458 2.84582 14.4759 2.31118 14.3788 2.25473C14.0942 2.08206 13.7225 2.04886 13.3843 1.96252ZM17.6202 2.11859C17.6972 2.01897 17.7708 1.92267 17.8478 1.82305C17.8412 1.41129 18.0588 0.83017 17.2753 0.926469C17.0543 0.953035 16.8734 1.31166 16.6725 1.51754C16.9873 1.71678 17.3054 1.91935 17.6202 2.11859ZM16.6323 2.0721H15.5943C15.4872 3.16792 15.5307 3.20445 16.6323 3.00521V2.0721ZM14.4491 1.97912C14.9715 1.8961 15.5508 2.2813 15.5977 1.45777C15.6278 0.956352 15.3298 0.873336 14.928 0.903222C14.1746 0.956353 14.4793 1.47106 14.4491 1.98244V1.97912ZM13.3676 1.92931C13.2638 1.53083 13.2671 1.17552 13.0896 0.979601C12.9724 0.850095 12.4735 0.840132 12.3697 0.962997C12.1855 1.18216 12.1755 1.54079 12.065 1.92931H13.3642H13.3676Z" fill="#116380"/>
<path d="M24.8228 24.8022H29.3299C29.3299 25.918 29.4136 27.0238 29.2797 28.1063C29.2395 28.4317 28.6167 28.8468 28.2048 28.9232C27.4916 29.056 26.7315 28.983 25.9948 28.9531C25.3117 28.9232 24.8664 28.5413 24.8329 27.8606C24.786 26.871 24.8228 25.8781 24.8228 24.8022Z" fill="#116380"/>
<path d="M0.630035 24.8086H5.13711C5.13711 25.9077 5.22082 26.987 5.09023 28.0363C5.0467 28.3783 4.47076 28.8465 4.07564 28.9163C3.30548 29.0524 2.48845 28.9926 1.69821 28.9395C1.06534 28.8963 0.653475 28.5178 0.636733 27.8603C0.609945 26.8707 0.630035 25.8845 0.630035 24.8086Z" fill="#116380"/>
</svg>
