<svg width="23" height="13" viewBox="0 0 23 13" fill="none" xmlns="http://www.w3.org/2000/svg">
<path d="M22.0572 3.85618C22.1199 3.59924 22.0842 3.32817 21.9572 3.09618C21.6332 2.53382 21.2012 2.04099 20.6862 1.64597C20.1712 1.25096 19.5832 0.961526 18.9561 0.794287C18.3289 0.627048 17.6749 0.585294 17.0316 0.671422C16.3883 0.757549 15.7683 0.969862 15.2072 1.29618L13.0572 2.53618L8.05724 0.186178C7.91509 0.112534 7.75733 0.0740967 7.59724 0.0740967C7.43714 0.0740967 7.27939 0.112534 7.13724 0.186178L4.13724 1.91618C3.98898 2.0017 3.86515 2.12384 3.7776 2.27092C3.69006 2.41799 3.64173 2.58508 3.63724 2.75618C3.6324 2.92855 3.67221 3.09924 3.75281 3.25168C3.83341 3.40412 3.95206 3.53313 4.09724 3.62618L7.39724 5.70618L5.65724 6.70618L0.877239 7.28618C0.685085 7.30995 0.503963 7.38899 0.355862 7.5137C0.207761 7.63842 0.0990511 7.80345 0.0429296 7.98876C-0.0131919 8.17406 -0.0143111 8.37168 0.0397077 8.55761C0.0937266 8.74354 0.20056 8.90979 0.347239 9.03618L3.88724 12.0962C4.35329 12.541 4.95014 12.8239 5.58949 12.9032C6.22883 12.9824 6.8767 12.8537 7.43724 12.5362L21.5572 4.46618C21.6776 4.40371 21.784 4.31742 21.8699 4.21256C21.9559 4.10769 22.0196 3.98644 22.0572 3.85618ZM6.52724 10.8562C6.33515 10.9619 6.11364 11.0015 5.89682 10.969C5.67999 10.9365 5.47987 10.8336 5.32724 10.6762L3.42724 9.04618L6.15724 8.71618C6.29139 8.69899 6.42067 8.65476 6.53724 8.58618L9.89724 6.65618C10.0469 6.56978 10.1717 6.44607 10.2593 6.2971C10.3469 6.14813 10.3945 5.97899 10.3972 5.80618C10.3993 5.63455 10.3571 5.46527 10.2748 5.31465C10.1925 5.16403 10.0728 5.03714 9.92724 4.94618L6.62724 2.85618L7.72724 2.22618L12.7272 4.54618C12.8694 4.61982 13.0271 4.65826 13.1872 4.65826C13.3473 4.65826 13.5051 4.61982 13.6472 4.54618L16.2072 3.06618C16.7318 2.77218 17.3327 2.64263 17.9318 2.69434C18.531 2.74606 19.1008 2.97664 19.5672 3.35618L6.52724 10.8562Z" fill="#116380"/>
</svg>
