<svg width="23" height="23" viewBox="0 0 23 23" fill="none" xmlns="http://www.w3.org/2000/svg">
<path d="M15.2185 1.46959L7.41558 9.27249C4.15049 12.5458 1.67789 16.523 0.187171 20.8994C0.116081 21.1064 0.104758 21.3292 0.154503 21.5423C0.204247 21.7555 0.313044 21.9503 0.468421 22.1044L0.472499 22.1085C0.580624 22.2175 0.709221 22.3039 0.850895 22.363C0.992569 22.4221 1.14452 22.4525 1.29801 22.4527C1.42717 22.4526 1.55544 22.4313 1.6777 22.3897C6.05413 20.899 10.0313 18.4263 13.3046 15.1612L21.1073 7.35835C21.8881 6.57746 22.3269 5.51834 22.3269 4.41399C22.3269 3.30963 21.8882 2.25051 21.1073 1.46961C20.7206 1.08295 20.2616 0.776231 19.7564 0.56697C19.2512 0.357709 18.7097 0.250002 18.1629 0.25C17.0586 0.249996 15.9994 0.688694 15.2185 1.46959ZM12.2437 14.1006C9.29447 17.0421 5.74231 19.3089 1.8322 20.7447C3.26794 16.8346 5.53473 13.2824 8.47622 10.3331L13.1244 5.68496L16.8919 9.4524L12.2437 14.1006ZM20.0466 6.29771L17.9525 8.39176L14.1851 4.62432L16.2792 2.53023C16.5264 2.28226 16.8201 2.08547 17.1435 1.95112C17.4669 1.81677 17.8135 1.74748 18.1637 1.74723C18.5139 1.74698 18.8607 1.81576 19.1842 1.94965C19.5078 2.08354 19.8018 2.2799 20.0494 2.52751C20.297 2.77511 20.4933 3.06911 20.6272 3.39267C20.7611 3.71623 20.8299 4.06302 20.8296 4.41318C20.8294 4.76335 20.7601 5.11003 20.6257 5.4334C20.4914 5.75676 20.2946 6.05047 20.0466 6.29771Z" fill="#116380"/>
</svg>
