<svg width="20" height="21" viewBox="0 0 20 21" fill="none" xmlns="http://www.w3.org/2000/svg">
<path d="M19.2501 10.5C19.2519 11.7145 19.0138 12.9174 18.5496 14.0397C18.0855 15.162 17.4042 16.1816 16.5451 17.04C15.6857 17.8995 14.6653 18.5813 13.5423 19.0463C12.4192 19.5113 11.2156 19.7504 10.0001 19.75C8.69186 19.7532 7.39802 19.4771 6.2051 18.94L2.3381 19.512C2.1461 19.5433 1.94935 19.5274 1.76494 19.4654C1.58052 19.4034 1.41403 19.2974 1.2799 19.1565C1.14578 19.0155 1.0481 18.844 0.995326 18.6568C0.942555 18.4695 0.936298 18.2722 0.977099 18.082L1.5141 14.159C1.00454 13.0068 0.744184 11.7599 0.750099 10.5C0.748436 9.28552 0.986523 8.08265 1.45071 6.96037C1.91489 5.83809 2.59604 4.81848 3.4551 3.96C4.31449 3.10042 5.33486 2.41864 6.4579 1.95364C7.58093 1.48864 8.7846 1.24954 10.0001 1.25C12.4547 1.25016 14.8088 2.22491 16.5451 3.96C17.4038 4.81875 18.0847 5.83841 18.5489 6.96063C19.013 8.08284 19.2513 9.28558 19.2501 10.5Z" stroke="#116380" stroke-width="1.5" stroke-linecap="round" stroke-linejoin="round"/>
</svg>
