<svg width="16" height="23" viewBox="0 0 16 23" fill="none" xmlns="http://www.w3.org/2000/svg">
<path d="M14.9998 21.5V14.4C14.9996 13.4806 14.8183 12.5702 14.4662 11.7209C14.1141 10.8715 13.5982 10.0999 12.9478 9.45L10.9978 7.5V14.087C10.9978 14.977 9.92083 15.424 9.29083 14.794L7.99583 13.5C7.49583 13 6.29483 12.7 5.49383 13.5C4.69383 14.3 4.99383 15.5 5.49383 16L10.9978 21.5" stroke="#116380" stroke-width="2" stroke-linecap="round" stroke-linejoin="round"/>
<path d="M7 1.5H9C9.53043 1.5 10.0391 1.71071 10.4142 2.08579C10.7893 2.46086 11 2.96957 11 3.5V5.5M7 1.5C7 2.833 7.8 5.5 11 5.5M7 1.5H5M11 5.5V11.5M5 1.5H3C2.46957 1.5 1.96086 1.71071 1.58579 2.08579C1.21071 2.46086 1 2.96957 1 3.5V5.5M5 1.5C5 2.833 4.2 5.5 1 5.5M1 11.5V13.5C1 14.0304 1.21071 14.5391 1.58579 14.9142C1.96086 15.2893 2.46957 15.5 3 15.5H5C5 14.167 4.2 11.5 1 11.5ZM1 11.5V5.5" stroke="#116380" stroke-width="2" stroke-linecap="round" stroke-linejoin="round"/>
<path d="M5 8.5C5 9.05228 5.44772 9.5 6 9.5C6.55228 9.5 7 9.05228 7 8.5C7 7.94772 6.55228 7.5 6 7.5C5.44772 7.5 5 7.94772 5 8.5Z" stroke="#116380" stroke-width="2" stroke-linecap="round" stroke-linejoin="round"/>
</svg>
