<svg width="210" height="104" viewBox="0 0 210 104" fill="none" xmlns="http://www.w3.org/2000/svg">
<g clip-path="url(#clip0_1136_4170)">
<path d="M51.3333 0H4.66667C2.08934 0 0 2.12665 0 4.75V33.25C0 35.8734 2.08934 38 4.66667 38H51.3333C53.9107 38 56 35.8734 56 33.25V4.75C56 2.12665 53.9107 0 51.3333 0Z" fill="white"/>
<path d="M27.8358 13.5129L25.5024 24.5091H22.7258L25.0591 13.5129H27.8358ZM39.5024 20.6379L40.9724 16.5054L41.9991 20.6141L39.5024 20.6379ZM42.6291 24.5329H45.1958L42.8624 13.5366H40.5291C40.2744 13.5359 40.0252 13.6122 39.8133 13.756C39.6014 13.8998 39.4363 14.1045 39.3391 14.3441L35.1391 24.5329H38.0791L38.6624 22.8941H42.2324L42.6291 24.5329ZM35.3958 20.9229C35.3958 18.0254 31.4758 17.8591 31.4991 16.5766C31.4991 16.1729 31.8724 15.7454 32.6658 15.6504C33.6086 15.5602 34.5581 15.724 35.4191 16.1254L35.9091 13.7504C35.0798 13.4388 34.2031 13.278 33.3191 13.2754C30.5424 13.2754 28.6524 14.7716 28.6524 16.9091C28.6524 18.4766 30.0524 19.2841 31.1024 19.9016C32.1524 20.5191 32.5491 20.7804 32.5491 21.2554C32.5491 21.7304 31.6858 22.3241 30.8924 22.3241C29.8897 22.3693 28.8926 22.1483 27.9991 21.6829L27.4858 24.0579C28.4809 24.4257 29.5304 24.6184 30.5891 24.6279C33.5291 24.6279 35.4424 23.1554 35.4424 20.8754M23.8458 13.5129L19.3191 24.5091H16.3324L13.9991 15.7454C13.9766 15.5411 13.9053 15.3456 13.7914 15.1758C13.6775 15.0061 13.5245 14.8673 13.3458 14.7716C12.5121 14.3628 11.6353 14.052 10.7324 13.8454V13.5129H15.3991C15.7116 13.5153 16.0129 13.6316 16.2483 13.8408C16.4838 14.05 16.6378 14.3381 16.6824 14.6529L17.8724 20.9941L20.9991 13.5129H23.8458Z" fill="#2A2C6B"/>
</g>
<g clip-path="url(#clip1_1136_4170)">
<path d="M51.3333 76H4.66667C2.08934 76 0 78.1266 0 80.75V109.25C0 111.873 2.08934 114 4.66667 114H51.3333C53.9107 114 56 111.873 56 109.25V80.75C56 78.1266 53.9107 76 51.3333 76Z" fill="white"/>
<path d="M27.8358 89.5129L25.5024 100.509H22.7258L25.0591 89.5129H27.8358ZM39.5024 96.6379L40.9724 92.5054L41.9991 96.6141L39.5024 96.6379ZM42.6291 100.533H45.1958L42.8624 89.5366H40.5291C40.2744 89.5359 40.0252 89.6122 39.8133 89.756C39.6014 89.8998 39.4363 90.1045 39.3391 90.3441L35.1391 100.533H38.0791L38.6624 98.8941H42.2324L42.6291 100.533ZM35.3958 96.9229C35.3958 94.0254 31.4758 93.8591 31.4991 92.5766C31.4991 92.1729 31.8724 91.7454 32.6658 91.6504C33.6086 91.5602 34.5581 91.724 35.4191 92.1254L35.9091 89.7504C35.0798 89.4388 34.2031 89.278 33.3191 89.2754C30.5424 89.2754 28.6524 90.7716 28.6524 92.9091C28.6524 94.4766 30.0524 95.2841 31.1024 95.9016C32.1524 96.5191 32.5491 96.7804 32.5491 97.2554C32.5491 97.7304 31.6858 98.3241 30.8924 98.3241C29.8897 98.3693 28.8926 98.1483 27.9991 97.6829L27.4858 100.058C28.4809 100.426 29.5304 100.618 30.5891 100.628C33.5291 100.628 35.4424 99.1554 35.4424 96.8754M23.8458 89.5129L19.3191 100.509H16.3324L13.9991 91.7454C13.9766 91.5411 13.9053 91.3456 13.7914 91.1758C13.6775 91.0061 13.5245 90.8673 13.3458 90.7716C12.5121 90.3628 11.6353 90.052 10.7324 89.8454V89.5129H15.3991C15.7116 89.5153 16.0129 89.6316 16.2483 89.8408C16.4838 90.05 16.6378 90.3381 16.6824 90.6529L17.8724 96.9941L20.9991 89.5129H23.8458Z" fill="#2A2C6B"/>
</g>
<g clip-path="url(#clip2_1136_4170)">
<path d="M163.333 0H116.667C114.089 0 112 2.12665 112 4.75V33.25C112 35.8734 114.089 38 116.667 38H163.333C165.911 38 168 35.8734 168 33.25V4.75C168 2.12665 165.911 0 163.333 0Z" fill="white"/>
<path d="M139.836 13.5129L137.502 24.5091H134.726L137.059 13.5129H139.836ZM151.502 20.6379L152.972 16.5054L153.999 20.6141L151.502 20.6379ZM154.629 24.5329H157.196L154.862 13.5366H152.529C152.274 13.5359 152.025 13.6122 151.813 13.756C151.601 13.8998 151.436 14.1045 151.339 14.3441L147.139 24.5329H150.079L150.662 22.8941H154.232L154.629 24.5329ZM147.396 20.9229C147.396 18.0254 143.476 17.8591 143.499 16.5766C143.499 16.1729 143.872 15.7454 144.666 15.6504C145.609 15.5602 146.558 15.724 147.419 16.1254L147.909 13.7504C147.08 13.4388 146.203 13.278 145.319 13.2754C142.542 13.2754 140.652 14.7716 140.652 16.9091C140.652 18.4766 142.052 19.2841 143.102 19.9016C144.152 20.5191 144.549 20.7804 144.549 21.2554C144.549 21.7304 143.686 22.3241 142.892 22.3241C141.89 22.3693 140.893 22.1483 139.999 21.6829L139.486 24.0579C140.481 24.4257 141.53 24.6184 142.589 24.6279C145.529 24.6279 147.442 23.1554 147.442 20.8754M135.846 13.5129L131.319 24.5091H128.332L125.999 15.7454C125.977 15.5411 125.905 15.3456 125.791 15.1758C125.677 15.0061 125.524 14.8673 125.346 14.7716C124.512 14.3628 123.635 14.052 122.732 13.8454V13.5129H127.399C127.712 13.5153 128.013 13.6316 128.248 13.8408C128.484 14.05 128.638 14.3381 128.682 14.6529L129.872 20.9941L132.999 13.5129H135.846Z" fill="#2A2C6B"/>
</g>
<g clip-path="url(#clip3_1136_4170)">
<path d="M163.333 76H116.667C114.089 76 112 78.1266 112 80.75V109.25C112 111.873 114.089 114 116.667 114H163.333C165.911 114 168 111.873 168 109.25V80.75C168 78.1266 165.911 76 163.333 76Z" fill="white"/>
<path d="M139.836 89.5129L137.502 100.509H134.726L137.059 89.5129H139.836ZM151.502 96.6379L152.972 92.5054L153.999 96.6141L151.502 96.6379ZM154.629 100.533H157.196L154.862 89.5366H152.529C152.274 89.5359 152.025 89.6122 151.813 89.756C151.601 89.8998 151.436 90.1045 151.339 90.3441L147.139 100.533H150.079L150.662 98.8941H154.232L154.629 100.533ZM147.396 96.9229C147.396 94.0254 143.476 93.8591 143.499 92.5766C143.499 92.1729 143.872 91.7454 144.666 91.6504C145.609 91.5602 146.558 91.724 147.419 92.1254L147.909 89.7504C147.08 89.4388 146.203 89.278 145.319 89.2754C142.542 89.2754 140.652 90.7716 140.652 92.9091C140.652 94.4766 142.052 95.2841 143.102 95.9016C144.152 96.5191 144.549 96.7804 144.549 97.2554C144.549 97.7304 143.686 98.3241 142.892 98.3241C141.89 98.3693 140.893 98.1483 139.999 97.6829L139.486 100.058C140.481 100.426 141.53 100.618 142.589 100.628C145.529 100.628 147.442 99.1554 147.442 96.8754M135.846 89.5129L131.319 100.509H128.332L125.999 91.7454C125.977 91.5411 125.905 91.3456 125.791 91.1758C125.677 91.0061 125.524 90.8673 125.346 90.7716C124.512 90.3628 123.635 90.052 122.732 89.8454V89.5129H127.399C127.712 89.5153 128.013 89.6316 128.248 89.8408C128.484 90.05 128.638 90.3381 128.682 90.6529L129.872 96.9941L132.999 89.5129H135.846Z" fill="#2A2C6B"/>
</g>
<g clip-path="url(#clip4_1136_4170)">
<path d="M51.3333 38H4.66667C2.08934 38 0 40.1266 0 42.75V71.25C0 73.8734 2.08934 76 4.66667 76H51.3333C53.9107 76 56 73.8734 56 71.25V42.75C56 40.1266 53.9107 38 51.3333 38Z" fill="white"/>
<path d="M34 46.6855H22V67.3141H34V46.6855Z" fill="#F26324"/>
<path d="M23.5666 57.0004C23.5609 55.1137 23.9568 53.25 24.7245 51.5489C25.4922 49.8477 26.612 48.353 28 47.1767C26.2663 45.7313 24.185 44.8332 21.994 44.585C19.8029 44.3368 17.5902 44.7484 15.6088 45.7729C13.6273 46.7974 11.9569 48.3934 10.7883 50.3787C9.61969 52.364 9 54.6586 9 57.0004C9 59.3421 9.61969 61.6367 10.7883 63.622C11.9569 65.6073 13.6273 67.2034 15.6088 68.2278C17.5902 69.2523 19.8029 69.664 21.994 69.4157C24.185 69.1675 26.2663 68.2694 28 66.824C26.6094 65.6501 25.4878 64.156 24.7198 62.4542C23.9518 60.7525 23.5575 58.8877 23.5666 57.0004Z" fill="#E92328"/>
<path d="M46.8313 64.8122V64.4085H46.668V64.8122H46.8313ZM47.6246 64.8122V64.3135H47.508L47.368 64.6697L47.228 64.3135H47.088V64.8122V64.4322L47.228 64.741L47.368 64.4322V64.8122H47.6246Z" fill="#F59E21"/>
<path d="M47 57.0128C46.9943 59.3536 46.371 61.6458 45.2009 63.6285C44.0308 65.6112 42.361 67.2048 40.3813 68.2281C38.4016 69.2513 36.1917 69.6631 34.0029 69.4165C31.814 69.17 29.7342 68.275 28 66.8335C29.3964 65.6633 30.525 64.1716 31.301 62.4706C32.0771 60.7695 32.4802 58.9035 32.4802 57.0128C32.4802 55.1221 32.0771 53.2561 31.301 51.555C30.525 49.854 29.3964 48.3623 28 47.1921C29.7317 45.7411 31.8128 44.8381 34.0047 44.5866C36.1966 44.3352 38.4109 44.7454 40.3937 45.7703C42.3766 46.7952 44.0479 48.3934 45.2163 50.3817C46.3847 52.37 47.0029 54.6681 47 57.0128Z" fill="#F59E21"/>
</g>
<g clip-path="url(#clip5_1136_4170)">
<path d="M163.333 38H116.667C114.089 38 112 40.1266 112 42.75V71.25C112 73.8734 114.089 76 116.667 76H163.333C165.911 76 168 73.8734 168 71.25V42.75C168 40.1266 165.911 38 163.333 38Z" fill="white"/>
<path d="M146 46.6855H134V67.3141H146V46.6855Z" fill="#F26324"/>
<path d="M135.567 57.0004C135.561 55.1137 135.957 53.25 136.725 51.5489C137.492 49.8477 138.612 48.353 140 47.1767C138.266 45.7313 136.185 44.8332 133.994 44.585C131.803 44.3368 129.59 44.7484 127.609 45.7729C125.627 46.7974 123.957 48.3934 122.788 50.3787C121.62 52.364 121 54.6586 121 57.0004C121 59.3421 121.62 61.6367 122.788 63.622C123.957 65.6073 125.627 67.2034 127.609 68.2278C129.59 69.2523 131.803 69.664 133.994 69.4157C136.185 69.1675 138.266 68.2694 140 66.824C138.609 65.6501 137.488 64.156 136.72 62.4542C135.952 60.7525 135.558 58.8877 135.567 57.0004Z" fill="#E92328"/>
<path d="M158.831 64.8122V64.4085H158.668V64.8122H158.831ZM159.625 64.8122V64.3135H159.508L159.368 64.6697L159.228 64.3135H159.088V64.8122V64.4322L159.228 64.741L159.368 64.4322V64.8122H159.625Z" fill="#F59E21"/>
<path d="M159 57.0128C158.994 59.3536 158.371 61.6458 157.201 63.6285C156.031 65.6112 154.361 67.2048 152.381 68.2281C150.402 69.2513 148.192 69.6631 146.003 69.4165C143.814 69.17 141.734 68.275 140 66.8335C141.396 65.6633 142.525 64.1716 143.301 62.4706C144.077 60.7695 144.48 58.9035 144.48 57.0128C144.48 55.1221 144.077 53.2561 143.301 51.555C142.525 49.854 141.396 48.3623 140 47.1921C141.732 45.7411 143.813 44.8381 146.005 44.5866C148.197 44.3352 150.411 44.7454 152.394 45.7703C154.377 46.7952 156.048 48.3934 157.216 50.3817C158.385 52.37 159.003 54.6681 159 57.0128Z" fill="#F59E21"/>
</g>
<g clip-path="url(#clip6_1136_4170)">
<path d="M107.333 0H60.6667C58.0893 0 56 2.12665 56 4.75V33.25C56 35.8734 58.0893 38 60.6667 38H107.333C109.911 38 112 35.8734 112 33.25V4.75C112 2.12665 109.911 0 107.333 0Z" fill="white"/>
<path d="M89.9722 9.09473H78.0488V28.9022H89.9722V9.09473Z" fill="#7373B5"/>
<path d="M79.331 19.0104C79.325 17.1083 79.7417 15.2294 80.5498 13.5144C81.358 11.7994 82.5366 10.2925 83.9977 9.1066C82.1727 7.64944 79.982 6.74403 77.6756 6.49378C75.3692 6.24352 73.0402 6.65851 70.9545 7.69134C68.8688 8.72418 67.1105 10.3332 65.8804 12.3347C64.6503 14.3362 63.998 16.6495 63.998 19.0104C63.998 21.3712 64.6503 23.6845 65.8804 25.686C67.1105 27.6875 68.8688 29.2965 70.9545 30.3294C73.0402 31.3622 75.3692 31.7772 77.6756 31.5269C79.982 31.2767 82.1727 30.3713 83.9977 28.9141C82.5339 27.7306 81.3533 26.2243 80.5449 24.5087C79.7365 22.7931 79.3214 20.9131 79.331 19.0104Z" fill="#EC2227"/>
<path d="M102.831 26.8122V26.4085H102.668V26.8122H102.831ZM103.625 26.8122V26.3135H103.508L103.368 26.6697L103.228 26.3135H103.088V26.8122V26.4322L103.228 26.741L103.368 26.4322V26.8122H103.625Z" fill="#15A1DB"/>
<path d="M104.02 19.0121C104.014 21.3727 103.357 23.6842 102.124 25.6837C100.891 27.6832 99.1319 29.2903 97.046 30.3222C94.9601 31.3541 92.6315 31.7693 90.3251 31.5207C88.0188 31.2721 85.8273 30.3695 84 28.9158C85.4713 27.7357 86.6606 26.2314 87.4782 24.516C88.2959 22.8006 88.7207 20.9187 88.7207 19.0121C88.7207 17.1054 88.2959 15.2235 87.4782 13.5081C86.6606 11.7927 85.4713 10.2884 84 9.10829C85.8247 7.64498 88.0174 6.73439 90.3271 6.48081C92.6367 6.22723 94.9698 6.64091 97.0591 7.67448C99.1484 8.70805 100.909 10.3197 102.141 12.3249C103.372 14.33 104.023 16.6476 104.02 19.0121Z" fill="#15A1DB"/>
</g>
<g clip-path="url(#clip7_1136_4170)">
<path d="M107.333 76H60.6667C58.0893 76 56 78.1266 56 80.75V109.25C56 111.873 58.0893 114 60.6667 114H107.333C109.911 114 112 111.873 112 109.25V80.75C112 78.1266 109.911 76 107.333 76Z" fill="white"/>
<path d="M89.9722 85.0947H78.0488V104.902H89.9722V85.0947Z" fill="#7373B5"/>
<path d="M79.331 95.0104C79.325 93.1083 79.7417 91.2294 80.5498 89.5144C81.358 87.7994 82.5366 86.2925 83.9977 85.1066C82.1727 83.6494 79.982 82.744 77.6756 82.4938C75.3692 82.2435 73.0402 82.6585 70.9545 83.6913C68.8688 84.7242 67.1105 86.3332 65.8804 88.3347C64.6503 90.3362 63.998 92.6495 63.998 95.0104C63.998 97.3712 64.6503 99.6845 65.8804 101.686C67.1105 103.687 68.8688 105.297 70.9545 106.329C73.0402 107.362 75.3692 107.777 77.6756 107.527C79.982 107.277 82.1727 106.371 83.9977 104.914C82.5339 103.731 81.3533 102.224 80.5449 100.509C79.7365 98.7931 79.3214 96.9131 79.331 95.0104Z" fill="#EC2227"/>
<path d="M102.831 102.812V102.408H102.668V102.812H102.831ZM103.625 102.812V102.313H103.508L103.368 102.67L103.228 102.313H103.088V102.812V102.432L103.228 102.741L103.368 102.432V102.812H103.625Z" fill="#15A1DB"/>
<path d="M104.02 95.0121C104.014 97.3727 103.357 99.6842 102.124 101.684C100.891 103.683 99.1319 105.29 97.046 106.322C94.9601 107.354 92.6315 107.769 90.3251 107.521C88.0188 107.272 85.8273 106.37 84 104.916C85.4713 103.736 86.6606 102.231 87.4782 100.516C88.2959 98.8006 88.7207 96.9187 88.7207 95.0121C88.7207 93.1054 88.2959 91.2235 87.4782 89.5081C86.6606 87.7927 85.4713 86.2884 84 85.1083C85.8247 83.645 88.0174 82.7344 90.3271 82.4808C92.6367 82.2272 94.9698 82.6409 97.0591 83.6745C99.1484 84.7081 100.909 86.3197 102.141 88.3249C103.372 90.33 104.023 92.6476 104.02 95.0121Z" fill="#15A1DB"/>
</g>
<g clip-path="url(#clip8_1136_4170)">
<path d="M219.333 0H172.667C170.089 0 168 2.12665 168 4.75V33.25C168 35.8734 170.089 38 172.667 38H219.333C221.911 38 224 35.8734 224 33.25V4.75C224 2.12665 221.911 0 219.333 0Z" fill="white"/>
<path d="M201.972 9.09473H190.049V28.9022H201.972V9.09473Z" fill="#7373B5"/>
<path d="M191.331 19.0104C191.325 17.1083 191.742 15.2294 192.55 13.5144C193.358 11.7994 194.537 10.2925 195.998 9.1066C194.173 7.64944 191.982 6.74403 189.676 6.49378C187.369 6.24352 185.04 6.65851 182.955 7.69134C180.869 8.72418 179.111 10.3332 177.88 12.3347C176.65 14.3362 175.998 16.6495 175.998 19.0104C175.998 21.3712 176.65 23.6845 177.88 25.686C179.111 27.6875 180.869 29.2965 182.955 30.3294C185.04 31.3622 187.369 31.7772 189.676 31.5269C191.982 31.2767 194.173 30.3713 195.998 28.9141C194.534 27.7306 193.353 26.2243 192.545 24.5087C191.737 22.7931 191.321 20.9131 191.331 19.0104Z" fill="#EC2227"/>
<path d="M216.02 19.0121C216.014 21.3727 215.357 23.6842 214.124 25.6837C212.891 27.6832 211.132 29.2903 209.046 30.3222C206.96 31.3541 204.631 31.7693 202.325 31.5207C200.019 31.2721 197.827 30.3695 196 28.9158C197.471 27.7357 198.661 26.2314 199.478 24.516C200.296 22.8006 200.721 20.9187 200.721 19.0121C200.721 17.1054 200.296 15.2235 199.478 13.5081C198.661 11.7927 197.471 10.2884 196 9.10829C197.825 7.64498 200.017 6.73439 202.327 6.48081C204.637 6.22723 206.97 6.64091 209.059 7.67448C211.148 8.70805 212.909 10.3197 214.141 12.3249C215.372 14.33 216.023 16.6476 216.02 19.0121Z" fill="#15A1DB"/>
</g>
<g clip-path="url(#clip9_1136_4170)">
<path d="M107.333 38H60.6667C58.0893 38 56 40.1266 56 42.75V71.25C56 73.8734 58.0893 76 60.6667 76H107.333C109.911 76 112 73.8734 112 71.25V42.75C112 40.1266 109.911 38 107.333 38Z" fill="white"/>
<path d="M76.8589 51.0859H65.3789V63.2459H76.8589V51.0859Z" fill="white"/>
<path d="M89.7611 50.374H78.2578V64.3153H89.7611V50.374Z" fill="white"/>
<path d="M102.644 49.9229H91.1406V64.5766H102.644V49.9229Z" fill="white"/>
<path d="M93.4512 60.0634H96.4845C96.756 60.0073 96.9991 59.8545 97.1701 59.6326C97.3411 59.4106 97.4289 59.134 97.4178 58.8522C97.4211 58.5696 97.3308 58.2941 97.1614 58.07C96.9921 57.846 96.7537 57.6865 96.4845 57.6172H93.4512V60.0634Z" fill="#41A648"/>
<path d="M95.8324 42.7617C94.5947 42.7617 93.4077 43.2622 92.5325 44.153C91.6574 45.0438 91.1657 46.2519 91.1657 47.5117V52.4517H98.1657C99.659 52.4517 100.756 53.3067 100.756 54.6605C100.743 55.2297 100.516 55.7721 100.12 56.1746C99.7245 56.5772 99.1916 56.809 98.6324 56.8217V57.0117C98.9627 56.9773 99.2965 57.0126 99.6128 57.1154C99.9292 57.2182 100.221 57.3862 100.471 57.6091C100.721 57.832 100.922 58.1049 101.064 58.4108C101.205 58.7166 101.283 59.0489 101.292 59.3867C101.292 60.8117 100.009 61.7617 98.3291 61.7617H91.0957V71.2617H98.0024C99.2401 71.2617 100.427 70.7613 101.302 69.8705C102.177 68.9797 102.669 67.7715 102.669 66.5117V42.7617H95.8324Z" fill="#41A648"/>
<path d="M97.0912 54.9825C97.0939 54.7094 96.9979 54.4448 96.8215 54.239C96.6452 54.0332 96.4007 53.9006 96.1345 53.8662H93.4512V56.2412H96.1345C96.4024 56.201 96.647 56.0634 96.8229 55.8538C96.9987 55.6442 97.0941 55.3769 97.0912 55.1012V54.9825Z" fill="#41A648"/>
<path d="M69.9987 42.7617C68.761 42.7617 67.574 43.2622 66.6989 44.153C65.8237 45.0438 65.332 46.2519 65.332 47.5117V59.2205C66.5699 59.8898 67.9441 60.2558 69.3454 60.2892C69.6652 60.3121 69.9863 60.2676 70.2885 60.1585C70.5907 60.0494 70.8676 59.8781 71.1019 59.6552C71.3362 59.4324 71.5228 59.1628 71.6501 58.8632C71.7775 58.5637 71.8428 58.2406 71.842 57.9142V52.428H75.8787V57.9142C75.8787 60.0755 74.6654 61.7617 70.1387 61.7617C68.5655 61.7534 66.9989 61.554 65.472 61.168V71.2617H72.192C73.4297 71.2617 74.6167 70.7613 75.4919 69.8705C76.367 68.9797 76.8587 67.7715 76.8587 66.5117V42.7617H69.9987Z" fill="#0F68B0"/>
<path d="M82.9245 42.7617C81.6868 42.7617 80.4998 43.2622 79.6246 44.153C78.7495 45.0438 78.2578 46.2519 78.2578 47.5117V53.7342C80.1882 52.4325 82.5251 51.9077 84.8145 52.2617C86.0499 52.3398 87.2759 52.5305 88.4778 52.8317V54.8505C87.382 54.2495 86.1729 53.8932 84.9311 53.8055C82.4111 53.6155 80.9178 54.8742 80.9178 57.0592C80.9178 59.2442 82.4111 60.5267 84.9311 60.313C86.1711 60.215 87.3782 59.8593 88.4778 59.268V61.2867C87.2771 61.5938 86.0505 61.7847 84.8145 61.8567C82.5193 62.1969 80.1819 61.655 78.2578 60.3367V71.2617H85.1178C86.3555 71.2617 87.5425 70.7613 88.4177 69.8705C89.2928 68.9797 89.7845 67.7715 89.7845 66.5117V42.7617H82.9245Z" fill="#BE2335"/>
</g>
<g clip-path="url(#clip10_1136_4170)">
<path d="M219.333 38H172.667C170.089 38 168 40.1266 168 42.75V71.25C168 73.8734 170.089 76 172.667 76H219.333C221.911 76 224 73.8734 224 71.25V42.75C224 40.1266 221.911 38 219.333 38Z" fill="white"/>
<path d="M188.859 51.0859H177.379V63.2459H188.859V51.0859Z" fill="white"/>
<path d="M201.761 50.374H190.258V64.3153H201.761V50.374Z" fill="white"/>
<path d="M214.644 49.9229H203.141V64.5766H214.644V49.9229Z" fill="white"/>
<path d="M205.451 60.0634H208.484C208.756 60.0073 208.999 59.8545 209.17 59.6326C209.341 59.4106 209.429 59.134 209.418 58.8522C209.421 58.5696 209.331 58.2941 209.161 58.07C208.992 57.846 208.754 57.6865 208.484 57.6172H205.451V60.0634Z" fill="#41A648"/>
<path d="M207.832 42.7617C206.595 42.7617 205.408 43.2622 204.533 44.153C203.657 45.0438 203.166 46.2519 203.166 47.5117V52.4517H210.166C211.659 52.4517 212.756 53.3067 212.756 54.6605C212.743 55.2297 212.516 55.7721 212.12 56.1746C211.724 56.5772 211.192 56.809 210.632 56.8217V57.0117C210.963 56.9773 211.296 57.0126 211.613 57.1154C211.929 57.2182 212.221 57.3862 212.471 57.6091C212.721 57.832 212.922 58.1049 213.064 58.4108C213.205 58.7166 213.283 59.0489 213.292 59.3867C213.292 60.8117 212.009 61.7617 210.329 61.7617H203.096V71.2617H210.002C211.24 71.2617 212.427 70.7613 213.302 69.8705C214.177 68.9797 214.669 67.7715 214.669 66.5117V42.7617H207.832Z" fill="#41A648"/>
<path d="M209.091 54.9825C209.094 54.7094 208.998 54.4448 208.822 54.239C208.645 54.0332 208.401 53.9006 208.134 53.8662H205.451V56.2412H208.134C208.402 56.201 208.647 56.0634 208.823 55.8538C208.999 55.6442 209.094 55.3769 209.091 55.1012V54.9825Z" fill="#41A648"/>
<path d="M181.999 42.7617C180.761 42.7617 179.574 43.2622 178.699 44.153C177.824 45.0438 177.332 46.2519 177.332 47.5117V59.2205C178.57 59.8898 179.944 60.2558 181.345 60.2892C181.665 60.3121 181.986 60.2676 182.289 60.1585C182.591 60.0494 182.868 59.8781 183.102 59.6552C183.336 59.4324 183.523 59.1628 183.65 58.8632C183.777 58.5637 183.843 58.2406 183.842 57.9142V52.428H187.879V57.9142C187.879 60.0755 186.665 61.7617 182.139 61.7617C180.565 61.7534 178.999 61.554 177.472 61.168V71.2617H184.192C185.43 71.2617 186.617 70.7613 187.492 69.8705C188.367 68.9797 188.859 67.7715 188.859 66.5117V42.7617H181.999Z" fill="#0F68B0"/>
<path d="M194.924 42.7617C193.687 42.7617 192.5 43.2622 191.625 44.153C190.749 45.0438 190.258 46.2519 190.258 47.5117V53.7342C192.188 52.4325 194.525 51.9077 196.814 52.2617C198.05 52.3398 199.276 52.5305 200.478 52.8317V54.8505C199.382 54.2495 198.173 53.8932 196.931 53.8055C194.411 53.6155 192.918 54.8742 192.918 57.0592C192.918 59.2442 194.411 60.5267 196.931 60.313C198.171 60.215 199.378 59.8593 200.478 59.268V61.2867C199.277 61.5938 198.051 61.7847 196.814 61.8567C194.519 62.1969 192.182 61.655 190.258 60.3367V71.2617H197.118C198.355 71.2617 199.542 70.7613 200.418 69.8705C201.293 68.9797 201.784 67.7715 201.784 66.5117V42.7617H194.924Z" fill="#BE2335"/>
</g>
<g clip-path="url(#clip11_1136_4170)">
<path d="M219.333 76H172.667C170.089 76 168 78.1266 168 80.75V109.25C168 111.873 170.089 114 172.667 114H219.333C221.911 114 224 111.873 224 109.25V80.75C224 78.1266 221.911 76 219.333 76Z" fill="white"/>
<path d="M188.859 89.0859H177.379V101.246H188.859V89.0859Z" fill="white"/>
<path d="M201.761 88.374H190.258V102.315H201.761V88.374Z" fill="white"/>
<path d="M214.644 87.9229H203.141V102.577H214.644V87.9229Z" fill="white"/>
<path d="M205.451 98.0634H208.484C208.756 98.0073 208.999 97.8545 209.17 97.6326C209.341 97.4106 209.429 97.134 209.418 96.8522C209.421 96.5696 209.331 96.2941 209.161 96.07C208.992 95.846 208.754 95.6865 208.484 95.6172H205.451V98.0634Z" fill="#41A648"/>
<path d="M207.832 80.7617C206.595 80.7617 205.408 81.2622 204.533 82.153C203.657 83.0438 203.166 84.2519 203.166 85.5117V90.4517H210.166C211.659 90.4517 212.756 91.3067 212.756 92.6605C212.743 93.2297 212.516 93.7721 212.12 94.1746C211.724 94.5772 211.192 94.809 210.632 94.8217V95.0117C210.963 94.9773 211.296 95.0126 211.613 95.1154C211.929 95.2182 212.221 95.3862 212.471 95.6091C212.721 95.832 212.922 96.1049 213.064 96.4108C213.205 96.7166 213.283 97.0489 213.292 97.3867C213.292 98.8117 212.009 99.7617 210.329 99.7617H203.096V109.262H210.002C211.24 109.262 212.427 108.761 213.302 107.87C214.177 106.98 214.669 105.772 214.669 104.512V80.7617H207.832Z" fill="#41A648"/>
<path d="M209.091 92.9825C209.094 92.7094 208.998 92.4448 208.822 92.239C208.645 92.0332 208.401 91.9006 208.134 91.8662H205.451V94.2412H208.134C208.402 94.201 208.647 94.0634 208.823 93.8538C208.999 93.6442 209.094 93.3769 209.091 93.1012V92.9825Z" fill="#41A648"/>
<path d="M181.999 80.7617C180.761 80.7617 179.574 81.2622 178.699 82.153C177.824 83.0438 177.332 84.2519 177.332 85.5117V97.2205C178.57 97.8898 179.944 98.2558 181.345 98.2892C181.665 98.3121 181.986 98.2676 182.289 98.1585C182.591 98.0494 182.868 97.8781 183.102 97.6552C183.336 97.4324 183.523 97.1628 183.65 96.8632C183.777 96.5637 183.843 96.2406 183.842 95.9142V90.428H187.879V95.9142C187.879 98.0755 186.665 99.7617 182.139 99.7617C180.565 99.7534 178.999 99.554 177.472 99.168V109.262H184.192C185.43 109.262 186.617 108.761 187.492 107.87C188.367 106.98 188.859 105.772 188.859 104.512V80.7617H181.999Z" fill="#0F68B0"/>
<path d="M194.924 80.7617C193.687 80.7617 192.5 81.2622 191.625 82.153C190.749 83.0438 190.258 84.2519 190.258 85.5117V91.7342C192.188 90.4325 194.525 89.9077 196.814 90.2617C198.05 90.3398 199.276 90.5305 200.478 90.8317V92.8505C199.382 92.2495 198.173 91.8932 196.931 91.8055C194.411 91.6155 192.918 92.8742 192.918 95.0592C192.918 97.2442 194.411 98.5267 196.931 98.313C198.171 98.215 199.378 97.8593 200.478 97.268V99.2867C199.277 99.5938 198.051 99.7847 196.814 99.8567C194.519 100.197 192.182 99.655 190.258 98.3367V109.262H197.118C198.355 109.262 199.542 108.761 200.418 107.87C201.293 106.98 201.784 105.772 201.784 104.512V80.7617H194.924Z" fill="#BE2335"/>
</g>
<defs>
<clipPath id="clip0_1136_4170">
<path d="M0 12C0 5.37258 5.37258 0 12 0H56V38H0V12Z" fill="white"/>
</clipPath>
<clipPath id="clip1_1136_4170">
<path d="M0 76H54V104H12C5.37258 104 0 98.6274 0 92V76Z" fill="white"/>
</clipPath>
<clipPath id="clip2_1136_4170">
<rect width="49" height="38" fill="white" transform="translate(112)"/>
</clipPath>
<clipPath id="clip3_1136_4170">
<rect width="54" height="28" fill="white" transform="translate(108 76)"/>
</clipPath>
<clipPath id="clip4_1136_4170">
<rect width="56" height="38" fill="white" transform="translate(0 38)"/>
</clipPath>
<clipPath id="clip5_1136_4170">
<rect width="49" height="38" fill="white" transform="translate(112 38)"/>
</clipPath>
<clipPath id="clip6_1136_4170">
<rect width="56" height="38" fill="white" transform="translate(56)"/>
</clipPath>
<clipPath id="clip7_1136_4170">
<rect width="54" height="28" fill="white" transform="translate(54 76)"/>
</clipPath>
<clipPath id="clip8_1136_4170">
<path d="M161 0H198C204.627 0 210 5.37258 210 12V38H161V0Z" fill="white"/>
</clipPath>
<clipPath id="clip9_1136_4170">
<rect width="56" height="38" fill="white" transform="translate(56 38)"/>
</clipPath>
<clipPath id="clip10_1136_4170">
<rect width="49" height="38" fill="white" transform="translate(161 38)"/>
</clipPath>
<clipPath id="clip11_1136_4170">
<path d="M161 76H210V92C210 98.6274 204.627 104 198 104H161V76Z" fill="white"/>
</clipPath>
</defs>
</svg>
