<svg width="176" height="176" viewBox="0 0 176 176" fill="none" xmlns="http://www.w3.org/2000/svg">
<path d="M41.9129 60.5005C41.9129 57.7395 39.6221 55.501 36.7951 55.501C33.9709 55.501 31.6719 57.7395 31.6719 60.5005V75.499H41.9156L41.9129 60.5005ZM144.328 60.5005C144.328 57.7395 142.035 55.501 139.205 55.501C136.384 55.501 134.087 57.7395 134.087 60.5005V75.499H144.331L144.328 60.5005Z" fill="white"/>
<path d="M162.25 21.8901C160.802 19.2333 159.087 16.7307 157.132 14.4211C158.837 12.1688 160.545 10.2796 162.25 9.10808C155.427 5.26908 148.596 12.9416 141.771 9.10808V7.99983C141.771 6.62483 140.618 5.50008 139.205 5.50008C138.535 5.49491 137.89 5.7547 137.41 6.22289C136.931 6.69107 136.656 7.32974 136.645 7.99983V33.0001L118.723 50.5011H123.841V80.4981H113.6V60.5001H118.72L90.5602 33.0001V21.8901C97.3913 25.7291 104.22 18.0566 111.045 21.8901C109.596 19.2324 107.879 16.7298 105.922 14.4211C107.632 12.1688 109.337 10.2796 111.045 9.10808C104.22 5.26908 97.3913 12.9416 90.5602 9.10808V7.99983C90.5602 6.62483 89.4108 5.50008 88 5.50008C87.3298 5.49491 86.6848 5.7547 86.2053 6.22289C85.7258 6.69107 85.4506 7.32974 85.4398 7.99983V33.0001L57.2743 60.5001H62.3947V80.4981H52.1538V50.5011H57.2715L39.3552 33.0001V21.8901C46.1808 25.7291 53.009 18.0566 59.8373 21.8901C58.3882 19.2331 56.6725 16.7306 54.7167 14.4211C56.4217 12.1688 58.1323 10.2796 59.8373 9.10808C53.009 5.26908 46.1808 12.9416 39.3552 9.10808V7.99983C39.3552 6.62483 38.203 5.50008 36.795 5.50008C35.387 5.50008 34.232 6.62483 34.232 7.99983V33.0001L16.3075 50.5011H21.4252V80.4981C17.1957 80.4981 13.75 83.8641 13.75 88.0001V97.9991C13.75 100.691 15.1085 103.901 17.0583 105.804L18.5598 107.269C18.6368 107.382 18.843 107.866 18.8733 108.094L18.8678 162.998C18.8678 167.134 22.3135 170.5 26.5512 170.5H72.6357V160.504H75.1933V165.501C75.1933 165.501 76.8515 168 77.7562 168C78.661 168 80.3165 165.501 80.3165 165.501V160.504H85.4398V165.501C85.4398 165.501 87.0953 168 88 168C88.9047 168 90.5602 165.501 90.5602 165.501V160.504H95.6835V165.501C95.6835 165.501 97.339 168 98.2437 168C99.1485 168 100.807 165.501 100.807 165.501V160.504H103.364V170.5H149.449C153.687 170.5 157.132 167.134 157.132 162.998V107.998C157.157 107.863 157.363 107.379 157.509 107.198L158.942 105.801C160.892 103.901 162.25 100.691 162.25 97.9991V88.0001C162.25 83.8641 158.804 80.4981 154.569 80.4981V50.5011H159.69L141.771 33.0001V21.8901C148.596 25.7291 155.427 18.0593 162.25 21.8901ZM67.5207 60.5001H108.485V82.4478C107.686 83.1367 107.044 83.9887 106.602 84.9464C106.16 85.9041 105.928 86.9453 105.922 88.0001V95.5021H100.807V88.0001C100.807 84.7441 98.659 81.9968 95.6862 80.9601V75.4986C95.6862 71.3571 92.2487 67.9993 88.0027 67.9993C83.7622 67.9993 80.3193 71.3571 80.3193 75.4986V80.9601C77.3465 81.9968 75.1987 84.7441 75.1987 88.0001V95.5021H70.0838V88.0001C70.0838 85.7891 69.0828 83.8228 67.5235 82.4478V60.5001H67.5207ZM26.5512 50.5011H47.0305V82.4478C45.474 83.8228 44.473 85.7891 44.473 88.0001V95.5021H39.3525V88.0001C39.3525 83.8641 35.9067 80.4981 31.669 80.4981H26.5512V50.5011ZM75.196 155.502H72.6385V150.502H75.196V155.502ZM75.196 145.5H72.6385V140.5H75.196V145.5ZM75.196 135.498H72.6385C72.6385 133.741 72.9658 132.066 73.5322 130.499H75.1933L75.196 135.498ZM85.4398 155.502H80.3165V150.502H85.4398V155.502ZM85.4398 145.5H80.3165V140.5H85.4398V145.5ZM85.4398 135.498H80.3165V130.499H85.4398V135.498ZM80.3165 125.499V122.529C81.9052 121.632 83.6395 121.023 85.4398 120.728V125.499H80.3165ZM95.6835 155.502H90.5602V150.502H95.6835V155.502ZM95.6835 145.5H90.5602V140.5H95.6835V145.5ZM95.6835 135.498H90.5602V130.499H95.6835V135.498ZM90.5602 125.499V120.725C92.3606 121.02 94.095 121.629 95.6835 122.526V125.496H90.5602V125.499ZM100.804 140.5H103.361V145.5H100.804V140.5ZM100.804 135.498V130.499H102.465C103.031 132.066 103.359 133.744 103.359 135.498H100.804ZM100.804 155.502V150.502H103.361V155.502H100.804ZM157.132 88.0001V97.9991C157.132 99.3741 156.316 101.296 155.32 102.27L153.821 103.733C153.742 103.815 153.667 103.934 153.585 104.03C153.141 103.665 152.586 103.46 152.012 103.45H141.771C140.363 103.45 139.205 104.574 139.205 105.947V110.946C139.205 112.321 140.363 113.449 141.771 113.449H152.012V130.496H143.049C142.379 130.491 141.733 130.751 141.254 131.22C140.774 131.688 140.499 132.328 140.489 132.998V137.995C140.489 139.37 141.644 140.495 143.049 140.495H152.012V162.995C152.012 164.37 150.862 165.495 149.449 165.495H128.645C129.316 165.502 129.962 165.242 130.442 164.774C130.923 164.306 131.198 163.666 131.208 162.995V157.996C131.208 156.621 130.056 155.499 128.645 155.499H118.404C116.999 155.499 115.841 156.621 115.841 157.996V162.995C115.841 164.37 116.999 165.495 118.404 165.495H108.482V135.498C108.482 124.457 99.3135 115.5 88 115.5C76.6893 115.5 67.5207 124.457 67.5207 135.498V165.498H63.1482C63.8189 165.504 64.4646 165.244 64.9448 164.776C65.4249 164.308 65.7004 163.669 65.7113 162.998V157.999C65.7113 156.624 64.5535 155.502 63.1482 155.502H52.9045C52.2342 155.494 51.5883 155.753 51.1084 156.221C50.6285 156.689 50.3537 157.328 50.3442 157.999V162.998C50.3442 164.373 51.4938 165.498 52.9045 165.498H26.5512C25.8806 165.504 25.2349 165.244 24.7547 164.776C24.2746 164.308 23.9991 163.669 23.9882 162.998V155.499H32.9505C34.3613 155.499 35.5107 154.371 35.5107 152.996V148C35.5107 146.625 34.3613 145.5 32.9505 145.5H23.991V125.499H32.9532C33.6236 125.506 34.2695 125.248 34.7494 124.78C35.2293 124.312 35.5041 123.672 35.5135 123.002V118.003C35.5135 116.628 34.364 115.503 32.9532 115.503H23.991V108.001C23.991 106.626 23.177 104.706 22.1815 103.733L20.6827 102.27C19.6872 101.296 18.8705 99.3741 18.8705 97.9991V88.0001C18.8705 86.6251 20.0283 85.5003 21.4308 85.5003H31.6745C33.088 85.5003 34.2375 86.6251 34.2375 88.0001V97.9991C34.2375 99.3741 35.3925 100.502 36.8005 100.502H47.0387C48.4522 100.502 49.599 99.3741 49.599 97.9991V88.0001C49.599 86.6251 50.7567 85.5003 52.1647 85.5003H62.4058C63.8165 85.5003 64.966 86.6251 64.966 88.0001V97.9991C64.966 99.3741 66.1237 100.502 67.5317 100.502H77.77C79.1808 100.502 80.3303 99.3741 80.3303 97.9991V88.0001C80.3303 86.6251 81.488 85.5003 82.8932 85.5003H93.137C94.5478 85.5003 95.7 86.6251 95.7 88.0001V97.9991C95.7 99.3741 96.855 100.502 98.2602 100.502H108.501C109.912 100.502 111.064 99.3741 111.064 97.9991V88.0001C111.064 86.6251 112.219 85.5003 113.625 85.5003H123.866C125.276 85.5003 126.431 86.6251 126.431 88.0001V97.9991C126.431 99.3741 127.586 100.502 128.991 100.502H139.23C140.643 100.502 141.796 99.3741 141.796 97.9991V88.0001C141.796 86.6251 142.948 85.5003 144.356 85.5003H154.597C155.263 85.4988 155.904 85.7606 156.379 86.2287C156.853 86.6968 157.124 87.3334 157.132 88.0001ZM149.449 50.5011V80.4981H144.331C140.093 80.4981 136.647 83.8641 136.647 88.0001V95.5021H131.527V88.0001C131.527 85.7891 130.529 83.8228 128.969 82.4478V50.5011H149.449Z" fill="white"/>
<path d="M40.6321 130.499H30.3939C29.7225 130.493 29.0761 130.753 28.5954 131.222C28.1148 131.69 27.839 132.33 27.8281 133.001V137.998C27.8281 139.373 28.9859 140.498 30.3939 140.498H40.6321C41.3027 140.505 41.9486 140.245 42.4284 139.777C42.9083 139.308 43.183 138.669 43.1924 137.998V133.001C43.1924 131.626 42.0429 130.499 40.6321 130.499ZM57.7564 143H47.5154C46.8447 142.995 46.199 143.254 45.7189 143.722C45.2388 144.191 44.9632 144.83 44.9524 145.5V150.5C44.9524 151.875 46.1074 152.997 47.5154 152.997H57.7564C58.4268 153.003 59.0725 152.745 59.5527 152.277C60.0329 151.809 60.3085 151.17 60.3194 150.5V145.5C60.3194 144.125 59.1644 143 57.7564 143ZM63.1491 123.002H52.9054C52.2353 122.996 51.5898 123.255 51.11 123.723C50.6303 124.191 50.3553 124.829 50.3451 125.499V130.499C50.3451 131.874 51.4946 133.001 52.9054 133.001H63.1491C64.5544 133.001 65.7121 131.874 65.7121 130.499V125.499C65.7121 124.127 64.5544 123.002 63.1491 123.002ZM55.9964 115.327C57.4044 115.327 58.5594 114.2 58.5594 112.825V107.828C58.5594 106.453 57.4044 105.328 55.9964 105.328H45.7526C45.082 105.322 44.4362 105.582 43.9561 106.05C43.476 106.518 43.2005 107.157 43.1896 107.828V112.825C43.1896 114.2 44.3474 115.327 45.7526 115.327H55.9964ZM132.809 148V152.997C132.809 154.372 133.964 155.499 135.37 155.499H145.611C147.021 155.499 148.174 154.372 148.174 152.997V148C148.174 146.625 147.021 145.5 145.611 145.5H135.37C134.699 145.495 134.054 145.755 133.575 146.223C133.095 146.691 132.82 147.33 132.809 148ZM136.646 124.738V119.738C136.635 119.068 136.361 118.429 135.881 117.96C135.401 117.492 134.756 117.233 134.085 117.238H123.842C123.171 117.233 122.526 117.493 122.047 117.961C121.567 118.429 121.292 119.068 121.281 119.738V124.738C121.281 126.113 122.436 127.237 123.842 127.237H134.085C134.756 127.244 135.402 126.985 135.882 126.516C136.362 126.048 136.636 125.408 136.646 124.738ZM123.844 134.25H113.603C112.933 134.245 112.288 134.505 111.809 134.973C111.329 135.441 111.054 136.08 111.043 136.75V141.749C111.043 143.124 112.198 144.246 113.603 144.246H123.844C124.515 144.254 125.162 143.995 125.642 143.527C126.123 143.059 126.399 142.42 126.41 141.749V136.75C126.399 136.079 126.122 135.44 125.642 134.972C125.161 134.503 124.515 134.244 123.844 134.25ZM114.885 113.452V108.452C114.885 107.077 113.733 105.95 112.322 105.95H102.081C101.41 105.945 100.765 106.205 100.285 106.674C99.8056 107.142 99.5308 107.782 99.5206 108.452V113.452C99.5206 114.824 100.676 115.949 102.081 115.949H112.325C112.995 115.955 113.64 115.695 114.119 115.228C114.599 114.76 114.874 114.122 114.885 113.452Z" fill="white"/>
</svg>
