<svg width="160" height="160" viewBox="0 0 160 160" fill="none" xmlns="http://www.w3.org/2000/svg">
<path d="M113.334 126.667V33.3337H46.6673V126.667H113.334ZM113.334 6.66699C116.87 6.66699 120.262 8.07175 122.762 10.5722C125.263 13.0727 126.667 16.4641 126.667 20.0003V140C126.667 143.537 125.263 146.928 122.762 149.428C120.262 151.929 116.87 153.334 113.334 153.334H46.6673C43.1311 153.334 39.7397 151.929 37.2392 149.428C34.7387 146.928 33.334 143.537 33.334 140V20.0003C33.334 12.6003 39.2673 6.66699 46.6673 6.66699H113.334ZM60.0007 46.667H100.001V60.0003H60.0007V46.667ZM60.0007 73.3337H86.6673V86.667H60.0007V73.3337Z" fill="white"/>
</svg>
