<svg width="158" height="158" viewBox="0 0 158 158" fill="none" xmlns="http://www.w3.org/2000/svg">
<path d="M6.58398 26.333H151.417V39.4997H6.58398V26.333ZM6.58398 118.5H151.417V131.666H6.58398V118.5ZM129.179 98.1835L128.033 92.456H115.202L113.162 98.1374L102.878 98.1638C109.495 82.3177 114.399 70.5796 117.599 62.9429C118.435 60.9548 119.923 59.9409 122.108 59.9541C123.78 59.9673 126.513 59.9673 130.305 59.9541L138.251 98.1703L129.179 98.1835ZM118.092 84.6087H126.361L123.267 70.257L118.092 84.6087ZM51.8247 59.9475L62.1605 59.9607L46.1827 98.1835L35.7152 98.1769C32.18 84.5494 29.5796 74.4374 27.9206 67.8607C27.4137 65.8396 26.4064 64.4308 24.4577 63.7658C22.7263 63.1733 19.8428 62.2517 15.8007 61.0074V59.9541H32.3182C35.1754 59.9541 36.841 61.3366 37.3808 64.1674L41.4625 85.82L51.8247 59.9475ZM76.3607 59.9607L68.1974 98.1769L58.3553 98.1638L66.5187 59.9475L76.3607 59.9607ZM96.3214 59.2497C99.2576 59.2497 102.971 60.1582 105.104 61.0074L103.379 68.9338C101.45 68.1569 98.2767 67.1102 95.6104 67.1563C91.7262 67.2155 89.3299 68.8416 89.3299 70.4018C89.3299 72.9298 93.4906 74.207 97.7829 76.9786C102.674 80.1386 103.313 82.9694 103.26 86.0504C103.188 92.4428 97.7829 98.7497 86.374 98.7497C81.1666 98.6707 79.2903 98.2362 75.0507 96.7352L76.8413 88.4665C81.16 90.2703 82.9967 90.8431 86.6834 90.8431C90.0738 90.8431 92.9771 89.4803 93.0034 87.1038C93.0166 85.4118 91.983 84.5758 88.1844 82.4823C84.3858 80.3953 79.0599 77.5053 79.1323 71.6856C79.2179 64.2464 86.295 59.2497 96.3214 59.2497Z" fill="white"/>
</svg>
