<svg width="25" height="24" viewBox="0 0 25 24" fill="none" xmlns="http://www.w3.org/2000/svg">
<g clip-path="url(#clip0_927_3102)">
<path d="M0.653063 5.43997C0.704142 5.11552 0.852636 4.81426 1.07885 4.57614C1.30507 4.33801 1.59833 4.17427 1.91973 4.10663L5.83306 3.24663C6.25272 3.15511 6.68714 3.15477 7.10694 3.24563C7.52675 3.33649 7.92214 3.51644 8.2664 3.7733L19.8331 12.2L23.0731 12.0666C23.3335 12.0573 23.5903 12.1303 23.8069 12.2752C24.0235 12.4201 24.189 12.6296 24.2798 12.8739C24.3705 13.1182 24.382 13.3849 24.3126 13.6361C24.2432 13.8873 24.0964 14.1103 23.8931 14.2733L20.5597 16.8933C20.1597 17.38 19.8931 17.2866 13.2731 13.68L12.6531 19.96C12.6427 20.1313 12.584 20.2961 12.4837 20.4354C12.3834 20.5747 12.2456 20.6826 12.0864 20.7466C11.9718 20.7919 11.8496 20.8145 11.7264 20.8133C11.4785 20.8057 11.2416 20.7086 11.0597 20.54L9.4664 19.0866C9.30774 18.9396 9.20028 18.7457 9.15973 18.5333L7.69973 10.6C5.31973 9.26663 3.06639 8.0133 1.45973 7.09997C1.17228 6.93828 0.941034 6.69271 0.796886 6.39607C0.65274 6.09944 0.602564 5.76588 0.653063 5.43997ZM2.11973 5.93997C3.7864 6.88663 6.11973 8.2133 8.6264 9.58663L8.89973 9.73997L10.4531 18.1866L11.4331 19.08L12.1664 11.5466L13.0531 12C17.8331 14.6666 19.4264 15.44 19.9731 15.68L22.8397 13.4066L19.4531 13.5533L7.45306 4.84663C7.26444 4.70562 7.04818 4.606 6.81842 4.55431C6.58866 4.50261 6.35057 4.5 6.11973 4.54663L2.21973 5.38663C2.15963 5.39753 2.10459 5.42734 2.06261 5.47171C2.02064 5.51608 1.99394 5.57269 1.9864 5.6333C1.97267 5.69196 1.97824 5.75348 2.00225 5.80872C2.02628 5.86397 2.06747 5.91 2.11973 5.93997Z" fill="#116380"/>
<path d="M19.8342 8.36017L17.4609 9.02684L16.3676 8.2335L19.0342 7.46017L17.8342 6.72684L14.1876 6.62017L12.6542 5.50684L17.8342 5.66684C17.9976 5.658 18.1599 5.69742 18.3009 5.78017L20.0542 6.80017C20.1992 6.88604 20.3155 7.0129 20.3885 7.16476C20.4614 7.31662 20.4878 7.48668 20.4643 7.65351C20.4408 7.82034 20.3684 7.97647 20.2563 8.10223C20.1441 8.22798 19.9973 8.31773 19.8342 8.36017Z" fill="#116380"/>
</g>
<defs>
<clipPath id="clip0_927_3102">
<rect width="24" height="24" fill="white" transform="matrix(-1 0 0 1 24.5 0)"/>
</clipPath>
</defs>
</svg>
