<svg width="80" height="80" viewBox="0 0 80 80" fill="none" xmlns="http://www.w3.org/2000/svg">
<circle cx="40" cy="40" r="40" fill="#116380"/>
<path d="M21.002 26C21.0062 28.355 20.9791 30.4728 21.0457 32.5865C21.0561 32.902 21.4493 33.2732 21.7571 33.498C24.8254 35.754 28.3618 36.9232 32.0375 37.7047C40.1503 39.4328 48.3275 39.3957 56.5194 38.4141C62.5873 37.6862 68.5388 36.4345 74.1574 33.9702C75.8257 33.2381 77.3734 32.2401 78.9876 31.3843C79.7053 31.0028 80.0381 30.4831 79.9425 29.6438C79.8655 28.9716 79.9237 28.2828 79.9237 27.5734C78.2845 28.357 76.7493 29.2046 75.1309 29.8459C69.6101 32.038 63.7938 32.9103 57.909 33.3351C49.4737 33.9434 41.0947 33.5433 32.8467 31.5595C28.6176 30.5408 24.5592 29.1056 21.002 26Z" fill="#F5F9FA" fill-opacity="0.2"/>
<path d="M79.932 32.1572C78.817 32.8357 77.8767 33.4646 76.8865 34.0028C71.9149 36.7084 66.5292 38.2076 60.9959 39.2304C52.1155 40.8739 43.1977 41.2863 34.2466 39.8305C32.9881 39.6263 31.7462 39.3191 30.3296 39.0262C30.3316 40.6945 30.3046 42.3174 30.3753 43.9383C30.3857 44.161 30.8663 44.4476 31.1804 44.5569C34.051 45.5467 37.0361 45.9674 40.0524 46.0685C51.6558 46.4562 62.8077 44.5239 73.2712 39.3809C75.1766 38.4447 76.8761 37.0961 78.6776 35.9475C79.6678 35.3164 80.1608 34.473 79.9424 33.277C79.8883 32.98 79.934 32.6645 79.932 32.1593V32.1572Z" fill="#F5F9FA" fill-opacity="0.2"/>
<path d="M37.3082 47.4932C37.3103 49.0377 37.2833 50.5369 37.3519 52.0299C37.3623 52.232 37.8428 52.531 38.1424 52.5846C41.3729 53.1661 44.6264 53.0713 47.8632 52.7021C56.367 51.7309 64.4798 49.4213 71.979 45.2805C74.1694 44.07 76.1248 42.4471 78.205 41.0366C79.7859 39.9643 80.3351 38.527 79.8005 36.6133C79.1328 37.1659 78.4775 37.7495 77.7827 38.2795C73.173 41.7955 67.8685 43.8411 62.3185 45.299C54.3284 47.3962 46.2115 48.252 37.951 47.4952C37.7867 47.4808 37.6203 47.4952 37.3062 47.4952L37.3082 47.4932Z" fill="#F5F9FA" fill-opacity="0.2"/>
</svg>
