<svg width="412" height="34" viewBox="0 0 412 34" fill="none" xmlns="http://www.w3.org/2000/svg">
<path d="M178 17L94 17.0001L10 17.0002" stroke="#2E2E2E"/>
<path d="M209 26.5542C209.249 26.5874 209.459 26.6028 209.663 26.6458C209.961 26.7087 210.08 26.87 210.08 27.173C210.08 27.3609 210.08 27.5482 210.08 27.7361C210.079 28.0463 209.969 28.2209 209.664 28.2587C209.267 28.3074 208.863 28.334 208.465 28.3084C208.209 28.292 208.103 28.3739 207.997 28.594C207.289 30.0718 206.57 31.5445 205.845 33.0142C205.525 33.6632 205.023 34.0313 204.282 33.9985C204.091 33.9898 203.899 33.997 203.677 33.997C205.024 29.0409 206.365 24.1089 207.722 19.1154C207.333 19.1154 206.983 19.1292 206.635 19.1134C203.508 18.9726 200.381 18.8359 197.256 18.6762C196.253 18.625 195.254 18.5155 194.255 18.4116C194.052 18.3906 193.959 18.4515 193.858 18.6148C192.856 20.2288 191.843 21.8356 190.841 23.4501C190.603 23.8335 190.28 24.0167 189.839 24.0065C189.539 23.9993 189.238 24.005 188.892 24.005C189.463 21.9799 190.027 19.98 190.599 17.9509C190.294 17.8879 190.01 17.8383 189.729 17.7692C189.356 17.677 188.985 17.5741 188.616 17.4666C188.496 17.4318 188.37 17.3883 188.273 17.3141C188.16 17.2281 187.997 17.1001 188.001 16.9962C188.005 16.8872 188.164 16.7526 188.285 16.6865C188.482 16.579 188.698 16.4976 188.915 16.4413C189.457 16.3006 190.004 16.1792 190.594 16.04C190.032 14.0467 189.468 12.0473 188.886 9.9803C189.364 10.0049 189.816 9.98133 190.246 10.0709C190.459 10.1149 190.683 10.3325 190.811 10.5321C191.843 12.1466 192.855 13.7744 193.866 15.4027C193.964 15.5604 194.056 15.609 194.244 15.5942C196.371 15.4252 198.498 15.2358 200.628 15.1212C202.909 14.9983 205.194 14.9487 207.477 14.8668C207.543 14.8642 207.609 14.8565 207.71 14.8483C206.366 9.90045 205.025 4.96894 203.679 0.0159261C204.282 0.00875965 204.884 -0.0997603 205.361 0.366056C205.545 0.545728 205.721 0.753554 205.835 0.982367C206.574 2.46377 207.298 3.95284 208.015 5.4455C208.11 5.64258 208.206 5.70657 208.428 5.69684C208.835 5.67892 209.247 5.6953 209.652 5.74342C209.973 5.78181 210.078 5.95278 210.079 6.28244C210.079 6.47849 210.072 6.67506 210.081 6.87111C210.092 7.12296 209.954 7.26987 209.744 7.32873C209.513 7.39323 209.27 7.41371 209.007 7.45773C209.171 7.79506 209.332 8.12932 209.494 8.46307C209.695 8.87565 209.9 9.28568 210.094 9.70133C210.156 9.83442 210.221 9.86769 210.378 9.86257C210.835 9.84721 211.297 9.85336 211.752 9.89687C212.061 9.92656 212.173 10.1057 212.174 10.4128C212.174 10.6089 212.174 10.8055 212.174 11.0015C212.173 11.282 212.063 11.4443 211.793 11.5021C211.557 11.5523 211.313 11.5692 211.046 11.604C211.072 11.6721 211.094 11.7417 211.125 11.8057C211.589 12.7604 212.058 13.713 212.517 14.6697C212.585 14.8105 212.665 14.8591 212.821 14.8678C214.893 14.9779 216.966 15.072 219.035 15.223C220.22 15.3096 221.396 15.503 222.533 15.8747C222.834 15.973 223.134 16.0953 223.409 16.2509C224.188 16.6916 224.204 17.3295 223.415 17.739C222.914 17.999 222.365 18.1879 221.817 18.3241C220.12 18.7469 218.383 18.8861 216.644 18.9864C215.366 19.0601 214.086 19.0878 212.807 19.1451C212.719 19.1492 212.591 19.2101 212.555 19.2828C212.05 20.2933 211.558 21.3099 211.063 22.3255C211.056 22.3393 211.059 22.3582 211.055 22.4017C211.264 22.4263 211.475 22.4417 211.684 22.477C212.062 22.5415 212.173 22.6823 212.173 23.0672C212.173 23.2376 212.173 23.4086 212.173 23.5791C212.173 23.9051 212.065 24.0771 211.738 24.1084C211.282 24.1519 210.821 24.134 210.363 24.1514C210.287 24.1544 210.169 24.177 210.143 24.2287C209.758 24.9929 209.386 25.7633 209 26.5531V26.5542Z" fill="#F8AB12"/>
<path d="M402 17.0001L318 17.0002L234 17.0004" stroke="#2E2E2E"/>
</svg>
