<svg width="27" height="24" viewBox="0 0 27 24" fill="none" xmlns="http://www.w3.org/2000/svg">
<path d="M15.5651 18.7438C15.745 18.7673 15.8963 18.7781 16.0435 18.8085C16.259 18.8529 16.3446 18.9668 16.3446 19.1807C16.3446 19.3133 16.3446 19.4455 16.3446 19.5781C16.3438 19.7971 16.2648 19.9203 16.0442 19.947C15.7581 19.9814 15.4657 20.0001 15.1788 19.9821C14.9938 19.9705 14.9173 20.0283 14.8407 20.1837C14.329 21.2268 13.8095 22.2664 13.2861 23.3037C13.0551 23.7619 12.6927 24.0217 12.1574 23.9986C12.0192 23.9924 11.8806 23.9975 11.7207 23.9975C12.6935 20.4991 13.6616 17.0178 14.6416 13.493C14.3612 13.493 14.1084 13.5028 13.8567 13.4916C11.5984 13.3922 9.34016 13.2957 7.08261 13.183C6.35863 13.1469 5.63683 13.0696 4.91539 12.9962C4.76885 12.9814 4.70175 13.0244 4.62848 13.1397C3.90486 14.2789 3.17326 15.4131 2.44965 16.5527C2.27772 16.8234 2.04486 16.9527 1.72639 16.9455C1.50912 16.9404 1.29186 16.9444 1.04195 16.9444C1.45435 15.515 1.86168 14.1033 2.27518 12.671C2.05501 12.6266 1.84935 12.5915 1.64696 12.5427C1.37709 12.4777 1.10905 12.4051 0.842451 12.3292C0.756126 12.3046 0.665083 12.2739 0.594717 12.2215C0.513468 12.1608 0.395586 12.0705 0.398487 11.9971C0.40139 11.9202 0.516369 11.8251 0.603785 11.7785C0.745968 11.7027 0.902302 11.6452 1.05899 11.6055C1.45037 11.5061 1.84536 11.4205 2.27155 11.3222C1.86567 9.91518 1.45834 8.50384 1.03759 7.04481C1.3829 7.06215 1.70971 7.04553 2.02019 7.10876C2.17362 7.13984 2.33575 7.2934 2.42788 7.43432C3.17327 8.57394 3.9045 9.72296 4.63428 10.8723C4.70501 10.9836 4.77139 11.0179 4.90741 11.0075C6.44387 10.8882 7.97961 10.7545 9.51826 10.6736C11.1657 10.5869 12.8161 10.5518 14.465 10.494C14.5125 10.4922 14.56 10.4868 14.6333 10.481C13.6623 6.98844 12.6942 3.50743 11.7221 0.0112417C12.157 0.00618319 12.5919 -0.0704179 12.9365 0.258389C13.0692 0.385214 13.1969 0.531912 13.2793 0.693425C13.8124 1.7391 14.3358 2.7902 14.8538 3.84382C14.922 3.98293 14.9916 4.0281 15.152 4.02123C15.4458 4.00859 15.7435 4.02015 16.0359 4.05412C16.2673 4.08121 16.3435 4.2019 16.3442 4.43459C16.3442 4.57298 16.3391 4.71173 16.3457 4.85012C16.3536 5.02789 16.2535 5.13159 16.1019 5.17314C15.9354 5.21867 15.7602 5.23312 15.5698 5.2642C15.6881 5.50231 15.8048 5.73826 15.922 5.97384C16.0667 6.26507 16.2147 6.55449 16.3551 6.84789C16.4001 6.94183 16.4465 6.96532 16.56 6.9617C16.8905 6.95086 17.2238 6.9552 17.5528 6.98591C17.7755 7.00687 17.8567 7.13333 17.8571 7.35013C17.8571 7.48852 17.8571 7.62727 17.8571 7.76565C17.8567 7.96366 17.7773 8.0782 17.5818 8.11903C17.4113 8.15444 17.2358 8.16636 17.0424 8.19094C17.0613 8.23899 17.0769 8.28813 17.0994 8.3333C17.4349 9.00717 17.7733 9.6796 18.1052 10.3549C18.1542 10.4543 18.2122 10.4886 18.3246 10.4947C19.8212 10.5724 21.3185 10.6389 22.8129 10.7455C23.6682 10.8066 24.518 10.9432 25.3392 11.2055C25.5565 11.2748 25.7726 11.3612 25.9718 11.4711C26.5343 11.7822 26.5456 12.2324 25.9758 12.5214C25.6141 12.705 25.2173 12.8383 24.822 12.9344C23.5963 13.2329 22.3413 13.3312 21.086 13.402C20.1629 13.454 19.238 13.4735 18.3141 13.514C18.2506 13.5169 18.1585 13.5599 18.1324 13.6112C17.7679 14.3244 17.4124 15.042 17.0551 15.7589C17.0501 15.7687 17.0522 15.782 17.0493 15.8127C17.2002 15.8301 17.3526 15.8409 17.5031 15.8659C17.7762 15.9114 17.8567 16.0107 17.8567 16.2825C17.8567 16.4028 17.8567 16.5235 17.8567 16.6438C17.8567 16.874 17.7784 16.9954 17.5423 17.0174C17.2133 17.0481 16.8803 17.0355 16.5495 17.0478C16.4944 17.0499 16.4091 17.0658 16.3903 17.1023C16.1124 17.6418 15.8433 18.1856 15.5651 18.7431V18.7438Z" fill="#F8AB12"/>
</svg>
