<svg width="27" height="24" viewBox="0 0 27 24" fill="none" xmlns="http://www.w3.org/2000/svg">
<path d="M11.2318 18.7438C11.0519 18.7673 10.9006 18.7781 10.7534 18.8085C10.5379 18.8529 10.4523 18.9668 10.4523 19.1807C10.4523 19.3133 10.4523 19.4455 10.4523 19.5781C10.453 19.7971 10.5321 19.9203 10.7526 19.947C11.0388 19.9814 11.3312 20.0001 11.6181 19.9821C11.8031 19.9705 11.8796 20.0283 11.9561 20.1837C12.4679 21.2268 12.9873 22.2664 13.5107 23.3037C13.7418 23.7619 14.1041 24.0217 14.6395 23.9986C14.7777 23.9924 14.9163 23.9975 15.0762 23.9975C14.1034 20.4991 13.1353 17.0178 12.1553 13.493C12.4356 13.493 12.6884 13.5028 12.9402 13.4916C15.1984 13.3922 17.4567 13.2957 19.7143 13.183C20.4382 13.1469 21.16 13.0696 21.8815 12.9962C22.028 12.9814 22.0951 13.0244 22.1684 13.1397C22.892 14.2789 23.6236 15.4131 24.3472 16.5527C24.5192 16.8234 24.752 16.9527 25.0705 16.9455C25.2878 16.9404 25.505 16.9444 25.7549 16.9444C25.3425 15.515 24.9352 14.1033 24.5217 12.671C24.7419 12.6266 24.9475 12.5915 25.1499 12.5427C25.4198 12.4777 25.6878 12.4051 25.9544 12.3292C26.0407 12.3046 26.1318 12.2739 26.2022 12.2215C26.2834 12.1608 26.4013 12.0705 26.3984 11.9971C26.3955 11.9202 26.2805 11.8252 26.1931 11.7785C26.0509 11.7027 25.8946 11.6452 25.7379 11.6055C25.3465 11.5061 24.9515 11.4205 24.5253 11.3222C24.9312 9.91518 25.3385 8.50384 25.7593 7.04481C25.414 7.06215 25.0872 7.04553 24.7767 7.10877C24.6233 7.13984 24.4611 7.2934 24.369 7.43432C23.6236 8.57394 22.8924 9.72296 22.1626 10.8723C22.0919 10.9836 22.0255 11.018 21.8895 11.0075C20.353 10.8882 18.8173 10.7545 17.2786 10.6736C15.6312 10.5869 13.9808 10.5518 12.3319 10.494C12.2844 10.4922 12.2369 10.4868 12.1636 10.481C13.1346 6.98844 14.1027 3.50743 15.0748 0.0112417C14.6399 0.00618319 14.205 -0.0704179 13.8604 0.258389C13.7276 0.385214 13.6 0.531912 13.5176 0.693425C12.9844 1.7391 12.461 2.7902 11.9431 3.84382C11.8749 3.98293 11.8052 4.0281 11.6449 4.02124C11.3511 4.00859 11.0533 4.02015 10.761 4.05412C10.5296 4.08122 10.4534 4.2019 10.4527 4.43459C10.4527 4.57298 10.4577 4.71173 10.4512 4.85012C10.4432 5.02789 10.5433 5.13159 10.695 5.17314C10.8614 5.21867 11.0366 5.23312 11.2271 5.2642C11.1088 5.50231 10.992 5.73826 10.8749 5.97384C10.7301 6.26507 10.5822 6.55449 10.4418 6.84789C10.3968 6.94183 10.3504 6.96532 10.2369 6.96171C9.90642 6.95087 9.57308 6.9552 9.2441 6.98591C9.02139 7.00687 8.94014 7.13334 8.93978 7.35013C8.93978 7.48852 8.93978 7.62727 8.93978 7.76566C8.94014 7.96366 9.01958 8.0782 9.21508 8.11903C9.38556 8.15444 9.56111 8.16637 9.75444 8.19094C9.73558 8.23899 9.71998 8.28813 9.69749 8.3333C9.36198 9.00717 9.02357 9.6796 8.69168 10.3549C8.64272 10.4543 8.58468 10.4886 8.47224 10.4947C6.97567 10.5724 5.47838 10.6389 3.98399 10.7455C3.12871 10.8066 2.27887 10.9432 1.45768 11.2055C1.24041 11.2749 1.02423 11.3612 0.825101 11.4711C0.262529 11.7822 0.251285 12.2324 0.821111 12.5214C1.18274 12.705 1.57955 12.8383 1.97491 12.9344C3.20053 13.2329 4.45552 13.3312 5.71088 13.402C6.634 13.454 7.55892 13.4735 8.48276 13.514C8.54624 13.5169 8.63836 13.5599 8.66448 13.6112C9.02901 14.3244 9.38447 15.042 9.74174 15.7589C9.74682 15.7687 9.74465 15.782 9.74755 15.8127C9.59666 15.8301 9.44432 15.8409 9.29379 15.8659C9.02067 15.9114 8.94014 16.0107 8.94014 16.2825C8.94014 16.4028 8.94014 16.5235 8.94014 16.6438C8.94014 16.874 9.01849 16.9954 9.25462 17.0174C9.5836 17.0481 9.91657 17.0355 10.2474 17.0478C10.3025 17.0499 10.3877 17.0658 10.4066 17.1023C10.6844 17.6418 10.9536 18.1856 11.2318 18.7431V18.7438Z" fill="#F8AB12"/>
</svg>
