<svg width="181" height="118" viewBox="0 0 181 118" fill="none" xmlns="http://www.w3.org/2000/svg">
<g clip-path="url(#clip0_524_1764)">
<path d="M6.33389 80.4594C6.15824 81.2058 6.10334 81.8315 5.86182 82.3694C3.76496 86.9796 4.56638 91.3483 7.1902 95.3988C10.2532 100.152 14.8202 103.05 20.0239 105.014C20.1776 105.069 20.3752 105.047 20.7704 105.069C20.6606 103.522 20.6387 102.04 20.4411 100.58C18.6845 87.8028 23.4382 77.7262 33.4175 70.0095C38.2589 66.2665 43.5175 63.0722 48.4358 59.428C52.8382 56.1679 57.0648 52.6663 61.3134 49.1976C62.2905 48.3963 62.9602 48.2536 64.0361 49.0549C65.8695 50.416 67.8126 51.6235 69.7668 52.809C72.182 54.2908 74.1801 56.1459 75.8268 58.462C76.7161 59.7024 77.9566 60.6903 79.0654 61.777C80.9208 63.5991 82.7651 65.4322 84.6754 67.1885C85.1365 67.6056 85.861 67.7374 86.4648 67.9898C86.3002 67.3422 86.2782 66.6068 85.9489 66.0579C85.4658 65.2456 84.7412 64.5651 84.1704 63.7967C83.9069 63.4454 83.7532 63.0064 83.7751 62.4795C85.3121 63.8187 86.8162 65.2017 88.3861 66.497C89.0338 67.0348 89.8462 68.1435 90.6805 67.2434C91.5917 66.2555 90.3512 65.542 89.7254 64.9273C88.4409 63.654 87.0686 62.4795 85.9379 61.0086C87.42 62.0075 88.8911 62.9954 90.3731 64.0053C90.7464 64.2577 91.0977 64.576 91.4929 64.7956C92.1955 65.2017 92.964 66.2116 93.6886 65.2237C93.9301 64.8944 93.3153 63.5991 92.7774 63.1161C91.4161 61.9087 89.8681 60.9098 88.397 59.8231C88.0128 59.5377 87.6285 59.2304 87.409 58.6596C87.8371 58.8681 88.2653 59.0547 88.6825 59.2743C90.2634 60.0866 91.8223 60.9647 93.4471 61.6782C93.8203 61.8428 94.4351 61.4696 94.9401 61.3489C94.7535 60.822 94.7315 60.0427 94.3473 59.8012C92.5908 58.6596 90.7135 57.6936 88.913 56.6069C87.903 55.9922 86.904 55.3446 85.9928 54.5872C85.6305 54.2908 85.5317 53.6761 85.3121 53.2041C85.7952 53.0395 86.2782 52.809 86.7722 52.7102C87.8371 52.4907 88.924 52.4138 89.9669 52.1284C90.3731 52.0187 90.8123 51.5576 90.9879 51.1405C91.2514 50.5039 91.0428 49.977 90.1755 49.977C87.7603 49.955 85.356 49.9221 82.9408 49.8892C82.6224 49.8892 82.2711 49.8123 81.9857 49.9001C79.263 50.7783 77.3638 49.2745 75.4755 47.7048C73.4335 46.0144 71.3916 44.324 69.3276 42.6555C68.5811 42.0518 68.2298 41.459 68.9763 40.6028C73.2579 35.7841 75.1132 29.8895 76.4745 23.7755C77.77 17.9798 79.79 12.5134 83.1933 7.56284C87.376 1.47075 93.2056 -0.625812 100.309 0.131583C101.308 0.24135 102.307 0.384048 103.295 0.559676C106.314 1.08656 108.938 2.25009 110.716 4.95037C112.637 7.85921 115.546 9.45084 118.719 10.6802C120.157 11.24 121.563 11.9206 122.968 12.5682C123.857 12.9854 124.132 13.633 123.692 14.588C122.638 16.8601 121.749 19.2311 120.575 21.4265C119.356 23.6987 117.094 24.5987 114.69 24.5548C112.253 24.5219 109.794 24.0609 107.379 23.6108C106.204 23.3913 105.545 23.5999 104.93 24.6536C103.13 27.7271 102.23 31.0092 102.23 34.5766C102.23 42.436 102.197 50.3063 102.153 58.1656C102.109 65.8274 98.3873 71.667 92.7664 76.4419C90.4719 78.3848 87.8701 79.9545 85.4768 81.7876C84.9169 82.2157 84.335 82.9841 84.2582 83.6427C83.4238 90.4812 82.2821 97.3087 82.7761 104.246C82.8639 105.519 83.0067 106.826 83.4129 108.022C83.6873 108.812 84.3899 109.515 85.0486 110.086C86.0038 110.92 87.1565 111.535 88.1226 112.369C88.9679 113.093 89.3851 114.092 89.0008 115.212C88.6166 116.331 87.8262 117.045 86.5856 117.155C85.1255 117.286 83.6763 117.484 82.2162 117.539C77.254 117.725 74.7729 114.465 74.0813 110.283C73.5982 107.374 73.8288 104.356 73.4775 101.414C73.1481 98.6259 72.5333 95.8598 71.9076 93.1156C71.6221 91.8533 69.7448 91.3044 68.4823 92.1387C64.607 94.7182 60.7645 97.3636 56.966 100.075C56.3512 100.514 55.967 101.359 55.6047 102.073C54.6496 103.939 53.8372 105.871 52.8272 107.704C51.6196 109.899 52.0916 111.106 54.5179 111.699C55.8462 112.029 57.1746 112.336 58.4701 112.753C59.3922 113.049 59.7765 113.752 59.7216 114.773C59.6777 115.783 59.4581 116.672 58.4261 116.946C56.8123 117.374 55.1436 117.945 53.5078 117.912C47.7113 117.78 41.9037 117.451 36.1072 117.122C30.7388 116.814 25.4911 115.837 20.496 113.796C15.0397 111.557 10.0116 108.604 5.85084 104.356C2.51342 100.953 0.328734 96.9684 0.02134 92.1277C-0.209205 88.5602 0.515366 85.2123 2.71104 82.3035C3.52343 81.2168 4.63225 80.5472 6.32291 80.4265L6.33389 80.4594Z" fill="#116380"/>
<path d="M125.956 75.1356C124.365 76.343 122.762 77.5285 121.192 78.7579C120.654 79.175 119.699 79.5702 120.303 80.4483C120.895 81.3265 121.796 80.9642 122.498 80.4813C124.376 79.208 126.209 77.8907 128.229 76.7492C127.933 77.1114 127.669 77.5066 127.34 77.8468C126.538 78.6591 125.66 79.4055 124.902 80.2507C124.584 80.613 124.496 81.1728 124.299 81.6338C124.859 81.6668 125.407 81.7107 125.967 81.7216C126.077 81.7216 126.22 81.6119 126.308 81.5131C129.766 77.7041 134.849 75.8491 138.055 71.7108C138.724 70.8437 139.811 70.2839 140.777 69.6801C141.864 69.0106 143.028 68.4727 144.137 67.836C146.442 66.5298 146.431 66.5188 148.111 68.6593C154.401 76.6394 157.135 85.6623 156.136 95.7938C156.081 96.3097 156.136 96.8366 156.136 97.3635C156.246 97.3964 156.366 97.4403 156.476 97.4733C157.179 95.9365 158.035 94.4437 158.54 92.8411C159.825 88.7028 160.813 84.4768 162.163 80.3605C163.151 77.3419 164.205 74.2574 165.797 71.5352C168.256 67.3421 171.725 64.1149 176.709 62.9953C178.147 62.666 179.761 63.3905 180.453 64.6308C181.342 66.2225 181.221 67.1555 179.816 68.5276C178.938 69.3947 178.016 70.218 177.05 70.9864C173.635 73.6757 171.659 77.2541 170.594 81.3923C169.573 85.3659 168.673 89.3724 167.575 93.335C165.544 100.613 162.141 107.067 156.136 111.93C150.35 116.617 143.807 118.593 136.441 117.528C131.325 116.792 126.231 116.65 121.17 117.747C118.085 118.417 115.395 117.616 112.804 116.079C111.048 115.036 110.894 113.368 112.497 112.083C113.024 111.655 113.639 111.304 114.264 111.041C115.779 110.393 116.449 109.229 116.273 107.66C115.922 104.443 115.571 101.227 115.055 98.044C114.583 95.2121 113.935 92.413 113.254 89.6139C112.958 88.3845 112.497 87.1771 111.981 86.0245C109.862 81.3155 107.623 76.6504 107.14 71.4145C106.81 67.8031 106.788 64.1808 107.886 60.6792C108.731 58.0119 108.72 55.5092 107.436 52.9845C106.228 50.6245 106.108 48.0669 107.052 45.652C108.215 42.6883 107.963 39.8124 107.458 36.7938C107.194 35.2571 107.348 33.5886 107.623 32.0409C107.952 30.1529 109.379 29.648 110.839 30.8883C112.288 32.1287 113.584 33.5557 114.835 35.0156C115.516 35.8059 116.164 36.1791 117.24 36.256C119.095 36.3767 120.939 36.695 122.751 37.1231C123.794 37.3756 124.529 37.2658 125.364 36.5414C126.703 35.3778 128.075 34.2033 129.612 33.3361C131.72 32.1397 132.752 32.8641 132.763 35.301C132.763 38.1769 132.236 40.9211 130.952 43.5226C130.655 44.1263 130.688 44.9276 130.699 45.6301C130.732 47.7596 130.82 49.8891 130.886 52.0076C130.973 55.0152 132.664 57.1227 134.882 58.8571C136.166 59.856 137.626 60.6243 139.295 61.6671C136.924 62.9624 135.354 65.2016 132.192 64.6199C129.019 64.0381 125.748 63.9503 122.52 63.6649C122.268 63.6429 121.993 63.7417 121.62 63.8076C122.059 65.2894 123.058 66.0139 124.397 66.3542C124.924 66.4859 125.484 66.4969 126.011 66.6506C126.45 66.7823 126.846 67.0347 127.263 67.2323C126.966 67.7263 126.791 68.4068 126.363 68.6593C124.913 69.5265 123.387 70.2509 121.872 70.9864C120.522 71.645 119.095 72.1719 117.778 72.8963C117.338 73.1378 117.152 73.8184 116.855 74.3014C117.382 74.4331 117.975 74.8063 118.414 74.6636C120.237 74.0818 122.004 73.3354 123.794 72.6548C123.991 72.578 124.2 72.5121 124.595 72.6987C124.288 72.9512 124.013 73.2476 123.684 73.4452C122.092 74.4221 120.478 75.3771 118.875 76.343C118.601 76.5077 118.239 76.6504 118.118 76.9028C117.92 77.309 117.876 77.8029 117.767 78.253C118.195 78.2969 118.7 78.5274 119.029 78.3737C120.566 77.6712 122.048 76.8809 123.541 76.0906C124.31 75.6844 125.045 75.2344 125.792 74.8063C125.869 74.9051 125.945 75.0039 126.011 75.1026L125.956 75.1356ZM126.385 105.574C126.461 106.562 125.781 107.78 127.23 108.077C128.306 108.296 129.458 108.121 130.534 108.121C130.864 106.277 129.755 105.684 126.385 105.574Z" fill="#80BECE"/>
</g>
<defs>
<clipPath id="clip0_524_1764">
<rect width="181" height="118" fill="white"/>
</clipPath>
</defs>
</svg>
