<svg width="29" height="30" viewBox="0 0 29 30" fill="none" xmlns="http://www.w3.org/2000/svg">
<path d="M25.4148 10.0564V4.25021H28.7718V21.2763H25.4833V16.7055M25.4833 16.7055C25.3968 16.7055 25.3104 16.7055 25.2275 16.7055V28.444H27.9721V30H0V28.5016H2.95353V0H25.1519V10.06H25.4148M16.2769 21.0421H11.861V28.426H16.2769V21.0421ZM18.4092 2.28719V8.24829H22.8647V2.28719H18.4092ZM5.14347 2.27638V8.23028H9.53776V2.27638H5.14347ZM11.7277 8.2591H16.1724V2.31961H11.7277V8.2591ZM9.54136 17.3358V11.3747H5.13627V17.3358H9.54136ZM22.8575 17.3322V11.3747H18.4524V17.3322H22.8575ZM11.8502 11.3531V17.3358H16.2336V11.3531H11.8502ZM25.4004 15.2899V11.4071V15.2899ZM25.4004 11.4071C25.3428 11.4107 25.2851 11.4179 25.2311 11.4215V15.2972C25.2887 15.2972 25.3464 15.2936 25.4004 15.2899" fill="#116380"/>
</svg>
