<svg width="14" height="21" viewBox="0 0 14 21" fill="none" xmlns="http://www.w3.org/2000/svg">
<path d="M2 19.5C1.45 19.5 0.979333 19.3043 0.588 18.913C0.196666 18.5217 0.000666667 18.0507 0 17.5V6.5C0 5.95 0.196 5.47933 0.588 5.088C0.98 4.69667 1.45067 4.50067 2 4.5H4V2.5C4 1.95 4.196 1.47933 4.588 1.088C4.98 0.696667 5.45067 0.500667 6 0.5H8C8.55 0.5 9.021 0.696 9.413 1.088C9.805 1.48 10.0007 1.95067 10 2.5V4.5H12C12.55 4.5 13.021 4.696 13.413 5.088C13.805 5.48 14.0007 5.95067 14 6.5V17.5C14 18.05 13.8043 18.521 13.413 18.913C13.0217 19.305 12.5507 19.5007 12 19.5C12 19.7833 11.904 20.021 11.712 20.213C11.52 20.405 11.2827 20.5007 11 20.5C10.7167 20.5 10.4793 20.404 10.288 20.212C10.0967 20.02 10.0007 19.7827 10 19.5H4C4 19.7833 3.904 20.021 3.712 20.213C3.52 20.405 3.28267 20.5007 3 20.5C2.71667 20.5 2.47933 20.404 2.288 20.212C2.09667 20.02 2.00067 19.7827 2 19.5ZM2 17.5H12V6.5H2V17.5ZM4 16.5H6V7.5H4V16.5ZM8 16.5H10V7.5H8V16.5ZM6 4.5H8V2.5H6V4.5Z" fill="#116380"/>
</svg>
