<svg width="24" height="21" viewBox="0 0 24 21" fill="none" xmlns="http://www.w3.org/2000/svg">
<path d="M17.9451 12.777C17.5862 11.4758 16.8103 10.3283 15.7364 9.51057C14.6625 8.69282 13.35 8.24997 12.0002 8.24997C10.6504 8.24997 9.33791 8.69282 8.26403 9.51057C7.19016 10.3283 6.41423 11.4758 6.05529 12.777L5.19991 15.8778C5.04633 16.4345 5.02342 17.0192 5.13296 17.5863C5.2425 18.1533 5.48153 18.6874 5.83142 19.1469C6.18131 19.6064 6.6326 19.9788 7.1501 20.2352C7.6676 20.4916 8.23733 20.625 8.81487 20.625H15.1856C15.7631 20.625 16.3328 20.4916 16.8503 20.2352C17.3678 19.9788 17.8191 19.6064 18.169 19.1469C18.5189 18.6874 18.7579 18.1533 18.8675 17.5863C18.977 17.0192 18.9541 16.4345 18.8005 15.8778L17.9451 12.777ZM16.9757 18.2379C16.7666 18.5146 16.4961 18.7389 16.1853 18.8928C15.8746 19.0468 15.5323 19.1263 15.1856 19.125H8.81487C8.46834 19.125 8.1265 19.045 7.81599 18.8911C7.50548 18.7373 7.2347 18.5138 7.02477 18.2381C6.81483 17.9624 6.67141 17.642 6.60568 17.3017C6.53996 16.9615 6.55371 16.6107 6.64587 16.2766L7.50124 13.1759C7.77288 12.1912 8.36009 11.3228 9.17277 10.704C9.98545 10.0851 10.9787 9.74999 12.0002 9.74999C13.0217 9.74999 14.015 10.0851 14.8276 10.704C15.6403 11.3228 16.2275 12.1912 16.4992 13.1759L17.3546 16.2766C17.448 16.6106 17.4625 16.9617 17.3967 17.3021C17.3309 17.6426 17.1868 17.963 16.9757 18.2381V18.2379ZM6.84865 9.29578C6.97915 8.48016 6.80608 7.60702 6.36115 6.83658C5.91621 6.06614 5.24646 5.47969 4.47504 5.18489C3.64891 4.86938 2.80629 4.91963 2.10157 5.32631C0.700616 6.13519 0.331944 8.12874 1.2799 9.7703C1.72469 10.5407 2.39449 11.1273 3.16591 11.422C3.50764 11.5552 3.87087 11.6246 4.23762 11.6269C4.69453 11.6285 5.14371 11.509 5.53938 11.2805C6.24368 10.8738 6.70868 10.1689 6.84865 9.29578ZM5.3674 9.05869C5.30037 9.47724 5.09505 9.80494 4.78929 9.98147C4.48352 10.158 4.09708 10.1719 3.70099 10.0207C3.25038 9.84863 2.85185 9.49331 2.57876 9.0203C2.05376 8.11092 2.17854 7.01405 2.85157 6.62536C3.02076 6.52935 3.21237 6.47989 3.4069 6.48202C3.58937 6.48391 3.76996 6.51912 3.93977 6.58594C4.39038 6.75811 4.78891 7.11338 5.06201 7.58639C5.3351 8.05941 5.44352 8.58239 5.3674 9.05869ZM7.01112 6.1883C7.54371 6.61406 8.15191 6.83578 8.76696 6.83574C8.95119 6.83568 9.13488 6.81586 9.31488 6.77663C10.8956 6.43299 11.8541 4.64649 11.4514 2.79422C11.2625 1.92488 10.8033 1.16217 10.1583 0.646501C9.46755 0.0943139 8.6494 -0.114702 7.85449 0.0581734C6.27377 0.401767 5.31532 2.18827 5.71793 4.04053C5.90688 4.90992 6.36616 5.67263 7.01112 6.1883ZM8.17305 1.52395C8.24594 1.50824 8.3203 1.50038 8.39487 1.50052C8.67368 1.50052 8.96046 1.6096 9.2216 1.81838C9.59834 2.11955 9.86969 2.57935 9.98566 3.11311C10.2088 4.13944 9.75569 5.14599 8.99627 5.31108C8.65123 5.38608 8.27885 5.28164 7.94782 5.01694C7.57108 4.71572 7.29973 4.25592 7.18376 3.7222C6.96058 2.6956 7.41368 1.68905 8.17305 1.52395ZM21.8988 5.32631C21.1944 4.91963 20.3514 4.86938 19.5254 5.18489C18.754 5.4796 18.0842 6.06614 17.6394 6.83658C17.1946 7.60702 17.0215 8.48034 17.1519 9.29578C17.2916 10.1689 17.7566 10.8738 18.4611 11.2805C18.8568 11.509 19.306 11.6286 19.7629 11.6269C20.1296 11.6246 20.4929 11.5552 20.8346 11.422C21.606 11.1273 22.2758 10.5407 22.7206 9.7703C23.6685 8.12874 23.2998 6.13519 21.8988 5.32631ZM21.4217 9.0203C21.1486 9.49331 20.75 9.84863 20.2994 10.0207C19.9035 10.172 19.517 10.1581 19.2112 9.98147C18.9055 9.80484 18.7003 9.47724 18.6331 9.05869C18.5569 8.58239 18.6653 8.0596 18.9384 7.58681C19.2116 7.11403 19.61 6.75853 20.0606 6.58636C20.2304 6.51949 20.411 6.4842 20.5935 6.48225C20.788 6.48012 20.9797 6.52958 21.1488 6.62559C21.8219 7.01395 21.9468 8.11069 21.4217 9.0203ZM14.6855 6.77663C14.8655 6.81586 15.0492 6.83568 15.2335 6.83574C15.8485 6.83574 16.4569 6.61406 16.9893 6.1883C17.6343 5.67267 18.0935 4.90992 18.2825 4.04058C18.6851 2.18831 17.7266 0.401814 16.1459 0.0582202C15.3511 -0.114561 14.5329 0.0943139 13.8422 0.646548C13.1972 1.16217 12.7379 1.92492 12.549 2.79422C12.1463 4.64649 13.1048 6.43299 14.6855 6.77663ZM14.0148 3.11288C14.1307 2.57911 14.4021 2.11913 14.7788 1.81814C15.04 1.60936 15.3267 1.50028 15.6056 1.50028C15.6801 1.50015 15.7545 1.508 15.8274 1.52372C16.5867 1.68881 17.0398 2.6956 16.8168 3.72169C16.7007 4.25546 16.4293 4.71544 16.0527 5.01647C15.7217 5.28113 15.3496 5.38556 15.0042 5.31061C14.2447 5.14575 13.7916 4.13906 14.0148 3.11288Z" fill="#116380"/>
</svg>
