<svg width="22" height="21" viewBox="0 0 22 21" fill="none" xmlns="http://www.w3.org/2000/svg">
<path d="M20.7097 7.21005C21.9597 5.96005 21.3897 4.50005 20.7097 3.79005L17.7097 0.790051C16.4497 -0.459949 14.9997 0.110051 14.2897 0.790051L12.5897 2.50005H9.99969C8.09969 2.50005 6.99968 3.50005 6.43968 4.65005L1.99968 9.09005V13.0901L1.28968 13.7901C0.0396849 15.0501 0.609685 16.5001 1.28968 17.2101L4.28968 20.2101C4.82968 20.7501 5.40968 20.9501 5.95968 20.9501C6.66968 20.9501 7.31968 20.6 7.70968 20.2101L10.4097 17.5001H13.9997C15.6997 17.5001 16.5597 16.4401 16.8697 15.4001C17.9997 15.1001 18.6197 14.2401 18.8697 13.4001C20.4197 13.0001 20.9997 11.5301 20.9997 10.5001V7.50005H20.4097L20.7097 7.21005ZM18.9997 10.5001C18.9997 10.9501 18.8097 11.5001 17.9997 11.5001H16.9997V12.5001C16.9997 12.9501 16.8097 13.5001 15.9997 13.5001H14.9997V14.5001C14.9997 14.9501 14.8097 15.5001 13.9997 15.5001H9.58969L6.30968 18.7801C5.99968 19.0701 5.81968 18.9001 5.70968 18.7901L2.71968 15.8101C2.42968 15.5001 2.59968 15.3201 2.70968 15.2101L3.99968 13.9101V9.91005L5.99968 7.91005V9.50005C5.99968 10.7101 6.79969 12.5001 8.99969 12.5001C11.1997 12.5001 11.9997 10.7101 11.9997 9.50005H18.9997V10.5001ZM19.2897 5.79005L17.5897 7.50005H9.99969V9.50005C9.99969 9.95005 9.80969 10.5001 8.99969 10.5001C8.18969 10.5001 7.99968 9.95005 7.99968 9.50005V6.50005C7.99968 6.04005 8.16969 4.50005 9.99969 4.50005H13.4097L15.6897 2.22005C15.9997 1.93005 16.1797 2.10005 16.2897 2.21005L19.2797 5.19005C19.5697 5.50005 19.3997 5.68005 19.2897 5.79005Z" fill="#116380"/>
</svg>
