<svg width="18" height="19" viewBox="0 0 18 19" fill="none" xmlns="http://www.w3.org/2000/svg">
<path d="M3 16.5V17.5C3 17.7833 2.904 18.021 2.712 18.213C2.52 18.405 2.28267 18.5007 2 18.5H1C0.716667 18.5 0.479333 18.404 0.288 18.212C0.0966668 18.02 0.000666667 17.7827 0 17.5V9.5L2.1 3.5C2.2 3.2 2.37933 2.95833 2.638 2.775C2.89667 2.59167 3.184 2.5 3.5 2.5H6V0.5H12V2.5H14.5C14.8167 2.5 15.1043 2.59167 15.363 2.775C15.6217 2.95833 15.8007 3.2 15.9 3.5L18 9.5V17.5C18 17.7833 17.9043 18.021 17.713 18.213C17.5217 18.405 17.284 18.5007 17 18.5H16C15.7167 18.5 15.4793 18.404 15.288 18.212C15.0967 18.02 15.0007 17.7827 15 17.5V16.5H3ZM2.8 7.5H15.2L14.15 4.5H3.85L2.8 7.5ZM4.5 13.5C4.91667 13.5 5.271 13.3543 5.563 13.063C5.855 12.7717 6.00067 12.4173 6 12C6 11.5833 5.85433 11.2293 5.563 10.938C5.27167 10.6467 4.91733 10.5007 4.5 10.5C4.08333 10.5 3.72933 10.646 3.438 10.938C3.14667 11.23 3.00067 11.584 3 12C3 12.4167 3.146 12.771 3.438 13.063C3.73 13.355 4.084 13.5007 4.5 13.5ZM13.5 13.5C13.9167 13.5 14.271 13.3543 14.563 13.063C14.855 12.7717 15.0007 12.4173 15 12C15 11.5833 14.8543 11.2293 14.563 10.938C14.2717 10.6467 13.9173 10.5007 13.5 10.5C13.0833 10.5 12.7293 10.646 12.438 10.938C12.1467 11.23 12.0007 11.584 12 12C12 12.4167 12.146 12.771 12.438 13.063C12.73 13.355 13.084 13.5007 13.5 13.5ZM2 14.5H16V9.5H2V14.5Z" fill="#116380"/>
</svg>
