<svg width="18" height="18" viewBox="0 0 18 18" fill="none" xmlns="http://www.w3.org/2000/svg">
<path d="M9 18C13.9706 18 18 13.9706 18 9C18 4.02944 13.9706 0 9 0C4.02944 0 0 4.02944 0 9C0 13.9706 4.02944 18 9 18Z" fill="#116380"/>
<path d="M10 4C10 4.26522 9.89464 4.51957 9.70711 4.70711C9.51957 4.89464 9.26522 5 9 5C8.73478 5 8.48043 4.89464 8.29289 4.70711C8.10536 4.51957 8 4.26522 8 4C8 3.73478 8.10536 3.48043 8.29289 3.29289C8.48043 3.10536 8.73478 3 9 3C9.26522 3 9.51957 3.10536 9.70711 3.29289C9.89464 3.48043 10 3.73478 10 4Z" fill="#F8AB12"/>
<path d="M9 13.5V8.5C9 8.035 9 7.803 8.949 7.612C8.88081 7.35787 8.74697 7.12614 8.56091 6.94009C8.37486 6.75403 8.14313 6.62019 7.889 6.552C7.697 6.5 7.464 6.5 7 6.5M9 13.5H10.5M9 13.5H7.5" stroke="#F8AB12"/>
</svg>
