<svg width="32" height="22" viewBox="0 0 32 22" fill="none" xmlns="http://www.w3.org/2000/svg">
<g clip-path="url(#clip0_262_753)">
<path d="M29.3333 0H2.66667C1.19391 0 0 1.23122 0 2.75V19.25C0 20.7688 1.19391 22 2.66667 22H29.3333C30.8061 22 32 20.7688 32 19.25V2.75C32 1.23122 30.8061 0 29.3333 0Z" fill="#E0E3E8"/>
<path d="M11.9204 7.57617H5.36035V14.6162H11.9204V7.57617Z" fill="white"/>
<path d="M19.2931 7.16357H12.7197V15.2348H19.2931V7.16357Z" fill="white"/>
<path d="M26.6534 6.90259H20.0801V15.3863H26.6534V6.90259Z" fill="white"/>
<path d="M21.4004 12.7737H23.1337C23.2889 12.7411 23.4278 12.6527 23.5255 12.5242C23.6232 12.3957 23.6734 12.2356 23.6671 12.0724C23.6689 11.9088 23.6173 11.7493 23.5205 11.6196C23.4238 11.4899 23.2875 11.3975 23.1337 11.3574H21.4004V12.7737Z" fill="#41A648"/>
<path d="M22.7604 2.75684C22.0531 2.75684 21.3749 3.04657 20.8748 3.5623C20.3747 4.07802 20.0937 4.7775 20.0937 5.50684V8.36683H24.0937C24.947 8.36683 25.5737 8.86183 25.5737 9.64558C25.5666 9.97513 25.4365 10.2891 25.2104 10.5222C24.9844 10.7553 24.6799 10.8895 24.3604 10.8968V11.0068C24.5492 10.9869 24.7399 11.0073 24.9206 11.0668C25.1014 11.1264 25.2683 11.2237 25.411 11.3527C25.5536 11.4818 25.6689 11.6397 25.7497 11.8168C25.8305 11.9939 25.875 12.1862 25.8804 12.3818C25.8804 13.2068 25.1471 13.7568 24.1871 13.7568H20.0537V19.2568H24.0004C24.7076 19.2568 25.3859 18.9671 25.886 18.4514C26.3861 17.9357 26.6671 17.2362 26.6671 16.5068V2.75684H22.7604Z" fill="#41A648"/>
<path d="M23.4804 9.83131C23.4819 9.67321 23.4271 9.52004 23.3263 9.4009C23.2255 9.28176 23.0858 9.20494 22.9337 9.18506H21.4004V10.5601H22.9337C23.0868 10.5368 23.2266 10.4571 23.3271 10.3358C23.4276 10.2144 23.482 10.0596 23.4804 9.90006V9.83131Z" fill="#41A648"/>
<path d="M7.99967 2.75684C7.29243 2.75684 6.61415 3.04657 6.11405 3.5623C5.61396 4.07802 5.33301 4.7775 5.33301 5.50684V12.2856C6.04033 12.6731 6.82562 12.885 7.62634 12.9043C7.80913 12.9176 7.99258 12.8918 8.16528 12.8286C8.33798 12.7655 8.49621 12.6663 8.63009 12.5373C8.76396 12.4083 8.87059 12.2522 8.94336 12.0788C9.01613 11.9053 9.05345 11.7183 9.053 11.5293V8.35309H11.3597V11.5293C11.3597 12.7806 10.6663 13.7568 8.07967 13.7568C7.18069 13.752 6.28548 13.6366 5.413 13.4131V19.2568H9.25301C9.96026 19.2568 10.6385 18.9671 11.1386 18.4514C11.6387 17.9357 11.9197 17.2362 11.9197 16.5068V2.75684H7.99967Z" fill="#0F68B0"/>
<path d="M15.3864 2.75684C14.6791 2.75684 14.0009 3.04657 13.5008 3.5623C13.0007 4.07802 12.7197 4.7775 12.7197 5.50684V9.10933C13.8228 8.35571 15.1582 8.05187 16.4664 8.25684C17.1723 8.30203 17.8729 8.41247 18.5597 8.58684V9.75559C17.9336 9.40763 17.2426 9.20138 16.5331 9.15058C15.0931 9.04058 14.2397 9.76934 14.2397 11.0343C14.2397 12.2993 15.0931 13.0418 16.5331 12.9181C17.2416 12.8614 17.9314 12.6555 18.5597 12.3131V13.4818C17.8736 13.6596 17.1727 13.7701 16.4664 13.8118C15.1549 14.0088 13.8192 13.6951 12.7197 12.9318V19.2568H16.6397C17.347 19.2568 18.0253 18.9671 18.5254 18.4514C19.0254 17.9357 19.3064 17.2362 19.3064 16.5068V2.75684H15.3864Z" fill="#BE2335"/>
</g>
<defs>
<clipPath id="clip0_262_753">
<rect width="32" height="22" fill="white"/>
</clipPath>
</defs>
</svg>
