<svg width="32" height="22" viewBox="0 0 32 22" fill="none" xmlns="http://www.w3.org/2000/svg">
<g clip-path="url(#clip0_262_735)">
<path d="M29.3333 0H2.66667C1.19391 0 0 1.23122 0 2.75V19.25C0 20.7688 1.19391 22 2.66667 22H29.3333C30.8061 22 32 20.7688 32 19.25V2.75C32 1.23122 30.8061 0 29.3333 0Z" fill="#E0E3E8"/>
<path d="M19.4129 5.26611H12.5996V16.7336H19.4129V5.26611Z" fill="#F26324"/>
<path d="M13.333 11.0067C13.3296 9.90554 13.5677 8.81779 14.0294 7.82488C14.4912 6.83196 15.1648 5.95958 15.9996 5.27299C14.9568 4.42937 13.705 3.90519 12.387 3.7603C11.0691 3.61542 9.73825 3.85567 8.54642 4.45363C7.35459 5.05159 6.34984 5.98313 5.64693 7.1419C4.94402 8.30066 4.57129 9.63993 4.57129 11.0067C4.57129 12.3736 4.94402 13.7128 5.64693 14.8716C6.34984 16.0303 7.35459 16.9619 8.54642 17.5599C9.73825 18.1578 11.0691 18.3981 12.387 18.2532C13.705 18.1083 14.9568 17.5841 15.9996 16.7405C15.1632 16.0553 14.4886 15.1832 14.0266 14.19C13.5647 13.1967 13.3275 12.1083 13.333 11.0067Z" fill="#E92328"/>
<path d="M26.7603 15.5236V15.2899H26.667V15.5236H26.7603ZM27.2137 15.5236V15.2349H27.147L27.067 15.4411L26.987 15.2349H26.907V15.5236V15.3036L26.987 15.4824L27.067 15.3036V15.5236H27.2137Z" fill="#F59E21"/>
<path d="M27.44 11.0069C27.4366 12.3736 27.0613 13.7119 26.3568 14.8695C25.6522 16.0271 24.6468 16.9575 23.4548 17.5549C22.2629 18.1523 20.9323 18.3927 19.6143 18.2488C18.2964 18.1048 17.0442 17.5823 16 16.7407C16.8408 16.0575 17.5203 15.1866 17.9876 14.1934C18.4548 13.2003 18.6976 12.1108 18.6976 11.0069C18.6976 9.90307 18.4548 8.81358 17.9876 7.82044C17.5203 6.8273 16.8408 5.95636 16 5.27317C17.0427 4.42599 18.2957 3.89881 19.6155 3.752C20.9352 3.60518 22.2684 3.84468 23.4623 4.44307C24.6562 5.04145 25.6626 5.97452 26.366 7.1354C27.0695 8.29627 27.4417 9.63801 27.44 11.0069Z" fill="#F59E21"/>
</g>
<defs>
<clipPath id="clip0_262_735">
<rect width="32" height="22" fill="white"/>
</clipPath>
</defs>
</svg>
