<svg width="45" height="63" viewBox="0 0 45 63" fill="none" xmlns="http://www.w3.org/2000/svg">
<path d="M0.608108 63V53.5318L22.7736 33.0477C24.6588 31.2269 26.2399 29.5881 27.5169 28.1315C28.8142 26.6749 29.7973 25.2486 30.4662 23.8526C31.1351 22.4364 31.4696 20.909 31.4696 19.2702C31.4696 17.4494 31.0541 15.8815 30.223 14.5665C29.3919 13.2312 28.2568 12.2095 26.8176 11.5014C25.3784 10.7731 23.7466 10.409 21.9223 10.409C20.0169 10.409 18.3547 10.7934 16.9358 11.5621C15.5169 12.3309 14.4223 13.4335 13.652 14.8699C12.8818 16.3064 12.4966 18.0159 12.4966 19.9986H0C0 15.9321 0.922297 12.4017 2.76689 9.40752C4.61149 6.4133 7.19595 4.09682 10.5203 2.45809C13.8446 0.819364 17.6757 0 22.0135 0C26.473 0 30.3547 0.789018 33.6588 2.36705C36.9831 3.92486 39.5676 6.0896 41.4122 8.86127C43.2568 11.6329 44.1791 14.8092 44.1791 18.3902C44.1791 20.737 43.7128 23.0535 42.7804 25.3396C41.8682 27.6257 40.2365 30.1647 37.8851 32.9566C35.5338 35.7283 32.2196 39.0564 27.9426 42.9408L18.8514 51.8324V52.2572H45V63H0.608108Z" fill="#F8AB12"/>
</svg>
