<svg width="47" height="63" viewBox="0 0 47 63" fill="none" xmlns="http://www.w3.org/2000/svg">
<path d="M23.3347 63C18.8499 63 14.8557 62.2315 11.352 60.6944C7.86832 59.1374 5.11541 57.0014 3.09327 54.2866C1.09115 51.5518 0.0600635 48.3978 0 44.8246H13.0938C13.1739 46.3218 13.6645 47.6393 14.5654 48.7771C15.4864 49.895 16.7077 50.7633 18.2293 51.3821C19.7509 52.0009 21.4627 52.3104 23.3647 52.3104C25.3468 52.3104 27.0987 51.961 28.6203 51.2624C30.1419 50.5637 31.3331 49.5955 32.194 48.3579C33.055 47.1203 33.4854 45.693 33.4854 44.076C33.4854 42.4392 33.0249 40.9919 32.104 39.7343C31.203 38.4567 29.9016 37.4586 28.1998 36.74C26.518 36.0214 24.5159 35.6621 22.1935 35.6621H16.4574V26.1402H22.1935C24.1555 26.1402 25.8874 25.8009 27.389 25.1221C28.9106 24.4434 30.0918 23.5052 30.9327 22.3075C31.7736 21.0898 32.194 19.6725 32.194 18.0556C32.194 16.5185 31.8237 15.1711 31.0829 14.0133C30.3621 12.8356 29.341 11.9173 28.0196 11.2586C26.7183 10.5998 25.1966 10.2704 23.4548 10.2704C21.6929 10.2704 20.0812 10.5898 18.6197 11.2286C17.1581 11.8474 15.9869 12.7357 15.106 13.8935C14.225 15.0513 13.7545 16.4087 13.6945 17.9658H1.2313C1.29137 14.4325 2.30244 11.3184 4.26451 8.62358C6.22659 5.92871 8.86938 3.82272 12.1929 2.30561C15.5364 0.768536 19.3104 0 23.5149 0C27.7594 0 31.4733 0.768536 34.6567 2.30561C37.84 3.84268 40.3126 5.91873 42.0745 8.53374C43.8564 11.1288 44.7373 14.0433 44.7173 17.2771C44.7373 20.7106 43.6662 23.5751 41.5039 25.8707C39.3616 28.1664 36.5687 29.6236 33.125 30.2424V30.7215C37.6498 31.3004 41.0935 32.8674 43.456 35.4225C45.8385 37.9577 47.0197 41.1317 46.9997 44.9444C47.0197 48.4377 46.0087 51.5418 43.9665 54.2567C41.9444 56.9715 39.1514 59.1074 35.5876 60.6644C32.0239 62.2215 27.9396 63 23.3347 63Z" fill="#F8AB12"/>
</svg>
