<svg width="26" height="26" viewBox="0 0 26 26" fill="none" xmlns="http://www.w3.org/2000/svg">
<path d="M6.70475 23.8789H19.3038C21.2303 23.8789 22.3438 22.7598 22.3438 20.5421V9.40251C22.3438 7.18534 21.2198 6.06573 18.9823 6.06573H17.2806C17.2166 3.80539 15.2682 1.87891 12.849 1.87891C10.4193 1.87891 8.47089 3.80539 8.40649 6.06573H6.70521C4.4787 6.06573 3.34375 7.17432 3.34375 9.40251V20.5426C3.34375 22.7703 4.4787 23.8789 6.70521 23.8789M12.849 3.51515C14.358 3.51515 15.5035 4.65635 15.5574 6.06619H10.1407C10.1836 4.65635 11.329 3.51515 12.849 3.51515Z" fill="#116380"/>
</svg>
