<svg width="193" height="20" viewBox="0 0 193 20" fill="none" xmlns="http://www.w3.org/2000/svg">
<path d="M151 10L80.5 10L10 10" stroke="#2E2E2E"/>
<path d="M173.833 15.6198C173.986 15.6394 174.114 15.6484 174.238 15.6737C174.42 15.7108 174.493 15.8056 174.493 15.9839C174.493 16.0944 174.493 16.2046 174.493 16.3151C174.492 16.4976 174.425 16.6002 174.239 16.6225C173.997 16.6511 173.749 16.6668 173.506 16.6517C173.35 16.6421 173.285 16.6903 173.22 16.8197C172.787 17.689 172.348 18.5553 171.905 19.4198C171.709 19.8016 171.403 20.0181 170.95 19.9988C170.833 19.9937 170.716 19.9979 170.58 19.9979C171.403 17.0826 172.223 14.1815 173.052 11.2442C172.815 11.2442 172.601 11.2523 172.388 11.243C170.477 11.1602 168.566 11.0798 166.656 10.9858C166.043 10.9557 165.432 10.8913 164.822 10.8302C164.698 10.8178 164.641 10.8537 164.579 10.9497C163.967 11.8991 163.348 12.8443 162.736 13.7939C162.59 14.0195 162.393 14.1273 162.124 14.1212C161.94 14.117 161.756 14.1203 161.545 14.1203C161.893 12.9292 162.238 11.7528 162.588 10.5592C162.402 10.5221 162.228 10.4929 162.056 10.4523C161.828 10.3981 161.601 10.3376 161.376 10.2743C161.303 10.2539 161.226 10.2283 161.166 10.1846C161.097 10.134 160.998 10.0587 161 9.99762C161.002 9.93348 161.1 9.85429 161.174 9.81545C161.294 9.75222 161.426 9.70434 161.559 9.67122C161.89 9.58842 162.224 9.51705 162.585 9.43515C162.242 8.26265 161.897 7.08654 161.541 5.87067C161.833 5.88513 162.11 5.87128 162.372 5.92397C162.502 5.94987 162.639 6.07783 162.717 6.19527C163.348 7.14495 163.967 8.10246 164.584 9.06028C164.644 9.15302 164.7 9.18162 164.815 9.17289C166.115 9.07353 167.415 8.96212 168.717 8.89467C170.111 8.8224 171.507 8.7932 172.902 8.74502C172.943 8.74352 172.983 8.739 173.045 8.73418C172.223 5.8237 171.404 2.92286 170.582 0.00936812C170.95 0.00515266 171.318 -0.0586816 171.609 0.215324C171.721 0.321012 171.829 0.44326 171.899 0.577854C172.35 1.44925 172.793 2.32517 173.231 3.20319C173.289 3.31911 173.348 3.35675 173.484 3.35103C173.732 3.34049 173.984 3.35013 174.232 3.37843C174.428 3.40101 174.492 3.50158 174.493 3.69549C174.493 3.81082 174.488 3.92644 174.494 4.04176C174.501 4.18991 174.416 4.27632 174.288 4.31095C174.147 4.34889 173.998 4.36094 173.837 4.38683C173.937 4.58526 174.036 4.78188 174.135 4.9782C174.258 5.22089 174.383 5.46208 174.502 5.70657C174.54 5.78486 174.579 5.80443 174.675 5.80142C174.955 5.79239 175.237 5.796 175.515 5.82159C175.704 5.83906 175.772 5.94445 175.773 6.12511C175.773 6.24043 175.773 6.35606 175.773 6.47138C175.772 6.63638 175.705 6.73183 175.54 6.76586C175.396 6.79537 175.247 6.8053 175.083 6.82578C175.099 6.86583 175.113 6.90678 175.132 6.94441C175.415 7.50598 175.702 8.06633 175.983 8.6291C176.024 8.7119 176.073 8.74051 176.168 8.74562C177.435 8.81036 178.702 8.86576 179.966 8.95459C180.69 9.00548 181.409 9.11929 182.104 9.3379C182.288 9.39571 182.47 9.46767 182.639 9.55921C183.115 9.81846 183.125 10.1936 182.642 10.4345C182.336 10.5875 182.001 10.6986 181.666 10.7787C180.629 11.0274 179.567 11.1093 178.505 11.1683C177.724 11.2117 176.941 11.2279 176.159 11.2617C176.106 11.2641 176.028 11.2999 176.006 11.3427C175.697 11.937 175.396 12.535 175.094 13.1324C175.09 13.1405 175.092 13.1517 175.089 13.1773C175.217 13.1917 175.346 13.2008 175.473 13.2215C175.704 13.2595 175.772 13.3423 175.772 13.5687C175.772 13.669 175.772 13.7696 175.772 13.8698C175.772 14.0616 175.706 14.1628 175.506 14.1812C175.228 14.2068 174.946 14.1962 174.666 14.2065C174.62 14.2083 174.548 14.2215 174.532 14.2519C174.296 14.7015 174.069 15.1546 173.833 15.6192V15.6198Z" fill="#F8AB12"/>
</svg>
