<svg width="214" height="20" viewBox="0 0 214 20" fill="none" xmlns="http://www.w3.org/2000/svg">
<path d="M86 10H48H10" stroke="#2E2E2E"/>
<path d="M108.833 15.6198C108.986 15.6394 109.114 15.6484 109.238 15.6737C109.42 15.7108 109.493 15.8056 109.493 15.9839C109.493 16.0944 109.493 16.2046 109.493 16.3151C109.492 16.4976 109.425 16.6002 109.239 16.6225C108.997 16.6511 108.749 16.6668 108.506 16.6517C108.35 16.6421 108.285 16.6903 108.22 16.8197C107.787 17.689 107.348 18.5553 106.905 19.4198C106.709 19.8016 106.403 20.0181 105.95 19.9988C105.833 19.9937 105.716 19.9979 105.58 19.9979C106.403 17.0826 107.223 14.1815 108.052 11.2442C107.815 11.2442 107.601 11.2523 107.388 11.243C105.477 11.1602 103.566 11.0798 101.656 10.9858C101.043 10.9557 100.432 10.8913 99.822 10.8302C99.698 10.8178 99.6413 10.8537 99.5793 10.9497C98.967 11.8991 98.3479 12.8443 97.7356 13.7939C97.5902 14.0195 97.3931 14.1273 97.1237 14.1212C96.9398 14.117 96.756 14.1203 96.5445 14.1203C96.8935 12.9292 97.2381 11.7528 97.588 10.5592C97.4017 10.5221 97.2277 10.4929 97.0564 10.4523C96.8281 10.3981 96.6013 10.3376 96.3757 10.2743C96.3027 10.2539 96.2256 10.2283 96.1661 10.1846C96.0973 10.134 95.9976 10.0587 96 9.99762C96.0025 9.93348 96.0998 9.85429 96.1738 9.81545C96.2941 9.75222 96.4263 9.70434 96.5589 9.67122C96.8901 9.58842 97.2243 9.51705 97.5849 9.43515C97.2415 8.26265 96.8968 7.08654 96.5408 5.87067C96.833 5.88513 97.1095 5.87128 97.3723 5.92397C97.5021 5.94987 97.6393 6.07783 97.7172 6.19527C98.3479 7.14495 98.9667 8.10246 99.5842 9.06028C99.644 9.15302 99.7002 9.18162 99.8153 9.17289C101.115 9.07353 102.415 8.96212 103.717 8.89467C105.111 8.8224 106.507 8.7932 107.902 8.74502C107.943 8.74352 107.983 8.739 108.045 8.73418C107.223 5.8237 106.404 2.92286 105.582 0.00936812C105.95 0.00515266 106.318 -0.0586816 106.609 0.215324C106.721 0.321012 106.829 0.44326 106.899 0.577854C107.35 1.44925 107.793 2.32517 108.231 3.20319C108.289 3.31911 108.348 3.35675 108.484 3.35103C108.732 3.34049 108.984 3.35013 109.232 3.37843C109.428 3.40101 109.492 3.50158 109.493 3.69549C109.493 3.81082 109.488 3.92644 109.494 4.04176C109.501 4.18991 109.416 4.27632 109.288 4.31095C109.147 4.34889 108.998 4.36094 108.837 4.38683C108.937 4.58526 109.036 4.78188 109.135 4.9782C109.258 5.22089 109.383 5.46208 109.502 5.70657C109.54 5.78486 109.579 5.80443 109.675 5.80142C109.955 5.79239 110.237 5.796 110.515 5.82159C110.704 5.83906 110.772 5.94445 110.773 6.12511C110.773 6.24043 110.773 6.35606 110.773 6.47138C110.772 6.63638 110.705 6.73183 110.54 6.76586C110.396 6.79537 110.247 6.8053 110.083 6.82578C110.099 6.86583 110.113 6.90678 110.132 6.94441C110.415 7.50598 110.702 8.06633 110.983 8.6291C111.024 8.7119 111.073 8.74051 111.168 8.74562C112.435 8.81036 113.702 8.86576 114.966 8.95459C115.69 9.00548 116.409 9.11929 117.104 9.3379C117.288 9.39571 117.47 9.46767 117.639 9.55921C118.115 9.81846 118.125 10.1936 117.642 10.4345C117.336 10.5875 117.001 10.6986 116.666 10.7787C115.629 11.0274 114.567 11.1093 113.505 11.1683C112.724 11.2117 111.941 11.2279 111.159 11.2617C111.106 11.2641 111.028 11.2999 111.006 11.3427C110.697 11.937 110.396 12.535 110.094 13.1324C110.09 13.1405 110.092 13.1517 110.089 13.1773C110.217 13.1917 110.346 13.2008 110.473 13.2215C110.704 13.2595 110.772 13.3423 110.772 13.5687C110.772 13.669 110.772 13.7696 110.772 13.8698C110.772 14.0616 110.706 14.1628 110.506 14.1812C110.228 14.2068 109.946 14.1962 109.666 14.2065C109.62 14.2083 109.548 14.2215 109.532 14.2519C109.296 14.7015 109.069 15.1546 108.833 15.6192V15.6198Z" fill="#F8AB12"/>
<path d="M204 10H166H128" stroke="#2E2E2E"/>
</svg>
