<svg width="26" height="26" viewBox="0 0 26 26" fill="none" xmlns="http://www.w3.org/2000/svg">
<path d="M13 3C13.9889 3 14.9556 3.29324 15.7779 3.84265C16.6001 4.39206 17.241 5.17295 17.6194 6.08658C17.9978 7.00021 18.0969 8.00555 17.9039 8.97545C17.711 9.94536 17.2348 10.8363 16.5355 11.5355C15.8363 12.2348 14.9454 12.711 13.9755 12.9039C13.0055 13.0969 12.0002 12.9978 11.0866 12.6194C10.173 12.241 9.39206 11.6001 8.84265 10.7779C8.29324 9.95561 8 8.98891 8 8L8.005 7.783C8.06092 6.49575 8.61161 5.27978 9.54222 4.38866C10.4728 3.49754 11.7115 3.00007 13 3ZM15 15C16.3261 15 17.5979 15.5268 18.5355 16.4645C19.4732 17.4021 20 18.6739 20 20V21C20 21.5304 19.7893 22.0391 19.4142 22.4142C19.0391 22.7893 18.5304 23 18 23H8C7.46957 23 6.96086 22.7893 6.58579 22.4142C6.21071 22.0391 6 21.5304 6 21V20C6 18.6739 6.52678 17.4021 7.46447 16.4645C8.40215 15.5268 9.67392 15 11 15H15Z" fill="#116380"/>
</svg>
