<svg width="187" height="144" viewBox="0 0 187 144" fill="none" xmlns="http://www.w3.org/2000/svg">
<g clip-path="url(#clip0_709_1892)">
<path d="M181.498 93.5462H7.90242C7.90242 88.4559 7.86953 83.5015 7.91359 78.5437C7.94482 75.0477 7.94092 71.5427 8.20139 68.0602C8.60074 62.7174 10.5624 57.8836 13.4783 53.4319C15.5827 50.2193 17.6486 46.9787 19.8774 43.8541C20.1688 43.4703 20.5351 43.1505 20.9537 42.914C21.3723 42.6776 21.8345 42.5297 22.312 42.4793C70.5937 42.4142 118.876 42.4054 167.158 42.4529C167.819 42.4529 168.798 42.7335 169.092 43.2172C172.582 48.9236 176.366 54.5015 179.225 60.521C180.806 63.8526 181.232 67.9283 181.404 71.7071C181.729 78.8983 181.498 86.1142 181.498 93.5462ZM93.2989 87.4582C101.988 86.9425 110.185 86.5351 118.363 85.8763C119.474 85.7865 121.068 84.6524 121.445 83.6317C123.522 77.9999 125.358 72.2733 127.134 66.5349C127.923 63.9873 126.019 61.9211 123.371 62.2051C122.682 62.2791 122.009 62.4856 121.321 62.5855C115.956 63.3577 110.61 64.3302 105.22 64.8391C92.5888 66.0305 80.0784 64.9463 67.674 62.3459C64.0113 61.5783 62.1651 63.7432 63.3352 67.3093C64.9248 72.1549 66.7158 76.9399 68.1191 81.8388C68.9635 84.7866 70.6351 86.1647 73.5694 86.3241C80.301 86.6894 87.0303 87.0951 93.2989 87.4582ZM34.8358 59.7696L34.8313 59.8482C32.6795 59.7292 30.5288 59.539 28.3759 59.5065C24.5274 59.4475 21.6962 61.8072 21.1072 65.6113C20.7865 67.6797 20.6655 69.7812 20.4876 71.871C20.076 76.693 22.5875 79.7979 27.3423 80.3798C29.1355 80.5992 30.9287 80.8181 32.7202 81.0493C39.6798 81.9471 46.6391 82.8479 53.598 83.7518C55.1987 83.9594 56.7036 83.8045 57.678 82.3197C58.7176 80.7361 58.1242 79.285 57.22 77.8389C54.5949 73.6377 51.9961 69.4191 49.4238 65.1831C47.5073 62.0182 44.8195 60.2388 41.082 60.1209C38.9983 60.0558 36.9178 59.8903 34.8358 59.7696ZM154.976 58.8903V59.4245C152.685 59.4245 150.392 59.3566 148.104 59.4402C146.562 59.4457 145.048 59.8478 143.705 60.6085C142.362 61.3691 141.235 62.463 140.431 63.7858C137.526 68.3873 134.726 73.0573 131.857 77.6829C131.051 78.9831 130.809 80.2833 131.677 81.611C132.538 82.9297 133.811 83.2574 135.322 83.0638C144.556 81.8786 153.8 80.7631 163.028 79.5285C164.739 79.2923 166.3 78.4163 167.398 77.0748C168.496 75.7333 169.052 74.0249 168.955 72.2896C168.847 69.8475 168.596 67.4075 168.275 64.9811C168.094 63.2928 167.292 61.7334 166.028 60.6085C164.763 59.4836 163.127 58.8742 161.439 58.8998C159.285 58.86 157.13 58.8903 154.976 58.8903Z" fill="white"/>
<path d="M164.944 35.5838H24.498C26.5244 28.9464 27.9595 22.2659 30.5842 16.0976C34.8678 6.02993 42.9379 0.320155 53.8654 0.207924C81.0599 -0.0704094 108.257 -0.0719033 135.456 0.203437C146.477 0.312863 154.561 6.07483 158.858 16.2368C161.446 22.3534 162.904 28.9588 164.944 35.5838Z" fill="white"/>
<path d="M181.287 100.601C183.067 108.292 178.498 117.857 170.931 122.322C167.627 124.306 163.852 125.353 160.004 125.353C116.378 125.366 72.7518 125.36 29.1255 125.335C16.1026 125.315 6.78362 114.322 8.05084 100.601L181.287 100.601Z" fill="white"/>
<path d="M181.255 122.362C181.255 126.968 181.6 131.096 181.168 135.14C180.627 140.195 176.306 143.782 171.275 143.905C167.527 143.997 163.77 144.036 160.027 143.878C154.136 143.629 149.712 138.19 150.464 132.115C152.225 132.115 154.016 132.066 155.803 132.124C165.485 132.435 174.329 130.463 181.255 122.362Z" fill="white"/>
<path d="M7.90164 122.239C12.1763 126.915 16.7766 130.187 22.387 131.13C27.8179 132.042 33.396 132.059 38.9523 132.474C39.78 137.901 35.3269 143.556 29.572 143.852C25.5528 144.058 21.508 144.036 17.4866 143.855C12.5684 143.631 8.42593 139.478 7.99925 134.319C7.74101 131.193 7.91782 128.03 7.90053 124.885C7.8983 124.203 7.90164 123.525 7.90164 122.239Z" fill="white"/>
<path d="M20.1515 27.3101C18.7627 29.9745 17.5624 32.319 16.3242 34.6422C14.3548 38.3368 12.3257 42.0001 10.397 45.716C9.87155 46.7261 9.36288 47.0931 8.15423 46.8642C3.29788 45.9433 0.0567738 42.4748 -0.00123249 37.9339C-0.0570078 33.4447 3.12944 29.7601 7.96404 28.8909C11.5175 28.2523 15.0966 27.7546 18.6668 27.213C19.1635 27.2052 19.66 27.2377 20.1515 27.3101Z" fill="white"/>
<path d="M169.365 26.9785C173.299 27.6715 176.945 28.1496 180.508 28.9874C182.346 29.4537 183.978 30.5184 185.152 32.0156C186.326 33.5128 186.974 35.3584 186.996 37.2651C187.057 39.2005 186.489 41.103 185.378 42.6845C184.268 44.2661 182.675 45.4406 180.842 46.0303C180.263 46.2082 179.165 46.1061 178.916 45.7273C175.326 40.2779 171.031 35.1972 169.671 28.5329C169.589 28.1289 169.512 27.7237 169.365 26.9785Z" fill="white"/>
<path d="M119.05 69.8301C118.032 72.9585 117.151 75.8014 116.15 78.6004C116.014 78.8482 115.823 79.0613 115.593 79.2235C115.362 79.3856 115.098 79.4925 114.82 79.5358C101.873 80.7379 88.8451 80.7681 75.8928 79.6262C75.5019 79.5388 75.1357 79.3638 74.8215 79.1141C74.5072 78.8645 74.253 78.5468 74.0778 78.1846C73.0672 75.6089 72.2685 72.9496 71.2891 70.0169C87.1039 72.6895 103.256 72.6263 119.05 69.8301Z" fill="white"/>
<path d="M48.3617 76.2711L27.1113 73.5354C27.2787 71.3099 27.3646 69.2325 27.6602 67.1854C27.7159 66.8111 28.634 66.2825 29.1393 66.2982C33.0252 66.4183 36.9122 66.5911 40.7863 66.9037C41.733 66.9655 42.6189 67.3944 43.2577 68.1001C44.999 70.6017 46.5128 73.2638 48.3617 76.2711Z" fill="white"/>
<path d="M140.998 75.6313C142.942 72.4844 144.493 69.8599 146.182 67.3262C146.406 67.0238 146.686 66.7693 147.009 66.5774C147.331 66.3856 147.688 66.2603 148.059 66.209C152.473 65.9132 156.897 65.7505 161.592 65.5322L162.334 72.8228L140.998 75.6313Z" fill="white"/>
</g>
<defs>
<clipPath id="clip0_709_1892">
<rect width="187" height="144" fill="white"/>
</clipPath>
</defs>
</svg>
