<svg width="136" height="40" viewBox="0 0 136 40" fill="none" xmlns="http://www.w3.org/2000/svg">
<g clip-path="url(#clip0_262_698)">
<path d="M131.161 40H4.76403C2.13772 40 0 37.872 0 35.267V4.726C0 2.12 2.13772 0 4.76403 0H131.161C133.787 0 136 2.12 136 4.726V35.267C136 37.872 133.787 40 131.161 40Z" fill="#A6A6A6"/>
<path d="M135.025 35.2679C135.025 37.3839 133.298 39.0979 131.162 39.0979H4.76392C2.62923 39.0979 0.896484 37.3839 0.896484 35.2679V4.72489C0.896484 2.60989 2.62923 0.889893 4.76392 0.889893H131.161C133.298 0.889893 135.024 2.60989 135.024 4.72489L135.025 35.2679Z" fill="black"/>
<path d="M30.3512 19.784C30.322 16.561 33.0098 14.993 33.1327 14.92C31.6105 12.717 29.2511 12.416 28.422 12.392C26.4405 12.185 24.5183 13.569 23.5089 13.569C22.4793 13.569 20.9249 12.412 19.2496 12.446C17.0937 12.479 15.0769 13.718 13.9708 15.642C11.688 19.565 13.3905 25.33 15.5776 28.501C16.6716 30.054 17.95 31.788 19.6233 31.727C21.2604 31.66 21.8719 30.691 23.8474 30.691C25.8048 30.691 26.379 31.727 28.0856 31.688C29.8425 31.66 30.9486 30.128 32.0044 28.561C33.2687 26.781 33.7764 25.028 33.7966 24.938C33.7553 24.924 30.3845 23.647 30.3512 19.784Z" fill="white"/>
<path d="M27.1272 10.306C28.0077 9.21304 28.6101 7.72604 28.4429 6.21704C27.1685 6.27304 25.5748 7.09204 24.6571 8.16104C23.8451 9.10304 23.1198 10.647 23.3072 12.099C24.7387 12.205 26.2085 11.382 27.1272 10.306Z" fill="white"/>
<path d="M54.0428 31.504H51.755L50.5018 27.595H46.1458L44.952 31.504H42.7246L47.0403 18.196H49.7059L54.0428 31.504ZM50.124 25.955L48.9907 22.48C48.8708 22.125 48.6462 21.289 48.3147 19.973H48.2744C48.1424 20.539 47.9299 21.375 47.6377 22.48L46.5245 25.955H50.124Z" fill="white"/>
<path d="M65.1415 26.5879C65.1415 28.2199 64.6972 29.5099 63.8087 30.4569C63.0128 31.2999 62.0246 31.7209 60.8449 31.7209C59.5715 31.7209 58.6568 31.2669 58.0997 30.3589H58.0594V35.4139H55.9116V25.0669C55.9116 24.0409 55.8844 22.9879 55.832 21.9079H57.7209L57.8408 23.4289H57.8811C58.5974 22.2829 59.6844 21.7109 61.1431 21.7109C62.2835 21.7109 63.2355 22.1579 63.9971 23.0529C64.7607 23.9489 65.1415 25.1269 65.1415 26.5879ZM62.9534 26.6659C62.9534 25.7319 62.7418 24.9619 62.3167 24.3559C61.8523 23.7239 61.2287 23.4079 60.447 23.4079C59.9171 23.4079 59.4355 23.5839 59.0054 23.9309C58.5742 24.2809 58.2921 24.7379 58.1601 25.3039C58.0937 25.5679 58.0604 25.7839 58.0604 25.9539V27.5539C58.0604 28.2519 58.276 28.8409 58.7072 29.3219C59.1383 29.8029 59.6985 30.0429 60.3875 30.0429C61.1965 30.0429 61.8261 29.7329 62.2764 29.1149C62.7277 28.4959 62.9534 27.6799 62.9534 26.6659Z" fill="white"/>
<path d="M76.2606 26.5879C76.2606 28.2199 75.8163 29.5099 74.9268 30.4569C74.1319 31.2999 73.1437 31.7209 71.964 31.7209C70.6906 31.7209 69.7759 31.2669 69.2198 30.3589H69.1795V35.4139H67.0317V25.0669C67.0317 24.0409 67.0045 22.9879 66.9521 21.9079H68.841L68.9609 23.4289H69.0012C69.7165 22.2829 70.8035 21.7109 72.2632 21.7109C73.4026 21.7109 74.3546 22.1579 75.1182 23.0529C75.8788 23.9489 76.2606 25.1269 76.2606 26.5879ZM74.0725 26.6659C74.0725 25.7319 73.8599 24.9619 73.4348 24.3559C72.9704 23.7239 72.3488 23.4079 71.5661 23.4079C71.0352 23.4079 70.5546 23.5839 70.1235 23.9309C69.6923 24.2809 69.4112 24.7379 69.2793 25.3039C69.2138 25.5679 69.1795 25.7839 69.1795 25.9539V27.5539C69.1795 28.2519 69.3951 28.8409 69.8243 29.3219C70.2554 29.8019 70.8156 30.0429 71.5066 30.0429C72.3156 30.0429 72.9452 29.7329 73.3955 29.1149C73.8468 28.4959 74.0725 27.6799 74.0725 26.6659Z" fill="white"/>
<path d="M88.6912 27.772C88.6912 28.904 88.2953 29.825 87.5004 30.536C86.627 31.313 85.4111 31.701 83.8486 31.701C82.406 31.701 81.2495 31.425 80.374 30.872L80.8717 29.095C81.8146 29.661 82.8492 29.945 83.9765 29.945C84.7855 29.945 85.4151 29.763 85.8674 29.401C86.3177 29.039 86.5424 28.553 86.5424 27.947C86.5424 27.407 86.357 26.952 85.9853 26.583C85.6156 26.214 84.998 25.871 84.1357 25.554C81.7884 24.685 80.6158 23.412 80.6158 21.738C80.6158 20.644 81.0268 19.747 81.8499 19.049C82.6699 18.35 83.7639 18.001 85.132 18.001C86.352 18.001 87.3654 18.212 88.1744 18.633L87.6374 20.371C86.8819 19.963 86.0276 19.759 85.0716 19.759C84.316 19.759 83.7257 19.944 83.3026 20.312C82.9449 20.641 82.7656 21.042 82.7656 21.517C82.7656 22.043 82.9701 22.478 83.3811 22.82C83.7388 23.136 84.3885 23.478 85.3315 23.847C86.485 24.308 87.3322 24.847 87.8772 25.465C88.4202 26.081 88.6912 26.852 88.6912 27.772Z" fill="white"/>
<path d="M95.7926 23.5081H93.4252V28.1671C93.4252 29.3521 93.8422 29.9441 94.6784 29.9441C95.0622 29.9441 95.3805 29.9111 95.6324 29.8451L95.6918 31.4641C95.2687 31.6211 94.7116 31.7001 94.0215 31.7001C93.1733 31.7001 92.5104 31.4431 92.0319 30.9301C91.5554 30.4161 91.3156 29.5541 91.3156 28.3431V23.5061H89.9053V21.9061H91.3156V20.1491L93.4252 19.5171V21.9061H95.7926V23.5081Z" fill="white"/>
<path d="M106.474 26.6269C106.474 28.1019 106.049 29.3129 105.201 30.2599C104.312 31.2349 103.131 31.7209 101.659 31.7209C100.241 31.7209 99.1113 31.2539 98.2691 30.3199C97.427 29.3859 97.0059 28.2069 97.0059 26.7859C97.0059 25.2989 97.439 24.0809 98.3084 23.1339C99.1758 22.1859 100.346 21.7119 101.818 21.7119C103.237 21.7119 104.378 22.1789 105.239 23.1139C106.063 24.0209 106.474 25.1919 106.474 26.6269ZM104.246 26.6959C104.246 25.8109 104.056 25.0519 103.67 24.4189C103.22 23.6529 102.576 23.2709 101.742 23.2709C100.878 23.2709 100.223 23.6539 99.7722 24.4189C99.3864 25.0529 99.196 25.8239 99.196 26.7359C99.196 27.6209 99.3864 28.3799 99.7722 29.0119C100.237 29.7779 100.885 30.1599 101.723 30.1599C102.543 30.1599 103.186 29.7699 103.651 28.9919C104.047 28.3469 104.246 27.5799 104.246 26.6959Z" fill="white"/>
<path d="M113.455 23.7829C113.243 23.7439 113.016 23.7239 112.778 23.7239C112.023 23.7239 111.438 24.0069 111.027 24.5739C110.67 25.0739 110.49 25.7059 110.49 26.4689V31.5039H108.344L108.364 24.9299C108.364 23.8239 108.337 22.8169 108.283 21.9089H110.154L110.233 23.7449H110.292C110.519 23.1139 110.876 22.6059 111.366 22.2249C111.844 21.8819 112.361 21.7109 112.918 21.7109C113.117 21.7109 113.296 21.7249 113.455 21.7499V23.7829Z" fill="white"/>
<path d="M123.061 26.2519C123.061 26.6339 123.036 26.9559 122.982 27.2189H116.539C116.564 28.1669 116.875 28.8919 117.474 29.3919C118.017 29.8389 118.719 30.0629 119.581 30.0629C120.535 30.0629 121.406 29.9119 122.188 29.6089L122.525 31.0889C121.61 31.4849 120.53 31.6819 119.284 31.6819C117.785 31.6819 116.608 31.2439 115.752 30.3689C114.898 29.4939 114.47 28.3189 114.47 26.8449C114.47 25.3979 114.868 24.1929 115.665 23.2319C116.499 22.2059 117.626 21.6929 119.044 21.6929C120.438 21.6929 121.492 22.2059 122.209 23.2319C122.776 24.0469 123.061 25.0549 123.061 26.2519ZM121.013 25.6989C121.027 25.0669 120.887 24.5209 120.596 24.0599C120.224 23.4669 119.653 23.1709 118.884 23.1709C118.182 23.1709 117.611 23.4599 117.175 24.0399C116.817 24.5009 116.604 25.0539 116.539 25.6979L121.013 25.6989Z" fill="white"/>
<path d="M49.4138 10.0092C49.4138 11.1862 49.0582 12.0722 48.348 12.6672C47.6901 13.2162 46.7553 13.4912 45.5444 13.4912C44.9439 13.4912 44.4302 13.4652 44 13.4132V6.98219C44.5611 6.89219 45.1656 6.84619 45.8184 6.84619C46.9719 6.84619 47.8412 7.09519 48.4276 7.59319C49.0844 8.15619 49.4138 8.96119 49.4138 10.0092ZM48.3006 10.0382C48.3006 9.27519 48.0971 8.69019 47.6901 8.28219C47.2831 7.87519 46.6888 7.67119 45.906 7.67119C45.5736 7.67119 45.2905 7.69319 45.0558 7.73919V12.6282C45.1857 12.6482 45.4235 12.6572 45.769 12.6572C46.5769 12.6572 47.2005 12.4342 47.6398 11.9882C48.079 11.5422 48.3006 10.8922 48.3006 10.0382Z" fill="white"/>
<path d="M55.3162 11.037C55.3162 11.762 55.1077 12.356 54.6906 12.822C54.2534 13.301 53.6742 13.54 52.9508 13.54C52.2537 13.54 51.6986 13.311 51.2846 12.851C50.8716 12.392 50.665 11.813 50.665 11.115C50.665 10.385 50.8776 9.78605 51.3047 9.32105C51.7319 8.85605 52.3061 8.62305 53.0294 8.62305C53.7266 8.62305 54.2867 8.85205 54.7108 9.31105C55.1137 9.75705 55.3162 10.333 55.3162 11.037ZM54.2212 11.071C54.2212 10.636 54.1265 10.263 53.9381 9.95205C53.7165 9.57605 53.4012 9.38805 52.9911 9.38805C52.567 9.38805 52.2447 9.57605 52.023 9.95205C51.8336 10.263 51.7399 10.642 51.7399 11.09C51.7399 11.525 51.8346 11.898 52.023 12.209C52.2517 12.585 52.57 12.773 52.9811 12.773C53.384 12.773 53.7004 12.582 53.928 12.199C54.1235 11.882 54.2212 11.506 54.2212 11.071Z" fill="white"/>
<path d="M63.2302 8.71924L61.7443 13.4332H60.7772L60.1616 11.3862C60.0055 10.8752 59.8786 10.3672 59.7798 9.86324H59.7607C59.669 10.3812 59.5421 10.8882 59.3789 11.3862L58.7251 13.4332H57.7469L56.3496 8.71924H57.4346L57.9715 10.9602C58.1015 11.4902 58.2083 11.9952 58.2939 12.4732H58.313C58.3916 12.0792 58.5216 11.5772 58.7049 10.9702L59.3789 8.72024H60.2392L60.885 10.9222C61.0411 11.4592 61.168 11.9762 61.2658 12.4742H61.295C61.3665 11.9892 61.4743 11.4722 61.6173 10.9222L62.1936 8.72024H63.2302V8.71924Z" fill="white"/>
<path d="M68.7036 13.4331H67.6479V10.7331C67.6479 9.90112 67.3295 9.48512 66.6908 9.48512C66.3775 9.48512 66.1247 9.59912 65.9282 9.82812C65.7338 10.0571 65.6351 10.3271 65.6351 10.6361V13.4321H64.5793V10.0661C64.5793 9.65212 64.5662 9.20312 64.541 8.71712H65.4688L65.5182 9.45412H65.5474C65.6703 9.22512 65.8537 9.03612 66.0944 8.88512C66.3805 8.70912 66.7009 8.62012 67.0515 8.62012C67.4947 8.62012 67.8634 8.76212 68.1566 9.04712C68.5213 9.39612 68.7036 9.91712 68.7036 10.6091V13.4331Z" fill="white"/>
<path d="M71.6153 13.4332H70.5605V6.55615H71.6153V13.4332Z" fill="white"/>
<path d="M77.8309 11.037C77.8309 11.762 77.6224 12.356 77.2053 12.822C76.7681 13.301 76.1878 13.54 75.4655 13.54C74.7674 13.54 74.2123 13.311 73.7992 12.851C73.3862 12.392 73.1797 11.813 73.1797 11.115C73.1797 10.385 73.3923 9.78605 73.8194 9.32105C74.2465 8.85605 74.8208 8.62305 75.5431 8.62305C76.2412 8.62305 76.8003 8.85205 77.2254 9.31105C77.6284 9.75705 77.8309 10.333 77.8309 11.037ZM76.7348 11.071C76.7348 10.636 76.6401 10.263 76.4517 9.95205C76.2311 9.57605 75.9148 9.38805 75.5058 9.38805C75.0807 9.38805 74.7583 9.57605 74.5377 9.95205C74.3483 10.263 74.2546 10.642 74.2546 11.09C74.2546 11.525 74.3493 11.898 74.5377 12.209C74.7664 12.585 75.0847 12.773 75.4957 12.773C75.8987 12.773 76.214 12.582 76.4417 12.199C76.6381 11.882 76.7348 11.506 76.7348 11.071Z" fill="white"/>
<path d="M82.9407 13.433H81.9927L81.9141 12.89H81.8849C81.5605 13.323 81.0981 13.54 80.4977 13.54C80.0494 13.54 79.6867 13.397 79.4137 13.113C79.1659 12.855 79.042 12.534 79.042 12.153C79.042 11.577 79.2838 11.138 79.7703 10.834C80.2559 10.53 80.9389 10.381 81.8184 10.388V10.3C81.8184 9.67905 81.49 9.36905 80.8322 9.36905C80.3637 9.36905 79.9507 9.48605 79.5941 9.71805L79.3795 9.03005C79.8207 8.75905 80.3657 8.62305 81.0085 8.62305C82.2496 8.62305 82.8722 9.27305 82.8722 10.573V12.309C82.8722 12.78 82.8953 13.155 82.9407 13.433ZM81.8446 11.813V11.086C80.68 11.066 80.0978 11.383 80.0978 12.036C80.0978 12.282 80.1642 12.466 80.3002 12.589C80.4362 12.712 80.6095 12.773 80.816 12.773C81.0477 12.773 81.2643 12.7 81.4618 12.555C81.6602 12.409 81.7821 12.224 81.8275 11.997C81.8386 11.946 81.8446 11.884 81.8446 11.813Z" fill="white"/>
<path d="M88.9396 13.4332H88.0027L87.9533 12.6762H87.9241C87.6249 13.2522 87.1152 13.5402 86.3989 13.5402C85.8267 13.5402 85.3502 13.3172 84.9724 12.8712C84.5946 12.4252 84.4062 11.8462 84.4062 11.1352C84.4062 10.3722 84.6108 9.75415 85.0218 9.28215C85.4197 8.84215 85.9073 8.62215 86.4875 8.62215C87.1252 8.62215 87.5715 8.83515 87.8254 9.26215H87.8455V6.55615H88.9023V12.1632C88.9023 12.6222 88.9144 13.0452 88.9396 13.4332ZM87.8455 11.4452V10.6592C87.8455 10.5232 87.8355 10.4132 87.8163 10.3292C87.7569 10.0772 87.6289 9.86515 87.4345 9.69415C87.2381 9.52315 87.0013 9.43715 86.7283 9.43715C86.3344 9.43715 86.0262 9.59215 85.7995 9.90315C85.5748 10.2142 85.461 10.6112 85.461 11.0962C85.461 11.5622 85.5688 11.9402 85.7854 12.2312C86.0141 12.5412 86.3223 12.6962 86.7082 12.6962C87.0547 12.6962 87.3318 12.5672 87.5423 12.3082C87.7458 12.0692 87.8455 11.7812 87.8455 11.4452Z" fill="white"/>
<path d="M97.9686 11.037C97.9686 11.762 97.7601 12.356 97.343 12.822C96.9058 13.301 96.3275 13.54 95.6032 13.54C94.9071 13.54 94.352 13.311 93.9369 12.851C93.5239 12.392 93.3174 11.813 93.3174 11.115C93.3174 10.385 93.5299 9.78605 93.9571 9.32105C94.3842 8.85605 94.9584 8.62305 95.6828 8.62305C96.3789 8.62305 96.94 8.85205 97.3631 9.31105C97.7661 9.75705 97.9686 10.333 97.9686 11.037ZM96.8745 11.071C96.8745 10.636 96.7798 10.263 96.5915 9.95205C96.3688 9.57605 96.0545 9.38805 95.6435 9.38805C95.2204 9.38805 94.898 9.57605 94.6754 9.95205C94.486 10.263 94.3923 10.642 94.3923 11.09C94.3923 11.525 94.487 11.898 94.6754 12.209C94.904 12.585 95.2224 12.773 95.6334 12.773C96.0364 12.773 96.3537 12.582 96.5814 12.199C96.7758 11.882 96.8745 11.506 96.8745 11.071Z" fill="white"/>
<path d="M103.646 13.4331H102.591V10.7331C102.591 9.90112 102.273 9.48512 101.633 9.48512C101.32 9.48512 101.067 9.59912 100.872 9.82812C100.676 10.0571 100.578 10.3271 100.578 10.6361V13.4321H99.5217V10.0661C99.5217 9.65212 99.5096 9.20312 99.4844 8.71712H100.411L100.461 9.45412H100.49C100.614 9.22512 100.797 9.03612 101.037 8.88512C101.324 8.70912 101.643 8.62012 101.995 8.62012C102.437 8.62012 102.806 8.76212 103.099 9.04712C103.465 9.39612 103.646 9.91712 103.646 10.6091V13.4331Z" fill="white"/>
<path d="M110.751 9.50417H109.588V11.7942C109.588 12.3762 109.795 12.6672 110.204 12.6672C110.393 12.6672 110.55 12.6512 110.674 12.6182L110.701 13.4132C110.493 13.4912 110.219 13.5302 109.881 13.5302C109.464 13.5302 109.14 13.4042 108.905 13.1522C108.669 12.9002 108.552 12.4762 108.552 11.8812V9.50417H107.858V8.71917H108.552V7.85517L109.587 7.54517V8.71817H110.75L110.751 9.50417Z" fill="white"/>
<path d="M116.34 13.4332H115.283V10.7532C115.283 9.90815 114.965 9.48515 114.327 9.48515C113.838 9.48515 113.503 9.73015 113.32 10.2202C113.289 10.3232 113.271 10.4492 113.271 10.5972V13.4322H112.216V6.55615H113.271V9.39715H113.291C113.623 8.88015 114.1 8.62215 114.717 8.62215C115.154 8.62215 115.516 8.76415 115.803 9.04915C116.161 9.40415 116.34 9.93215 116.34 10.6302V13.4332Z" fill="white"/>
<path d="M122.105 10.8533C122.105 11.0413 122.091 11.1993 122.066 11.3283H118.899C118.913 11.7943 119.065 12.1493 119.358 12.3953C119.626 12.6153 119.971 12.7253 120.394 12.7253C120.863 12.7253 121.29 12.6513 121.675 12.5023L121.84 13.2303C121.39 13.4243 120.86 13.5213 120.246 13.5213C119.511 13.5213 118.932 13.3063 118.512 12.8763C118.091 12.4463 117.883 11.8693 117.883 11.1453C117.883 10.4343 118.077 9.84226 118.469 9.37026C118.878 8.86626 119.431 8.61426 120.129 8.61426C120.812 8.61426 121.331 8.86626 121.682 9.37026C121.965 9.77026 122.105 10.2653 122.105 10.8533ZM121.097 10.5823C121.106 10.2713 121.036 10.0033 120.893 9.77726C120.71 9.48626 120.431 9.34026 120.053 9.34026C119.708 9.34026 119.427 9.48226 119.213 9.76726C119.037 9.99426 118.934 10.2653 118.899 10.5823H121.097Z" fill="white"/>
</g>
<defs>
<clipPath id="clip0_262_698">
<rect width="136" height="40" fill="white"/>
</clipPath>
</defs>
</svg>
