<svg width="22" height="22" viewBox="0 0 22 22" fill="none" xmlns="http://www.w3.org/2000/svg">
<path d="M20.5001 10.75C20.5019 11.9645 20.2638 13.1674 19.7996 14.2897C19.3355 15.412 18.6542 16.4316 17.7951 17.29C16.9357 18.1495 15.9153 18.8313 14.7923 19.2963C13.6692 19.7613 12.4656 20.0004 11.2501 20C9.94186 20.0032 8.64802 19.7271 7.4551 19.19L3.5881 19.762C3.3961 19.7933 3.19935 19.7774 3.01494 19.7154C2.83052 19.6534 2.66403 19.5474 2.5299 19.4065C2.39578 19.2655 2.2981 19.094 2.24533 18.9068C2.19256 18.7195 2.1863 18.5222 2.2271 18.332L2.7641 14.409C2.25454 13.2568 1.99418 12.0099 2.0001 10.75C1.99844 9.53552 2.23652 8.33265 2.70071 7.21037C3.16489 6.08809 3.84604 5.06848 4.7051 4.21C5.56449 3.35042 6.58486 2.66864 7.7079 2.20364C8.83093 1.73864 10.0346 1.49954 11.2501 1.5C13.7047 1.50016 16.0588 2.47491 17.7951 4.21C18.6538 5.06875 19.3347 6.08841 19.7989 7.21063C20.263 8.33284 20.5013 9.53558 20.5001 10.75Z" stroke="#0E3049" stroke-width="3" stroke-linecap="round" stroke-linejoin="round"/>
</svg>
