<svg width="37" height="17" viewBox="0 0 37 17" fill="none" xmlns="http://www.w3.org/2000/svg">
<path d="M0.00126297 0C0.0038597 1.48273 -0.013019 2.81615 0.0285286 4.14698C0.0350204 4.34562 0.280411 4.57933 0.472569 4.72085C2.38766 6.14126 4.59487 6.87743 6.88908 7.36951C11.9527 8.45754 17.0566 8.43417 22.1695 7.81615C25.9569 7.35783 29.6715 6.56972 33.1784 5.01818C34.2196 4.55726 35.1856 3.92885 36.1932 3.39003C36.6411 3.14983 36.8488 2.82264 36.7891 2.29421C36.7411 1.87094 36.7774 1.43729 36.7774 0.990652C35.7543 1.48403 34.7961 2.01766 33.786 2.42145C30.3401 3.80161 26.7099 4.35082 23.0368 4.61828C17.772 5.0013 12.5422 4.74942 7.39415 3.50039C4.75457 2.859 2.22147 1.95534 0.00126297 0Z" fill="#F8AB12"/>
<path d="M36.7829 3.87695C36.087 4.30411 35.5001 4.70012 34.8821 5.03899C31.779 6.74244 28.4175 7.68635 24.9639 8.33034C19.4212 9.36514 13.8551 9.62481 8.26822 8.70817C7.48271 8.57963 6.70759 8.38617 5.8234 8.2018C5.8247 9.25218 5.80782 10.274 5.85197 11.2945C5.85846 11.4347 6.15838 11.6152 6.35444 11.684C8.14618 12.3072 10.0093 12.5721 11.892 12.6357C19.1342 12.8798 26.0948 11.6632 32.6255 8.42512C33.8148 7.83567 34.8756 6.98654 36 6.26335C36.618 5.86605 36.9257 5.33502 36.7894 4.58196C36.7556 4.395 36.7842 4.19635 36.7829 3.87825V3.87695Z" fill="#F8AB12"/>
<path d="M10.179 13.5328C10.1803 14.5053 10.1634 15.4492 10.2062 16.3892C10.2127 16.5164 10.5127 16.7047 10.6996 16.7384C12.716 17.1046 14.7466 17.0449 16.7669 16.8125C22.0746 16.2009 27.1382 14.7468 31.8188 12.1396C33.186 11.3775 34.4064 10.3557 35.7048 9.46761C36.6916 8.79246 37.0343 7.8875 36.7007 6.68262C36.2839 7.03058 35.8749 7.39802 35.4412 7.7317C32.5641 9.94541 29.2532 11.2334 25.7892 12.1513C20.8022 13.4718 15.736 14.0106 10.5802 13.5341C10.4776 13.525 10.3737 13.5341 10.1777 13.5341L10.179 13.5328Z" fill="#F8AB12"/>
</svg>
