<svg width="70" height="70" viewBox="0 0 70 70" fill="none" xmlns="http://www.w3.org/2000/svg">
<circle cx="35" cy="35" r="35" fill="#F5F9FA"/>
<g clip-path="url(#clip0_262_787)">
<path d="M44.5542 31.9994C44.5874 31.7504 44.6028 31.5409 44.6458 31.337C44.7087 31.0387 44.87 30.9202 45.173 30.9202C45.3609 30.9202 45.5482 30.9202 45.7361 30.9202C46.0463 30.9212 46.2209 31.0307 46.2587 31.336C46.3074 31.7323 46.334 32.1371 46.3084 32.5343C46.292 32.7904 46.3739 32.8964 46.594 33.0024C48.0718 33.711 49.5445 34.4301 51.0142 35.1548C51.6632 35.4747 52.0313 35.9765 51.9985 36.7177C51.9898 36.9091 51.997 37.1009 51.997 37.3224C47.0409 35.9755 42.1089 34.6351 37.1154 33.2781C37.1154 33.6663 37.1292 34.0163 37.1134 34.3649C36.9726 37.4916 36.8359 40.6184 36.6762 43.7442C36.625 44.7466 36.5155 45.746 36.4116 46.7449C36.3906 46.9478 36.4515 47.0407 36.6148 47.1421C38.2288 48.144 39.8356 49.157 41.4501 50.1589C41.8335 50.3969 42.0167 50.7194 42.0065 51.1603C41.9993 51.4611 42.005 51.762 42.005 52.108C39.9799 51.537 37.98 50.973 35.9509 50.4005C35.8879 50.7053 35.8383 50.9901 35.7692 51.2703C35.677 51.6439 35.5741 52.0151 35.4666 52.3842C35.4318 52.5037 35.3883 52.6298 35.3141 52.7272C35.2281 52.8397 35.1001 53.0029 34.9962 52.9989C34.8872 52.9949 34.7526 52.8357 34.6865 52.7147C34.579 52.5178 34.4976 52.3013 34.4413 52.0844C34.3006 51.5425 34.1792 50.9956 34.04 50.4055C32.0467 50.9675 30.0473 51.5314 27.9803 52.114C28.0049 51.6359 27.9813 51.1834 28.0709 50.7535C28.1149 50.5411 28.3325 50.3166 28.5321 50.189C30.1466 49.157 31.7744 48.1445 33.4027 47.1341C33.5604 47.0362 33.609 46.9442 33.5942 46.7559C33.4252 44.6286 33.2358 42.5022 33.1212 40.3718C32.9983 38.0908 32.9487 35.8057 32.8668 33.5227C32.8642 33.4569 32.8565 33.3911 32.8483 33.2896C27.9005 34.634 22.9689 35.9744 18.0159 37.3204C18.0088 36.7182 17.9002 36.1161 18.3661 35.639C18.5457 35.4552 18.7536 35.2784 18.9824 35.1644C20.4638 34.4261 21.9528 33.7014 23.4455 32.9843C23.6426 32.8899 23.7066 32.7934 23.6968 32.5715C23.6789 32.1647 23.6953 31.7524 23.7434 31.3476C23.7818 31.0272 23.9528 30.9217 24.2824 30.9207C24.4785 30.9207 24.6751 30.9277 24.8711 30.9187C25.123 30.9076 25.2699 31.0463 25.3287 31.2562C25.3932 31.4867 25.4137 31.7293 25.4577 31.9929C25.7951 31.8292 26.1293 31.6675 26.4631 31.5053C26.8757 31.3049 27.2857 31.1 27.7013 30.9056C27.8344 30.8434 27.8677 30.7791 27.8626 30.6219C27.8472 30.1644 27.8534 29.7028 27.8969 29.2473C27.9266 28.939 28.1057 28.8265 28.4128 28.826C28.6089 28.826 28.8055 28.826 29.0015 28.826C29.282 28.8265 29.4443 28.9365 29.5021 29.2072C29.5523 29.4432 29.5692 29.6863 29.604 29.9539C29.6721 29.9278 29.7417 29.9062 29.8057 29.8751C30.7604 29.4105 31.713 28.942 32.6697 28.4825C32.8105 28.4147 32.8591 28.3343 32.8678 28.1786C32.9779 26.1065 33.072 24.0334 33.223 21.9643C33.3096 20.7801 33.503 19.6034 33.8747 18.4664C33.973 18.1655 34.0953 17.8662 34.2509 17.5905C34.6916 16.8116 35.3295 16.796 35.739 17.585C35.999 18.0857 36.1879 18.6351 36.3241 19.1825C36.7469 20.8795 36.8861 22.6171 36.9864 24.3553C37.0601 25.6334 37.0878 26.9141 37.1451 28.1932C37.1492 28.2811 37.2101 28.4086 37.2828 28.4448C38.2933 28.9495 39.3099 29.4417 40.3255 29.9364C40.3393 29.9434 40.3582 29.9404 40.4017 29.9444C40.4263 29.7355 40.4417 29.5246 40.477 29.3161C40.5415 28.938 40.6823 28.8265 41.0672 28.8265C41.2376 28.8265 41.4086 28.8265 41.5791 28.8265C41.9051 28.8265 42.0771 28.935 42.1084 29.2619C42.1519 29.7174 42.134 30.1784 42.1514 30.6364C42.1544 30.7128 42.177 30.8308 42.2287 30.8569C42.9929 31.2416 43.7633 31.6143 44.5531 31.9994H44.5542Z" fill="#116380"/>
</g>
<defs>
<clipPath id="clip0_262_787">
<rect width="34" height="36" fill="white" transform="translate(18 17)"/>
</clipPath>
</defs>
</svg>
