<svg width="29" height="30" viewBox="0 0 29 30" fill="none" xmlns="http://www.w3.org/2000/svg">
<path d="M25.4148 10.0564V4.25021H28.7718V21.2763H25.4833V16.7055M25.4833 16.7055C25.3968 16.7055 25.3104 16.7055 25.2275 16.7055V28.444H27.9721V30H0V28.5016H2.95353V0H25.1519V10.06H25.4148M16.2769 21.0421H11.861V28.426H16.2769V21.0421ZM18.4092 2.28719V8.24829H22.8647V2.28719H18.4092ZM5.14347 2.27638V8.23028H9.53776V2.27638H5.14347ZM11.7277 8.2591H16.1724V2.31961H11.7277V8.2591ZM9.54136 17.3358V11.3747H5.13627V17.3358H9.54136ZM22.8575 17.3322V11.3747H18.4524V17.3322H22.8575ZM11.8502 11.3531V17.3358H16.2336V11.3531H11.8502ZM25.4004 15.2899V11.4071V15.2899ZM25.4004 11.4071C25.3428 11.4107 25.2851 11.4179 25.2311 11.4215V15.2972C25.2887 15.2972 25.3464 15.2936 25.4004 15.2899" fill="#116380"/>
<path d="M27.9041 5.61475V7.60658H27.3855V6.77095H27.2306V7.60658H26.7119V5.61475H27.2306V6.32792H27.3855V5.61475H27.9041Z" fill="#F5F9FA"/>
<path d="M27.8964 9.80758C27.8964 10.0093 27.8928 10.1498 27.882 10.2326C27.8712 10.3154 27.8424 10.3911 27.7919 10.4595C27.7415 10.528 27.6767 10.582 27.5902 10.618C27.5074 10.654 27.4065 10.672 27.2949 10.672C27.1904 10.672 27.0932 10.654 27.0067 10.618C26.9203 10.582 26.8518 10.5316 26.8014 10.4595C26.751 10.3911 26.7186 10.3154 26.7078 10.2326C26.697 10.1498 26.6934 10.0057 26.6934 9.80038V9.4582C26.6934 9.2565 26.697 9.11602 26.7078 9.03318C26.7186 8.95034 26.7474 8.87469 26.7978 8.80626C26.8482 8.73782 26.9131 8.6838 26.9995 8.64778C27.086 8.61176 27.1832 8.59375 27.2949 8.59375C27.4065 8.59375 27.4966 8.61176 27.583 8.64778C27.6695 8.6838 27.7379 8.73422 27.7883 8.80626C27.8388 8.87469 27.8712 8.95034 27.882 9.03318C27.8928 9.11602 27.8964 9.2601 27.8964 9.4654V9.80758ZM27.3777 9.15204C27.3777 9.05839 27.3741 9.00076 27.3633 8.97555C27.3525 8.95033 27.3309 8.93593 27.2985 8.93593C27.2697 8.93593 27.2517 8.94673 27.2372 8.96835C27.2228 8.98996 27.2156 9.05119 27.2156 9.15204V10.0813C27.2156 10.1966 27.2192 10.2686 27.23 10.2938C27.2409 10.3226 27.2625 10.3335 27.2949 10.3335C27.3273 10.3335 27.3525 10.319 27.3633 10.2866C27.3741 10.2542 27.3777 10.1822 27.3777 10.0633V9.14844V9.15204Z" fill="#F5F9FA"/>
<path d="M27.756 11.666V12.0658H27.4498V13.6615H26.9312V12.0658H26.625V11.666H27.756Z" fill="#F5F9FA"/>
<path d="M26.7119 14.6919H27.5764V15.0917H27.2306V15.4699H27.5548V15.8481H27.2306V16.2875H27.6124V16.6873H26.7119V14.6955V14.6919Z" fill="#F5F9FA"/>
<path d="M27.2299 17.7168V19.3124H27.5469V19.7122H26.7148V17.7204H27.2335L27.2299 17.7168Z" fill="#F5F9FA"/>
</svg>
