<svg width="20" height="23" viewBox="0 0 20 23" fill="none" xmlns="http://www.w3.org/2000/svg">
<path d="M3.70475 22.8789H16.3038C18.2303 22.8789 19.3438 21.7598 19.3438 19.5421V8.40251C19.3438 6.18534 18.2198 5.06573 15.9823 5.06573H14.2806C14.2166 2.80539 12.2682 0.878906 9.849 0.878906C7.41925 0.878906 5.47089 2.80539 5.40649 5.06573H3.70521C1.4787 5.06573 0.34375 6.17432 0.34375 8.40251V19.5426C0.34375 21.7703 1.4787 22.8789 3.70521 22.8789M9.849 2.51515C11.358 2.51515 12.5035 3.65635 12.5574 5.06619H7.14065C7.18359 3.65635 8.32904 2.51515 9.849 2.51515Z" fill="#116380"/>
</svg>
