<svg width="48" height="48" viewBox="0 0 48 48" fill="none" xmlns="http://www.w3.org/2000/svg">
<path d="M24 0.375C30.2657 0.375 36.2748 2.86406 40.7054 7.2946C45.1359 11.7251 47.625 17.7343 47.625 24C47.625 30.2657 45.1359 36.2748 40.7054 40.7054C36.2748 45.1359 30.2657 47.625 24 47.625C17.7343 47.625 11.7251 45.1359 7.2946 40.7054C2.86406 36.2748 0.375 30.2657 0.375 24C0.375 17.7343 2.86406 11.7251 7.2946 7.2946C11.7251 2.86406 17.7343 0.375 24 0.375ZM21.057 28.6609L15.8089 23.4094C15.6207 23.2212 15.3974 23.072 15.1516 22.9702C14.9057 22.8683 14.6423 22.8159 14.3762 22.8159C14.1101 22.8159 13.8466 22.8683 13.6008 22.9702C13.355 23.072 13.1316 23.2212 12.9435 23.4094C12.5635 23.7893 12.3501 24.3047 12.3501 24.8421C12.3501 25.3794 12.5635 25.8948 12.9435 26.2747L19.626 32.9573C19.8136 33.1464 20.0368 33.2964 20.2827 33.3989C20.5286 33.5013 20.7923 33.554 21.0587 33.554C21.3251 33.554 21.5888 33.5013 21.8347 33.3989C22.0806 33.2964 22.3038 33.1464 22.4914 32.9573L36.3289 19.1164C36.5195 18.929 36.6712 18.7058 36.7752 18.4595C36.8791 18.2132 36.9332 17.9488 36.9345 17.6815C36.9357 17.4142 36.884 17.1493 36.7824 16.902C36.6807 16.6548 36.5312 16.4301 36.3422 16.241C36.1533 16.0519 35.9289 15.902 35.6817 15.8001C35.4346 15.6982 35.1698 15.6461 34.9025 15.6471C34.6352 15.648 34.3707 15.7018 34.1243 15.8055C33.8779 15.9092 33.6545 16.0606 33.4669 16.251L21.057 28.6609Z" fill="#116380"/>
</svg>
